<?xml version="1.0" encoding="utf-8" standalone="no"?>
<!DOCTYPE svg PUBLIC "-//W3C//DTD SVG 1.1//EN"
  "http://www.w3.org/Graphics/SVG/1.1/DTD/svg11.dtd">
<svg xmlns:xlink="http://www.w3.org/1999/xlink" width="392.727273pt" height="245.454545pt" viewBox="0 0 392.727273 245.454545" xmlns="http://www.w3.org/2000/svg" version="1.1">
 <metadata>
  <rdf:RDF xmlns:dc="http://purl.org/dc/elements/1.1/" xmlns:cc="http://creativecommons.org/ns#" xmlns:rdf="http://www.w3.org/1999/02/22-rdf-syntax-ns#">
   <cc:Work>
    <dc:type rdf:resource="http://purl.org/dc/dcmitype/StillImage"/>
    <dc:date>2024-03-11T13:29:29.699955</dc:date>
    <dc:format>image/svg+xml</dc:format>
    <dc:creator>
     <cc:Agent>
      <dc:title>Matplotlib v3.8.0, https://matplotlib.org/</dc:title>
     </cc:Agent>
    </dc:creator>
   </cc:Work>
  </rdf:RDF>
 </metadata>
 <defs>
  <style type="text/css">*{stroke-linejoin: round; stroke-linecap: butt}</style>
 </defs>
 <g id="figure_1">
  <g id="patch_1">
   <path d="M 0 245.454545 
L 392.727273 245.454545 
L 392.727273 0 
L 0 0 
z
" style="fill: #ffffff"/>
  </g>
  <g id="axes_1">
   <g id="patch_2">
    <path d="M 43.04 211.214545 
L 381.927273 211.214545 
L 381.927273 10.8 
L 43.04 10.8 
z
" style="fill: #ffffff"/>
   </g>
   <g id="PolyCollection_1">
    <path d="M 43.04 44.202424 
L 49.886208 44.202424 
L 56.732415 44.202424 
L 63.578623 44.202424 
L 70.42483 44.202424 
L 77.271038 44.202424 
L 84.117245 44.202424 
L 90.963453 44.202424 
L 97.80966 44.202424 
L 104.655868 44.202424 
L 111.502075 44.202424 
L 118.348283 44.202424 
L 125.19449 44.202424 
L 132.040698 44.202424 
L 138.886905 44.202424 
L 145.733113 44.202424 
L 152.57932 44.202424 
L 159.425528 44.202424 
L 166.271736 44.202424 
L 173.117943 44.202424 
L 179.964151 44.202424 
L 186.810358 44.202424 
L 193.656566 44.202424 
L 200.502773 44.202424 
L 207.348981 44.202424 
L 214.195188 44.202424 
L 221.041396 44.202424 
L 227.887603 44.202424 
L 234.733811 44.202424 
L 241.580018 44.202424 
L 248.426226 44.202424 
L 255.272433 44.202424 
L 262.118641 44.202424 
L 268.964848 44.202424 
L 275.811056 44.202424 
L 282.657264 44.202424 
L 289.503471 44.202424 
L 296.349679 44.202424 
L 303.195886 44.202424 
L 310.042094 44.202424 
L 316.888301 44.202424 
L 323.734509 44.202424 
L 330.580716 44.202424 
L 337.426924 44.202424 
L 344.273131 44.202424 
L 351.119339 44.202424 
L 357.965546 44.202424 
L 364.811754 44.202424 
L 371.657961 44.202424 
L 378.504169 44.202424 
L 385.350376 44.202424 
L 392.196584 44.202424 
L 399.042792 44.202424 
L 405.888999 44.202424 
L 412.735207 44.202424 
L 419.581414 44.202424 
L 426.427622 44.202424 
L 433.273829 44.202424 
L 440.120037 44.202424 
L 446.966244 44.202424 
L 453.812452 44.202424 
L 460.658659 44.202424 
L 467.504867 44.202424 
L 474.351074 44.202424 
L 481.197282 44.202424 
L 488.043489 44.202424 
L 494.889697 44.202424 
L 501.735904 44.202424 
L 508.582112 44.202424 
L 515.42832 44.202424 
L 522.274527 44.202424 
L 529.120735 44.202424 
L 535.966942 44.202424 
L 542.81315 44.202424 
L 549.659357 44.202424 
L 556.505565 44.202424 
L 563.351772 44.202424 
L 570.19798 44.202424 
L 577.044187 44.202424 
L 583.890395 44.202424 
L 590.736602 44.202424 
L 597.58281 44.202424 
L 604.429017 44.202424 
L 611.275225 44.202424 
L 618.121433 44.202424 
L 624.96764 44.202424 
L 631.813848 44.202424 
L 638.660055 44.202424 
L 645.506263 44.202424 
L 652.35247 44.202424 
L 659.198678 44.202424 
L 666.044885 44.202424 
L 672.891093 44.202424 
L 679.7373 44.202424 
L 686.583508 44.202424 
L 693.429715 44.202424 
L 700.275923 44.202424 
L 707.12213 44.202424 
L 713.968338 44.202424 
L 720.814545 44.202424 
L 720.814545 44.202424 
L 720.814545 211.051448 
L 713.968338 211.039619 
L 707.12213 211.026933 
L 700.275923 211.013326 
L 693.429715 210.998733 
L 686.583508 210.983081 
L 679.7373 210.966295 
L 672.891093 210.948291 
L 666.044885 210.928981 
L 659.198678 210.90827 
L 652.35247 210.886058 
L 645.506263 210.862235 
L 638.660055 210.836684 
L 631.813848 210.80928 
L 624.96764 210.779888 
L 618.121433 210.748365 
L 611.275225 210.714556 
L 604.429017 210.678294 
L 597.58281 210.639403 
L 590.736602 210.597691 
L 583.890395 210.552955 
L 577.044187 210.504973 
L 570.19798 210.453512 
L 563.351772 210.398319 
L 556.505565 210.339123 
L 549.659357 210.275634 
L 542.81315 210.20754 
L 535.966942 210.134508 
L 529.120735 210.056179 
L 522.274527 209.972169 
L 515.42832 209.882067 
L 508.582112 209.78543 
L 501.735904 209.681785 
L 494.889697 209.570623 
L 488.043489 209.451399 
L 481.197282 209.323528 
L 474.351074 209.186384 
L 467.504867 209.039293 
L 460.658659 208.881535 
L 453.812452 208.712335 
L 446.966244 208.530865 
L 440.120037 208.336233 
L 433.273829 208.127486 
L 426.427622 207.9036 
L 419.581414 207.663476 
L 412.735207 207.405938 
L 405.888999 207.129722 
L 399.042792 206.833474 
L 392.196584 206.515741 
L 385.350376 206.174964 
L 378.504169 205.809473 
L 371.657961 205.417474 
L 364.811754 204.997047 
L 357.965546 204.546128 
L 351.119339 204.062507 
L 344.273131 203.543812 
L 337.426924 202.987499 
L 330.580716 202.390839 
L 323.734509 201.750908 
L 316.888301 201.064566 
L 310.042094 200.328447 
L 303.195886 199.538942 
L 296.349679 198.692179 
L 289.503471 197.784006 
L 282.657264 196.809968 
L 275.811056 195.765288 
L 268.964848 194.644844 
L 262.118641 193.443141 
L 255.272433 192.154286 
L 248.426226 190.771957 
L 241.580018 189.289376 
L 234.733811 187.699272 
L 227.887603 185.993848 
L 221.041396 184.164739 
L 214.195188 182.202975 
L 207.348981 180.098936 
L 200.502773 177.842304 
L 193.656566 175.422011 
L 186.810358 172.826189 
L 179.964151 170.042107 
L 173.117943 167.056112 
L 166.271736 163.85356 
L 159.425528 160.418746 
L 152.57932 156.734825 
L 145.733113 152.783731 
L 138.886905 148.546088 
L 132.040698 144.001112 
L 125.19449 139.126517 
L 118.348283 133.898396 
L 111.502075 128.291109 
L 104.655868 122.27716 
L 97.80966 115.827054 
L 90.963453 108.909159 
L 84.117245 101.48955 
L 77.271038 93.531841 
L 70.42483 84.997006 
L 63.578623 75.843189 
L 56.732415 66.0255 
L 49.886208 55.495791 
z
" clip-path="url(#pc70b0368a4)" style="fill: #d3d3d3; fill-opacity: 0.5; stroke: #d3d3d3; stroke-opacity: 0.5"/>
   </g>
   <g id="matplotlib.axis_1">
    <g id="text_1">
     <!-- $x=t^{cur}-t_b^i$ (time since accessed) -->
     <g transform="translate(87.008636 229.014545) scale(0.15 -0.15)">
      <defs>
       <path id="DejaVuSans-Oblique-78" d="M 3841 3500 
L 2234 1784 
L 3219 0 
L 2559 0 
L 1819 1388 
L 531 0 
L -166 0 
L 1556 1844 
L 641 3500 
L 1300 3500 
L 1972 2234 
L 3144 3500 
L 3841 3500 
z
" transform="scale(0.015625)"/>
       <path id="DejaVuSans-3d" d="M 678 2906 
L 4684 2906 
L 4684 2381 
L 678 2381 
L 678 2906 
z
M 678 1631 
L 4684 1631 
L 4684 1100 
L 678 1100 
L 678 1631 
z
" transform="scale(0.015625)"/>
       <path id="DejaVuSans-Oblique-74" d="M 2706 3500 
L 2619 3053 
L 1472 3053 
L 1100 1153 
Q 1081 1047 1072 975 
Q 1063 903 1063 863 
Q 1063 663 1183 572 
Q 1303 481 1569 481 
L 2150 481 
L 2053 0 
L 1503 0 
Q 991 0 739 200 
Q 488 400 488 806 
Q 488 878 497 964 
Q 506 1050 525 1153 
L 897 3053 
L 409 3053 
L 500 3500 
L 978 3500 
L 1172 4494 
L 1747 4494 
L 1556 3500 
L 2706 3500 
z
" transform="scale(0.015625)"/>
       <path id="DejaVuSans-Oblique-63" d="M 3431 3366 
L 3316 2797 
Q 3109 2947 2876 3022 
Q 2644 3097 2394 3097 
Q 2119 3097 1870 3000 
Q 1622 2903 1453 2725 
Q 1184 2453 1037 2087 
Q 891 1722 891 1331 
Q 891 859 1127 628 
Q 1363 397 1844 397 
Q 2081 397 2348 469 
Q 2616 541 2906 684 
L 2797 116 
Q 2547 13 2283 -39 
Q 2019 -91 1741 -91 
Q 1044 -91 669 257 
Q 294 606 294 1253 
Q 294 1797 489 2255 
Q 684 2713 1069 3078 
Q 1331 3328 1684 3456 
Q 2038 3584 2456 3584 
Q 2700 3584 2940 3529 
Q 3181 3475 3431 3366 
z
" transform="scale(0.015625)"/>
       <path id="DejaVuSans-Oblique-75" d="M 428 1388 
L 838 3500 
L 1416 3500 
L 1006 1409 
Q 975 1256 961 1147 
Q 947 1038 947 966 
Q 947 700 1109 554 
Q 1272 409 1569 409 
Q 2031 409 2368 721 
Q 2706 1034 2809 1563 
L 3194 3500 
L 3769 3500 
L 3091 0 
L 2516 0 
L 2631 550 
Q 2388 244 2052 76 
Q 1716 -91 1338 -91 
Q 878 -91 622 161 
Q 366 413 366 863 
Q 366 956 381 1097 
Q 397 1238 428 1388 
z
" transform="scale(0.015625)"/>
       <path id="DejaVuSans-Oblique-72" d="M 2853 2969 
Q 2766 3016 2653 3041 
Q 2541 3066 2413 3066 
Q 1953 3066 1609 2717 
Q 1266 2369 1153 1784 
L 800 0 
L 225 0 
L 909 3500 
L 1484 3500 
L 1375 2956 
Q 1603 3259 1920 3421 
Q 2238 3584 2597 3584 
Q 2691 3584 2781 3573 
Q 2872 3563 2963 3538 
L 2853 2969 
z
" transform="scale(0.015625)"/>
       <path id="DejaVuSans-2212" d="M 678 2272 
L 4684 2272 
L 4684 1741 
L 678 1741 
L 678 2272 
z
" transform="scale(0.015625)"/>
       <path id="DejaVuSans-Oblique-69" d="M 1172 4863 
L 1747 4863 
L 1606 4134 
L 1031 4134 
L 1172 4863 
z
M 909 3500 
L 1484 3500 
L 800 0 
L 225 0 
L 909 3500 
z
" transform="scale(0.015625)"/>
       <path id="DejaVuSans-Oblique-62" d="M 3169 2138 
Q 3169 2591 2961 2847 
Q 2753 3103 2388 3103 
Q 2122 3103 1889 2973 
Q 1656 2844 1484 2597 
Q 1303 2338 1198 1995 
Q 1094 1653 1094 1313 
Q 1094 881 1298 636 
Q 1503 391 1863 391 
Q 2134 391 2365 517 
Q 2597 644 2772 891 
Q 2950 1147 3059 1487 
Q 3169 1828 3169 2138 
z
M 1381 2969 
Q 1594 3256 1914 3420 
Q 2234 3584 2584 3584 
Q 3122 3584 3439 3221 
Q 3756 2859 3756 2241 
Q 3756 1734 3570 1259 
Q 3384 784 3041 416 
Q 2816 172 2522 40 
Q 2228 -91 1906 -91 
Q 1566 -91 1316 65 
Q 1066 222 909 531 
L 806 0 
L 231 0 
L 1178 4863 
L 1753 4863 
L 1381 2969 
z
" transform="scale(0.015625)"/>
       <path id="DejaVuSans-20" transform="scale(0.015625)"/>
       <path id="DejaVuSans-28" d="M 1984 4856 
Q 1566 4138 1362 3434 
Q 1159 2731 1159 2009 
Q 1159 1288 1364 580 
Q 1569 -128 1984 -844 
L 1484 -844 
Q 1016 -109 783 600 
Q 550 1309 550 2009 
Q 550 2706 781 3412 
Q 1013 4119 1484 4856 
L 1984 4856 
z
" transform="scale(0.015625)"/>
       <path id="DejaVuSans-74" d="M 1172 4494 
L 1172 3500 
L 2356 3500 
L 2356 3053 
L 1172 3053 
L 1172 1153 
Q 1172 725 1289 603 
Q 1406 481 1766 481 
L 2356 481 
L 2356 0 
L 1766 0 
Q 1100 0 847 248 
Q 594 497 594 1153 
L 594 3053 
L 172 3053 
L 172 3500 
L 594 3500 
L 594 4494 
L 1172 4494 
z
" transform="scale(0.015625)"/>
       <path id="DejaVuSans-69" d="M 603 3500 
L 1178 3500 
L 1178 0 
L 603 0 
L 603 3500 
z
M 603 4863 
L 1178 4863 
L 1178 4134 
L 603 4134 
L 603 4863 
z
" transform="scale(0.015625)"/>
       <path id="DejaVuSans-6d" d="M 3328 2828 
Q 3544 3216 3844 3400 
Q 4144 3584 4550 3584 
Q 5097 3584 5394 3201 
Q 5691 2819 5691 2113 
L 5691 0 
L 5113 0 
L 5113 2094 
Q 5113 2597 4934 2840 
Q 4756 3084 4391 3084 
Q 3944 3084 3684 2787 
Q 3425 2491 3425 1978 
L 3425 0 
L 2847 0 
L 2847 2094 
Q 2847 2600 2669 2842 
Q 2491 3084 2119 3084 
Q 1678 3084 1418 2786 
Q 1159 2488 1159 1978 
L 1159 0 
L 581 0 
L 581 3500 
L 1159 3500 
L 1159 2956 
Q 1356 3278 1631 3431 
Q 1906 3584 2284 3584 
Q 2666 3584 2933 3390 
Q 3200 3197 3328 2828 
z
" transform="scale(0.015625)"/>
       <path id="DejaVuSans-65" d="M 3597 1894 
L 3597 1613 
L 953 1613 
Q 991 1019 1311 708 
Q 1631 397 2203 397 
Q 2534 397 2845 478 
Q 3156 559 3463 722 
L 3463 178 
Q 3153 47 2828 -22 
Q 2503 -91 2169 -91 
Q 1331 -91 842 396 
Q 353 884 353 1716 
Q 353 2575 817 3079 
Q 1281 3584 2069 3584 
Q 2775 3584 3186 3129 
Q 3597 2675 3597 1894 
z
M 3022 2063 
Q 3016 2534 2758 2815 
Q 2500 3097 2075 3097 
Q 1594 3097 1305 2825 
Q 1016 2553 972 2059 
L 3022 2063 
z
" transform="scale(0.015625)"/>
       <path id="DejaVuSans-73" d="M 2834 3397 
L 2834 2853 
Q 2591 2978 2328 3040 
Q 2066 3103 1784 3103 
Q 1356 3103 1142 2972 
Q 928 2841 928 2578 
Q 928 2378 1081 2264 
Q 1234 2150 1697 2047 
L 1894 2003 
Q 2506 1872 2764 1633 
Q 3022 1394 3022 966 
Q 3022 478 2636 193 
Q 2250 -91 1575 -91 
Q 1294 -91 989 -36 
Q 684 19 347 128 
L 347 722 
Q 666 556 975 473 
Q 1284 391 1588 391 
Q 1994 391 2212 530 
Q 2431 669 2431 922 
Q 2431 1156 2273 1281 
Q 2116 1406 1581 1522 
L 1381 1569 
Q 847 1681 609 1914 
Q 372 2147 372 2553 
Q 372 3047 722 3315 
Q 1072 3584 1716 3584 
Q 2034 3584 2315 3537 
Q 2597 3491 2834 3397 
z
" transform="scale(0.015625)"/>
       <path id="DejaVuSans-6e" d="M 3513 2113 
L 3513 0 
L 2938 0 
L 2938 2094 
Q 2938 2591 2744 2837 
Q 2550 3084 2163 3084 
Q 1697 3084 1428 2787 
Q 1159 2491 1159 1978 
L 1159 0 
L 581 0 
L 581 3500 
L 1159 3500 
L 1159 2956 
Q 1366 3272 1645 3428 
Q 1925 3584 2291 3584 
Q 2894 3584 3203 3211 
Q 3513 2838 3513 2113 
z
" transform="scale(0.015625)"/>
       <path id="DejaVuSans-63" d="M 3122 3366 
L 3122 2828 
Q 2878 2963 2633 3030 
Q 2388 3097 2138 3097 
Q 1578 3097 1268 2742 
Q 959 2388 959 1747 
Q 959 1106 1268 751 
Q 1578 397 2138 397 
Q 2388 397 2633 464 
Q 2878 531 3122 666 
L 3122 134 
Q 2881 22 2623 -34 
Q 2366 -91 2075 -91 
Q 1284 -91 818 406 
Q 353 903 353 1747 
Q 353 2603 823 3093 
Q 1294 3584 2113 3584 
Q 2378 3584 2631 3529 
Q 2884 3475 3122 3366 
z
" transform="scale(0.015625)"/>
       <path id="DejaVuSans-61" d="M 2194 1759 
Q 1497 1759 1228 1600 
Q 959 1441 959 1056 
Q 959 750 1161 570 
Q 1363 391 1709 391 
Q 2188 391 2477 730 
Q 2766 1069 2766 1631 
L 2766 1759 
L 2194 1759 
z
M 3341 1997 
L 3341 0 
L 2766 0 
L 2766 531 
Q 2569 213 2275 61 
Q 1981 -91 1556 -91 
Q 1019 -91 701 211 
Q 384 513 384 1019 
Q 384 1609 779 1909 
Q 1175 2209 1959 2209 
L 2766 2209 
L 2766 2266 
Q 2766 2663 2505 2880 
Q 2244 3097 1772 3097 
Q 1472 3097 1187 3025 
Q 903 2953 641 2809 
L 641 3341 
Q 956 3463 1253 3523 
Q 1550 3584 1831 3584 
Q 2591 3584 2966 3190 
Q 3341 2797 3341 1997 
z
" transform="scale(0.015625)"/>
       <path id="DejaVuSans-64" d="M 2906 2969 
L 2906 4863 
L 3481 4863 
L 3481 0 
L 2906 0 
L 2906 525 
Q 2725 213 2448 61 
Q 2172 -91 1784 -91 
Q 1150 -91 751 415 
Q 353 922 353 1747 
Q 353 2572 751 3078 
Q 1150 3584 1784 3584 
Q 2172 3584 2448 3432 
Q 2725 3281 2906 2969 
z
M 947 1747 
Q 947 1113 1208 752 
Q 1469 391 1925 391 
Q 2381 391 2643 752 
Q 2906 1113 2906 1747 
Q 2906 2381 2643 2742 
Q 2381 3103 1925 3103 
Q 1469 3103 1208 2742 
Q 947 2381 947 1747 
z
" transform="scale(0.015625)"/>
       <path id="DejaVuSans-29" d="M 513 4856 
L 1013 4856 
Q 1481 4119 1714 3412 
Q 1947 2706 1947 2009 
Q 1947 1309 1714 600 
Q 1481 -109 1013 -844 
L 513 -844 
Q 928 -128 1133 580 
Q 1338 1288 1338 2009 
Q 1338 2731 1133 3434 
Q 928 4138 513 4856 
z
" transform="scale(0.015625)"/>
      </defs>
      <use xlink:href="#DejaVuSans-Oblique-78" transform="translate(0 0.465625)"/>
      <use xlink:href="#DejaVuSans-3d" transform="translate(78.662109 0.465625)"/>
      <use xlink:href="#DejaVuSans-Oblique-74" transform="translate(181.933594 0.465625)"/>
      <use xlink:href="#DejaVuSans-Oblique-63" transform="translate(227.783099 38.746875) scale(0.7)"/>
      <use xlink:href="#DejaVuSans-Oblique-75" transform="translate(266.269427 38.746875) scale(0.7)"/>
      <use xlink:href="#DejaVuSans-Oblique-72" transform="translate(310.634661 38.746875) scale(0.7)"/>
      <use xlink:href="#DejaVuSans-2212" transform="translate(361.630755 0.465625)"/>
      <use xlink:href="#DejaVuSans-Oblique-74" transform="translate(464.90224 0.465625)"/>
      <use xlink:href="#DejaVuSans-Oblique-69" transform="translate(510.751745 38.810938) scale(0.7)"/>
      <use xlink:href="#DejaVuSans-Oblique-62" transform="translate(504.111224 -26.878125) scale(0.7)"/>
      <use xlink:href="#DejaVuSans-20" transform="translate(551.279193 0.465625)"/>
      <use xlink:href="#DejaVuSans-28" transform="translate(583.066302 0.465625)"/>
      <use xlink:href="#DejaVuSans-74" transform="translate(622.079974 0.465625)"/>
      <use xlink:href="#DejaVuSans-69" transform="translate(661.288958 0.465625)"/>
      <use xlink:href="#DejaVuSans-6d" transform="translate(689.072161 0.465625)"/>
      <use xlink:href="#DejaVuSans-65" transform="translate(786.484271 0.465625)"/>
      <use xlink:href="#DejaVuSans-20" transform="translate(848.007708 0.465625)"/>
      <use xlink:href="#DejaVuSans-73" transform="translate(879.794818 0.465625)"/>
      <use xlink:href="#DejaVuSans-69" transform="translate(931.894427 0.465625)"/>
      <use xlink:href="#DejaVuSans-6e" transform="translate(959.67763 0.465625)"/>
      <use xlink:href="#DejaVuSans-63" transform="translate(1023.056536 0.465625)"/>
      <use xlink:href="#DejaVuSans-65" transform="translate(1078.037005 0.465625)"/>
      <use xlink:href="#DejaVuSans-20" transform="translate(1139.560443 0.465625)"/>
      <use xlink:href="#DejaVuSans-61" transform="translate(1171.347552 0.465625)"/>
      <use xlink:href="#DejaVuSans-63" transform="translate(1232.626849 0.465625)"/>
      <use xlink:href="#DejaVuSans-63" transform="translate(1287.607318 0.465625)"/>
      <use xlink:href="#DejaVuSans-65" transform="translate(1342.587786 0.465625)"/>
      <use xlink:href="#DejaVuSans-73" transform="translate(1404.111224 0.465625)"/>
      <use xlink:href="#DejaVuSans-73" transform="translate(1456.210833 0.465625)"/>
      <use xlink:href="#DejaVuSans-65" transform="translate(1508.310443 0.465625)"/>
      <use xlink:href="#DejaVuSans-64" transform="translate(1569.83388 0.465625)"/>
      <use xlink:href="#DejaVuSans-29" transform="translate(1633.310443 0.465625)"/>
     </g>
    </g>
   </g>
   <g id="matplotlib.axis_2">
    <g id="ytick_1">
     <g id="line2d_1">
      <defs>
       <path id="m0112dcc7a1" d="M 0 0 
L -3.5 0 
" style="stroke: #000000; stroke-width: 0.8"/>
      </defs>
      <g>
       <use xlink:href="#m0112dcc7a1" x="43.04" y="211.214545" style="stroke: #000000; stroke-width: 0.8"/>
      </g>
     </g>
     <g id="text_2">
      <!-- 0 -->
      <g transform="translate(29.6775 215.013764) scale(0.1 -0.1)">
       <defs>
        <path id="DejaVuSans-30" d="M 2034 4250 
Q 1547 4250 1301 3770 
Q 1056 3291 1056 2328 
Q 1056 1369 1301 889 
Q 1547 409 2034 409 
Q 2525 409 2770 889 
Q 3016 1369 3016 2328 
Q 3016 3291 2770 3770 
Q 2525 4250 2034 4250 
z
M 2034 4750 
Q 2819 4750 3233 4129 
Q 3647 3509 3647 2328 
Q 3647 1150 3233 529 
Q 2819 -91 2034 -91 
Q 1250 -91 836 529 
Q 422 1150 422 2328 
Q 422 3509 836 4129 
Q 1250 4750 2034 4750 
z
" transform="scale(0.015625)"/>
       </defs>
       <use xlink:href="#DejaVuSans-30"/>
      </g>
     </g>
    </g>
    <g id="ytick_2">
     <g id="line2d_2">
      <g>
       <use xlink:href="#m0112dcc7a1" x="43.04" y="44.202424" style="stroke: #000000; stroke-width: 0.8"/>
      </g>
     </g>
     <g id="text_3">
      <!-- 1 -->
      <g transform="translate(29.6775 48.001643) scale(0.1 -0.1)">
       <defs>
        <path id="DejaVuSans-31" d="M 794 531 
L 1825 531 
L 1825 4091 
L 703 3866 
L 703 4441 
L 1819 4666 
L 2450 4666 
L 2450 531 
L 3481 531 
L 3481 0 
L 794 0 
L 794 531 
z
" transform="scale(0.015625)"/>
       </defs>
       <use xlink:href="#DejaVuSans-31"/>
      </g>
     </g>
    </g>
    <g id="text_4">
     <!-- $F(x)$ -->
     <g transform="translate(22.557969 125.632273) rotate(-90) scale(0.15 -0.15)">
      <defs>
       <path id="DejaVuSans-Oblique-46" d="M 1081 4666 
L 3756 4666 
L 3653 4134 
L 1606 4134 
L 1338 2759 
L 3188 2759 
L 3084 2228 
L 1234 2228 
L 800 0 
L 172 0 
L 1081 4666 
z
" transform="scale(0.015625)"/>
      </defs>
      <use xlink:href="#DejaVuSans-Oblique-46" transform="translate(0 0.125)"/>
      <use xlink:href="#DejaVuSans-28" transform="translate(57.519531 0.125)"/>
      <use xlink:href="#DejaVuSans-Oblique-78" transform="translate(96.533203 0.125)"/>
      <use xlink:href="#DejaVuSans-29" transform="translate(155.712891 0.125)"/>
     </g>
    </g>
   </g>
   <g id="line2d_3">
    <path d="M 43.04 44.202424 
L 49.886208 44.202424 
L 56.732415 44.202424 
L 63.578623 44.202424 
L 70.42483 44.202424 
L 77.271038 44.202424 
L 84.117245 44.202424 
L 90.963453 44.202424 
L 97.80966 44.202424 
L 104.655868 44.202424 
L 111.502075 44.202424 
L 118.348283 44.202424 
L 125.19449 44.202424 
L 132.040698 44.202424 
L 138.886905 44.202424 
L 145.733113 44.202424 
L 152.57932 44.202424 
L 159.425528 44.202424 
L 166.271736 44.202424 
L 173.117943 44.202424 
L 179.964151 44.202424 
L 186.810358 44.202424 
L 193.656566 44.202424 
L 200.502773 44.202424 
L 207.348981 44.202424 
L 214.195188 44.202424 
L 221.041396 44.202424 
L 227.887603 44.202424 
L 234.733811 44.202424 
L 241.580018 44.202424 
L 248.426226 44.202424 
L 255.272433 44.202424 
L 262.118641 44.202424 
L 268.964848 44.202424 
L 275.811056 44.202424 
L 282.657264 44.202424 
L 289.503471 44.202424 
L 296.349679 44.202424 
L 303.195886 44.202424 
L 310.042094 44.202424 
L 316.888301 44.202424 
L 323.734509 44.202424 
L 330.580716 44.202424 
L 337.426924 44.202424 
L 344.273131 44.202424 
L 351.119339 44.202424 
L 357.965546 44.202424 
L 364.811754 44.202424 
L 371.657961 44.202424 
L 378.504169 44.202424 
L 385.350376 44.202424 
L 392.196584 44.202424 
L 393.727273 44.202424 
" clip-path="url(#pc70b0368a4)" style="fill: none; stroke: #000000; stroke-width: 1.5; stroke-linecap: square"/>
   </g>
   <g id="line2d_4">
    <path d="M 43.04 44.202424 
L 49.886208 55.495791 
L 56.732415 66.0255 
L 63.578623 75.843189 
L 70.42483 84.997006 
L 77.271038 93.531841 
L 84.117245 101.48955 
L 90.963453 108.909159 
L 97.80966 115.827054 
L 104.655868 122.27716 
L 111.502075 128.291109 
L 118.348283 133.898396 
L 125.19449 139.126517 
L 132.040698 144.001112 
L 138.886905 148.546088 
L 145.733113 152.783731 
L 152.57932 156.734825 
L 159.425528 160.418746 
L 166.271736 163.85356 
L 173.117943 167.056112 
L 179.964151 170.042107 
L 186.810358 172.826189 
L 193.656566 175.422011 
L 200.502773 177.842304 
L 207.348981 180.098936 
L 214.195188 182.202975 
L 221.041396 184.164739 
L 227.887603 185.993848 
L 234.733811 187.699272 
L 241.580018 189.289376 
L 248.426226 190.771957 
L 255.272433 192.154286 
L 262.118641 193.443141 
L 268.964848 194.644844 
L 275.811056 195.765288 
L 282.657264 196.809968 
L 289.503471 197.784006 
L 296.349679 198.692179 
L 303.195886 199.538942 
L 310.042094 200.328447 
L 316.888301 201.064566 
L 323.734509 201.750908 
L 330.580716 202.390839 
L 337.426924 202.987499 
L 344.273131 203.543812 
L 351.119339 204.062507 
L 357.965546 204.546128 
L 364.811754 204.997047 
L 371.657961 205.417474 
L 378.504169 205.809473 
L 385.350376 206.174964 
L 392.196584 206.515741 
L 393.727273 206.58678 
" clip-path="url(#pc70b0368a4)" style="fill: none; stroke: #000000; stroke-width: 1.5; stroke-linecap: square"/>
   </g>
   <g id="line2d_5">
    <path d="M 43.04 44.202424 
L 49.886208 49.382393 
L 56.732415 54.401702 
L 63.578623 59.265335 
L 70.42483 63.97812 
L 77.271038 68.544735 
L 84.117245 72.969714 
L 90.963453 77.257451 
L 97.80966 81.4122 
L 104.655868 85.438088 
L 111.502075 89.339111 
L 118.348283 93.119142 
L 125.19449 96.781933 
L 132.040698 100.331121 
L 138.886905 103.770229 
L 145.733113 107.102671 
L 152.57932 110.331755 
L 159.425528 113.460688 
L 166.271736 116.492575 
L 173.117943 119.430427 
L 179.964151 122.27716 
L 186.810358 125.0356 
L 193.656566 127.708485 
L 200.502773 130.298469 
L 207.348981 132.808124 
L 214.195188 135.23994 
L 221.041396 137.596333 
L 227.887603 139.87964 
L 234.733811 142.09213 
L 241.580018 144.235998 
L 248.426226 146.313373 
L 255.272433 148.326317 
L 262.118641 150.276828 
L 268.964848 152.166844 
L 275.811056 153.998239 
L 282.657264 155.772833 
L 289.503471 157.492387 
L 296.349679 159.158608 
L 303.195886 160.77315 
L 310.042094 162.337617 
L 316.888301 163.85356 
L 323.734509 165.322486 
L 330.580716 166.745853 
L 337.426924 168.125072 
L 344.273131 169.461515 
L 351.119339 170.756507 
L 357.965546 172.011335 
L 364.811754 173.227243 
L 371.657961 174.405439 
L 378.504169 175.547093 
L 385.350376 176.653338 
L 392.196584 177.725272 
L 393.727273 177.957504 
" clip-path="url(#pc70b0368a4)" style="fill: none; stroke-dasharray: 5.55,2.4; stroke-dashoffset: 0; stroke: #808080; stroke-width: 1.5"/>
   </g>
   <g id="line2d_6">
    <path d="M 43.04 44.202424 
L 49.886208 46.755246 
L 56.732415 49.269047 
L 63.578623 51.744424 
L 70.42483 54.181964 
L 77.271038 56.582246 
L 84.117245 58.945839 
L 90.963453 61.273303 
L 97.80966 63.565192 
L 104.655868 65.822049 
L 111.502075 68.044409 
L 118.348283 70.2328 
L 125.19449 72.387741 
L 132.040698 74.509743 
L 138.886905 76.59931 
L 145.733113 78.656937 
L 152.57932 80.683113 
L 159.425528 82.678318 
L 166.271736 84.643026 
L 173.117943 86.577703 
L 179.964151 88.482808 
L 186.810358 90.358793 
L 193.656566 92.206103 
L 200.502773 94.025176 
L 207.348981 95.816445 
L 214.195188 97.580333 
L 221.041396 99.31726 
L 227.887603 101.027638 
L 234.733811 102.711872 
L 241.580018 104.370362 
L 248.426226 106.003502 
L 255.272433 107.611679 
L 262.118641 109.195274 
L 268.964848 110.754664 
L 275.811056 112.290218 
L 282.657264 113.802301 
L 289.503471 115.291271 
L 296.349679 116.757482 
L 303.195886 118.201282 
L 310.042094 119.623012 
L 316.888301 121.023011 
L 323.734509 122.401611 
L 330.580716 123.759139 
L 337.426924 125.095916 
L 344.273131 126.412261 
L 351.119339 127.708485 
L 357.965546 128.984896 
L 364.811754 130.241796 
L 371.657961 131.479485 
L 378.504169 132.698255 
L 385.350376 133.898396 
L 392.196584 135.080192 
L 393.727273 135.340382 
" clip-path="url(#pc70b0368a4)" style="fill: none; stroke-dasharray: 5.55,2.4; stroke-dashoffset: 0; stroke: #808080; stroke-width: 1.5"/>
   </g>
   <g id="line2d_7">
    <path d="M 43.04 44.202424 
L 49.886208 45.135276 
L 56.732415 46.062917 
L 63.578623 46.985377 
L 70.42483 47.902684 
L 77.271038 48.814867 
L 84.117245 49.721956 
L 90.963453 50.623978 
L 97.80966 51.520962 
L 104.655868 52.412935 
L 111.502075 53.299927 
L 118.348283 54.181964 
L 125.19449 55.059074 
L 132.040698 55.931286 
L 138.886905 56.798625 
L 145.733113 57.66112 
L 152.57932 58.518798 
L 159.425528 59.371685 
L 166.271736 60.219808 
L 173.117943 61.063194 
L 179.964151 61.901869 
L 186.810358 62.73586 
L 193.656566 63.565192 
L 200.502773 64.389893 
L 207.348981 65.209986 
L 214.195188 66.0255 
L 221.041396 66.836458 
L 227.887603 67.642886 
L 234.733811 68.44481 
L 241.580018 69.242255 
L 248.426226 70.035246 
L 255.272433 70.823807 
L 262.118641 71.607964 
L 268.964848 72.387741 
L 275.811056 73.163163 
L 282.657264 73.934253 
L 289.503471 74.701037 
L 296.349679 75.463537 
L 303.195886 76.221779 
L 310.042094 76.975785 
L 316.888301 77.72558 
L 323.734509 78.471187 
L 330.580716 79.212629 
L 337.426924 79.94993 
L 344.273131 80.683113 
L 351.119339 81.4122 
L 357.965546 82.137215 
L 364.811754 82.858181 
L 371.657961 83.57512 
L 378.504169 84.288054 
L 385.350376 84.997006 
L 392.196584 85.701998 
L 393.727273 85.858741 
" clip-path="url(#pc70b0368a4)" style="fill: none; stroke-dasharray: 5.55,2.4; stroke-dashoffset: 0; stroke: #808080; stroke-width: 1.5"/>
   </g>
   <g id="patch_3">
    <path d="M 43.04 211.214545 
L 43.04 10.8 
" style="fill: none; stroke: #000000; stroke-width: 0.8; stroke-linejoin: miter; stroke-linecap: square"/>
   </g>
   <g id="patch_4">
    <path d="M 381.927273 211.214545 
L 381.927273 10.8 
" style="fill: none; stroke: #000000; stroke-width: 0.8; stroke-linejoin: miter; stroke-linecap: square"/>
   </g>
   <g id="patch_5">
    <path d="M 43.04 211.214545 
L 381.927273 211.214545 
" style="fill: none; stroke: #000000; stroke-width: 0.8; stroke-linejoin: miter; stroke-linecap: square"/>
   </g>
   <g id="patch_6">
    <path d="M 43.04 10.8 
L 381.927273 10.8 
" style="fill: none; stroke: #000000; stroke-width: 0.8; stroke-linejoin: miter; stroke-linecap: square"/>
   </g>
   <g id="text_5">
    <!-- $F(x)=1$ ($\lambda=0$) -->
    <g transform="translate(123.319909 39.990881) scale(0.15 -0.15)">
     <defs>
      <path id="DejaVuSans-Oblique-3bb" d="M 2350 4316 
L 3125 0 
L 2516 0 
L 2038 2588 
L 328 0 
L -281 0 
L 1903 3356 
L 1794 3975 
Q 1725 4369 1391 4369 
L 1091 4369 
L 1184 4863 
L 1550 4856 
Q 2253 4847 2350 4316 
z
" transform="scale(0.015625)"/>
     </defs>
     <use xlink:href="#DejaVuSans-Oblique-46" transform="translate(0 0.015625)"/>
     <use xlink:href="#DejaVuSans-28" transform="translate(57.519531 0.015625)"/>
     <use xlink:href="#DejaVuSans-Oblique-78" transform="translate(96.533203 0.015625)"/>
     <use xlink:href="#DejaVuSans-29" transform="translate(155.712891 0.015625)"/>
     <use xlink:href="#DejaVuSans-3d" transform="translate(214.208984 0.015625)"/>
     <use xlink:href="#DejaVuSans-31" transform="translate(317.480469 0.015625)"/>
     <use xlink:href="#DejaVuSans-20" transform="translate(381.103516 0.015625)"/>
     <use xlink:href="#DejaVuSans-28" transform="translate(412.890625 0.015625)"/>
     <use xlink:href="#DejaVuSans-Oblique-3bb" transform="translate(451.904297 0.015625)"/>
     <use xlink:href="#DejaVuSans-3d" transform="translate(530.566406 0.015625)"/>
     <use xlink:href="#DejaVuSans-30" transform="translate(633.837891 0.015625)"/>
     <use xlink:href="#DejaVuSans-29" transform="translate(697.460938 0.015625)"/>
    </g>
   </g>
   <g id="text_6">
    <!-- $F(x)=(\frac{1}{2})^x$ ($\lambda=1$) -->
    <g transform="translate(80.656182 190.287727) scale(0.15 -0.15)">
     <defs>
      <path id="DejaVuSans-32" d="M 1228 531 
L 3431 531 
L 3431 0 
L 469 0 
L 469 531 
Q 828 903 1448 1529 
Q 2069 2156 2228 2338 
Q 2531 2678 2651 2914 
Q 2772 3150 2772 3378 
Q 2772 3750 2511 3984 
Q 2250 4219 1831 4219 
Q 1534 4219 1204 4116 
Q 875 4013 500 3803 
L 500 4441 
Q 881 4594 1212 4672 
Q 1544 4750 1819 4750 
Q 2544 4750 2975 4387 
Q 3406 4025 3406 3419 
Q 3406 3131 3298 2873 
Q 3191 2616 2906 2266 
Q 2828 2175 2409 1742 
Q 1991 1309 1228 531 
z
" transform="scale(0.015625)"/>
     </defs>
     <use xlink:href="#DejaVuSans-Oblique-46" transform="translate(0 0.16875)"/>
     <use xlink:href="#DejaVuSans-28" transform="translate(57.519531 0.16875)"/>
     <use xlink:href="#DejaVuSans-Oblique-78" transform="translate(96.533203 0.16875)"/>
     <use xlink:href="#DejaVuSans-29" transform="translate(155.712891 0.16875)"/>
     <use xlink:href="#DejaVuSans-3d" transform="translate(214.208984 0.16875)"/>
     <use xlink:href="#DejaVuSans-28" transform="translate(317.480469 0.16875)"/>
     <use xlink:href="#DejaVuSans-31" transform="translate(356.494141 43.965625) scale(0.7)"/>
     <use xlink:href="#DejaVuSans-32" transform="translate(356.494141 -39.2375) scale(0.7)"/>
     <use xlink:href="#DejaVuSans-29" transform="translate(413.530273 0.16875)"/>
     <use xlink:href="#DejaVuSans-Oblique-78" transform="translate(453.500977 38.45) scale(0.7)"/>
     <use xlink:href="#DejaVuSans-20" transform="translate(497.661133 0.16875)"/>
     <use xlink:href="#DejaVuSans-28" transform="translate(529.448242 0.16875)"/>
     <use xlink:href="#DejaVuSans-Oblique-3bb" transform="translate(568.461914 0.16875)"/>
     <use xlink:href="#DejaVuSans-3d" transform="translate(647.124023 0.16875)"/>
     <use xlink:href="#DejaVuSans-31" transform="translate(750.395508 0.16875)"/>
     <use xlink:href="#DejaVuSans-29" transform="translate(814.018555 0.16875)"/>
     <path d="M 356.494141 18.965625 
L 356.494141 25.215625 
L 401.030273 25.215625 
L 401.030273 18.965625 
L 356.494141 18.965625 
z
"/>
    </g>
   </g>
   <g id="text_7">
    <!-- $\lambda=0.5$ -->
    <g transform="translate(247.908345 145.208517) scale(0.15 -0.15)">
     <defs>
      <path id="DejaVuSans-2e" d="M 684 794 
L 1344 794 
L 1344 0 
L 684 0 
L 684 794 
z
" transform="scale(0.015625)"/>
      <path id="DejaVuSans-35" d="M 691 4666 
L 3169 4666 
L 3169 4134 
L 1269 4134 
L 1269 2991 
Q 1406 3038 1543 3061 
Q 1681 3084 1819 3084 
Q 2600 3084 3056 2656 
Q 3513 2228 3513 1497 
Q 3513 744 3044 326 
Q 2575 -91 1722 -91 
Q 1428 -91 1123 -41 
Q 819 9 494 109 
L 494 744 
Q 775 591 1075 516 
Q 1375 441 1709 441 
Q 2250 441 2565 725 
Q 2881 1009 2881 1497 
Q 2881 1984 2565 2268 
Q 2250 2553 1709 2553 
Q 1456 2553 1204 2497 
Q 953 2441 691 2322 
L 691 4666 
z
" transform="scale(0.015625)"/>
     </defs>
     <use xlink:href="#DejaVuSans-Oblique-3bb" transform="translate(0 0.015625)"/>
     <use xlink:href="#DejaVuSans-3d" transform="translate(78.662109 0.015625)"/>
     <use xlink:href="#DejaVuSans-30" transform="translate(181.933594 0.015625)"/>
     <use xlink:href="#DejaVuSans-2e" transform="translate(245.556641 0.015625)"/>
     <use xlink:href="#DejaVuSans-35" transform="translate(277.34375 0.015625)"/>
    </g>
   </g>
   <g id="text_8">
    <!-- $\lambda=0.2$ -->
    <g transform="translate(268.616582 110.135972) scale(0.15 -0.15)">
     <use xlink:href="#DejaVuSans-Oblique-3bb" transform="translate(0 0.015625)"/>
     <use xlink:href="#DejaVuSans-3d" transform="translate(78.662109 0.015625)"/>
     <use xlink:href="#DejaVuSans-30" transform="translate(181.933594 0.015625)"/>
     <use xlink:href="#DejaVuSans-2e" transform="translate(245.556641 0.015625)"/>
     <use xlink:href="#DejaVuSans-32" transform="translate(271.84375 0.015625)"/>
    </g>
   </g>
   <g id="text_9">
    <!-- $\lambda=0.08$ -->
    <g transform="translate(290.552564 73.393305) scale(0.15 -0.15)">
     <defs>
      <path id="DejaVuSans-38" d="M 2034 2216 
Q 1584 2216 1326 1975 
Q 1069 1734 1069 1313 
Q 1069 891 1326 650 
Q 1584 409 2034 409 
Q 2484 409 2743 651 
Q 3003 894 3003 1313 
Q 3003 1734 2745 1975 
Q 2488 2216 2034 2216 
z
M 1403 2484 
Q 997 2584 770 2862 
Q 544 3141 544 3541 
Q 544 4100 942 4425 
Q 1341 4750 2034 4750 
Q 2731 4750 3128 4425 
Q 3525 4100 3525 3541 
Q 3525 3141 3298 2862 
Q 3072 2584 2669 2484 
Q 3125 2378 3379 2068 
Q 3634 1759 3634 1313 
Q 3634 634 3220 271 
Q 2806 -91 2034 -91 
Q 1263 -91 848 271 
Q 434 634 434 1313 
Q 434 1759 690 2068 
Q 947 2378 1403 2484 
z
M 1172 3481 
Q 1172 3119 1398 2916 
Q 1625 2713 2034 2713 
Q 2441 2713 2670 2916 
Q 2900 3119 2900 3481 
Q 2900 3844 2670 4047 
Q 2441 4250 2034 4250 
Q 1625 4250 1398 4047 
Q 1172 3844 1172 3481 
z
" transform="scale(0.015625)"/>
     </defs>
     <use xlink:href="#DejaVuSans-Oblique-3bb" transform="translate(0 0.015625)"/>
     <use xlink:href="#DejaVuSans-3d" transform="translate(78.662109 0.015625)"/>
     <use xlink:href="#DejaVuSans-30" transform="translate(181.933594 0.015625)"/>
     <use xlink:href="#DejaVuSans-2e" transform="translate(245.556641 0.015625)"/>
     <use xlink:href="#DejaVuSans-30" transform="translate(277.34375 0.015625)"/>
     <use xlink:href="#DejaVuSans-38" transform="translate(340.966797 0.015625)"/>
    </g>
   </g>
  </g>
 </g>
 <defs>
  <clipPath id="pc70b0368a4">
   <rect x="43.04" y="10.8" width="338.887273" height="200.414545"/>
  </clipPath>
 </defs>
</svg>
