<?xml version="1.0" encoding="utf-8" standalone="no"?>
<!DOCTYPE svg PUBLIC "-//W3C//DTD SVG 1.1//EN"
  "http://www.w3.org/Graphics/SVG/1.1/DTD/svg11.dtd">
<svg xmlns:xlink="http://www.w3.org/1999/xlink" width="504pt" height="216pt" viewBox="0 0 504 216" xmlns="http://www.w3.org/2000/svg" version="1.1">
 <metadata>
  <rdf:RDF xmlns:dc="http://purl.org/dc/elements/1.1/" xmlns:cc="http://creativecommons.org/ns#" xmlns:rdf="http://www.w3.org/1999/02/22-rdf-syntax-ns#">
   <cc:Work>
    <dc:type rdf:resource="http://purl.org/dc/dcmitype/StillImage"/>
    <dc:date>2023-12-04T13:37:40.347163</dc:date>
    <dc:format>image/svg+xml</dc:format>
    <dc:creator>
     <cc:Agent>
      <dc:title>Matplotlib v3.8.0, https://matplotlib.org/</dc:title>
     </cc:Agent>
    </dc:creator>
   </cc:Work>
  </rdf:RDF>
 </metadata>
 <defs>
  <style type="text/css">*{stroke-linejoin: round; stroke-linecap: butt}</style>
 </defs>
 <g id="figure_1">
  <g id="patch_1">
   <path d="M 0 216 
L 504 216 
L 504 0 
L 0 0 
z
" style="fill: #ffffff"/>
  </g>
  <g id="axes_1">
   <g id="patch_2">
    <path d="M 47.12 168.48 
L 244.629388 168.48 
L 244.629388 10.8 
L 47.12 10.8 
z
" style="fill: #ffffff"/>
   </g>
   <g id="PathCollection_1">
    <defs>
     <path id="mc5ac6cacdc" d="M 0 -2.8 
L -2.8 2.8 
L 2.8 2.8 
z
" style="stroke: #4c90b0; stroke-width: 0.24"/>
    </defs>
    <g clip-path="url(#p018bb20e51)">
     <use xlink:href="#mc5ac6cacdc" x="132.205299" y="95.757938" style="fill: #4c90b0; stroke: #4c90b0; stroke-width: 0.24"/>
    </g>
   </g>
   <g id="PathCollection_2">
    <defs>
     <path id="mc78bae72a9" d="M 0 -2.8 
L -2.8 2.8 
L 2.8 2.8 
z
" style="stroke: #55a868; stroke-width: 0.24"/>
    </defs>
    <g clip-path="url(#p018bb20e51)">
     <use xlink:href="#mc78bae72a9" x="101.828866" y="66.675473" style="fill: #55a868; stroke: #55a868; stroke-width: 0.24"/>
    </g>
   </g>
   <g id="PathCollection_3">
    <defs>
     <path id="m9ccbcddc15" d="M 0 -2.8 
L -2.8 2.8 
L 2.8 2.8 
z
" style="stroke: #c44e52; stroke-width: 0.24"/>
    </defs>
    <g clip-path="url(#p018bb20e51)">
     <use xlink:href="#m9ccbcddc15" x="95.75358" y="44.885088" style="fill: #c44e52; stroke: #c44e52; stroke-width: 0.24"/>
    </g>
   </g>
   <g id="PathCollection_4">
    <defs>
     <path id="mafee4fb588" d="M 0 -2.8 
L -2.8 2.8 
L 2.8 2.8 
z
" style="stroke: #8172b2; stroke-width: 0.24"/>
    </defs>
    <g clip-path="url(#p018bb20e51)">
     <use xlink:href="#mafee4fb588" x="89.678293" y="17.967273" style="fill: #8172b2; stroke: #8172b2; stroke-width: 0.24"/>
    </g>
   </g>
   <g id="matplotlib.axis_1">
    <g id="xtick_1">
     <g id="line2d_1">
      <defs>
       <path id="m9e52264284" d="M 0 0 
L 0 3.5 
" style="stroke: #000000; stroke-width: 0.8"/>
      </defs>
      <g>
       <use xlink:href="#m9e52264284" x="56.264217" y="168.48" style="stroke: #000000; stroke-width: 0.8"/>
      </g>
     </g>
     <g id="text_1">
      <!-- $\mathdefault{10^{-6}}$ -->
      <g transform="translate(46.864217 183.65875) scale(0.08 -0.08)">
       <defs>
        <path id="DejaVuSans-31" d="M 794 531 
L 1825 531 
L 1825 4091 
L 703 3866 
L 703 4441 
L 1819 4666 
L 2450 4666 
L 2450 531 
L 3481 531 
L 3481 0 
L 794 0 
L 794 531 
z
" transform="scale(0.015625)"/>
        <path id="DejaVuSans-30" d="M 2034 4250 
Q 1547 4250 1301 3770 
Q 1056 3291 1056 2328 
Q 1056 1369 1301 889 
Q 1547 409 2034 409 
Q 2525 409 2770 889 
Q 3016 1369 3016 2328 
Q 3016 3291 2770 3770 
Q 2525 4250 2034 4250 
z
M 2034 4750 
Q 2819 4750 3233 4129 
Q 3647 3509 3647 2328 
Q 3647 1150 3233 529 
Q 2819 -91 2034 -91 
Q 1250 -91 836 529 
Q 422 1150 422 2328 
Q 422 3509 836 4129 
Q 1250 4750 2034 4750 
z
" transform="scale(0.015625)"/>
        <path id="DejaVuSans-2212" d="M 678 2272 
L 4684 2272 
L 4684 1741 
L 678 1741 
L 678 2272 
z
" transform="scale(0.015625)"/>
        <path id="DejaVuSans-36" d="M 2113 2584 
Q 1688 2584 1439 2293 
Q 1191 2003 1191 1497 
Q 1191 994 1439 701 
Q 1688 409 2113 409 
Q 2538 409 2786 701 
Q 3034 994 3034 1497 
Q 3034 2003 2786 2293 
Q 2538 2584 2113 2584 
z
M 3366 4563 
L 3366 3988 
Q 3128 4100 2886 4159 
Q 2644 4219 2406 4219 
Q 1781 4219 1451 3797 
Q 1122 3375 1075 2522 
Q 1259 2794 1537 2939 
Q 1816 3084 2150 3084 
Q 2853 3084 3261 2657 
Q 3669 2231 3669 1497 
Q 3669 778 3244 343 
Q 2819 -91 2113 -91 
Q 1303 -91 875 529 
Q 447 1150 447 2328 
Q 447 3434 972 4092 
Q 1497 4750 2381 4750 
Q 2619 4750 2861 4703 
Q 3103 4656 3366 4563 
z
" transform="scale(0.015625)"/>
       </defs>
       <use xlink:href="#DejaVuSans-31" transform="translate(0 0.765625)"/>
       <use xlink:href="#DejaVuSans-30" transform="translate(63.623047 0.765625)"/>
       <use xlink:href="#DejaVuSans-2212" transform="translate(128.203125 39.046875) scale(0.7)"/>
       <use xlink:href="#DejaVuSans-36" transform="translate(186.855469 39.046875) scale(0.7)"/>
      </g>
     </g>
    </g>
    <g id="xtick_2">
     <g id="line2d_2">
      <g>
       <use xlink:href="#m9e52264284" x="86.64065" y="168.48" style="stroke: #000000; stroke-width: 0.8"/>
      </g>
     </g>
     <g id="text_2">
      <!-- $\mathdefault{10^{-5}}$ -->
      <g transform="translate(77.24065 183.65875) scale(0.08 -0.08)">
       <defs>
        <path id="DejaVuSans-35" d="M 691 4666 
L 3169 4666 
L 3169 4134 
L 1269 4134 
L 1269 2991 
Q 1406 3038 1543 3061 
Q 1681 3084 1819 3084 
Q 2600 3084 3056 2656 
Q 3513 2228 3513 1497 
Q 3513 744 3044 326 
Q 2575 -91 1722 -91 
Q 1428 -91 1123 -41 
Q 819 9 494 109 
L 494 744 
Q 775 591 1075 516 
Q 1375 441 1709 441 
Q 2250 441 2565 725 
Q 2881 1009 2881 1497 
Q 2881 1984 2565 2268 
Q 2250 2553 1709 2553 
Q 1456 2553 1204 2497 
Q 953 2441 691 2322 
L 691 4666 
z
" transform="scale(0.015625)"/>
       </defs>
       <use xlink:href="#DejaVuSans-31" transform="translate(0 0.684375)"/>
       <use xlink:href="#DejaVuSans-30" transform="translate(63.623047 0.684375)"/>
       <use xlink:href="#DejaVuSans-2212" transform="translate(128.203125 38.965625) scale(0.7)"/>
       <use xlink:href="#DejaVuSans-35" transform="translate(186.855469 38.965625) scale(0.7)"/>
      </g>
     </g>
    </g>
    <g id="xtick_3">
     <g id="line2d_3">
      <g>
       <use xlink:href="#m9e52264284" x="117.017083" y="168.48" style="stroke: #000000; stroke-width: 0.8"/>
      </g>
     </g>
     <g id="text_3">
      <!-- $\mathdefault{10^{-4}}$ -->
      <g transform="translate(107.617083 183.65875) scale(0.08 -0.08)">
       <defs>
        <path id="DejaVuSans-34" d="M 2419 4116 
L 825 1625 
L 2419 1625 
L 2419 4116 
z
M 2253 4666 
L 3047 4666 
L 3047 1625 
L 3713 1625 
L 3713 1100 
L 3047 1100 
L 3047 0 
L 2419 0 
L 2419 1100 
L 313 1100 
L 313 1709 
L 2253 4666 
z
" transform="scale(0.015625)"/>
       </defs>
       <use xlink:href="#DejaVuSans-31" transform="translate(0 0.684375)"/>
       <use xlink:href="#DejaVuSans-30" transform="translate(63.623047 0.684375)"/>
       <use xlink:href="#DejaVuSans-2212" transform="translate(128.203125 38.965625) scale(0.7)"/>
       <use xlink:href="#DejaVuSans-34" transform="translate(186.855469 38.965625) scale(0.7)"/>
      </g>
     </g>
    </g>
    <g id="xtick_4">
     <g id="line2d_4">
      <g>
       <use xlink:href="#m9e52264284" x="147.393516" y="168.48" style="stroke: #000000; stroke-width: 0.8"/>
      </g>
     </g>
     <g id="text_4">
      <!-- $\mathdefault{10^{-3}}$ -->
      <g transform="translate(137.993516 183.65875) scale(0.08 -0.08)">
       <defs>
        <path id="DejaVuSans-33" d="M 2597 2516 
Q 3050 2419 3304 2112 
Q 3559 1806 3559 1356 
Q 3559 666 3084 287 
Q 2609 -91 1734 -91 
Q 1441 -91 1130 -33 
Q 819 25 488 141 
L 488 750 
Q 750 597 1062 519 
Q 1375 441 1716 441 
Q 2309 441 2620 675 
Q 2931 909 2931 1356 
Q 2931 1769 2642 2001 
Q 2353 2234 1838 2234 
L 1294 2234 
L 1294 2753 
L 1863 2753 
Q 2328 2753 2575 2939 
Q 2822 3125 2822 3475 
Q 2822 3834 2567 4026 
Q 2313 4219 1838 4219 
Q 1578 4219 1281 4162 
Q 984 4106 628 3988 
L 628 4550 
Q 988 4650 1302 4700 
Q 1616 4750 1894 4750 
Q 2613 4750 3031 4423 
Q 3450 4097 3450 3541 
Q 3450 3153 3228 2886 
Q 3006 2619 2597 2516 
z
" transform="scale(0.015625)"/>
       </defs>
       <use xlink:href="#DejaVuSans-31" transform="translate(0 0.765625)"/>
       <use xlink:href="#DejaVuSans-30" transform="translate(63.623047 0.765625)"/>
       <use xlink:href="#DejaVuSans-2212" transform="translate(128.203125 39.046875) scale(0.7)"/>
       <use xlink:href="#DejaVuSans-33" transform="translate(186.855469 39.046875) scale(0.7)"/>
      </g>
     </g>
    </g>
    <g id="xtick_5">
     <g id="line2d_5">
      <g>
       <use xlink:href="#m9e52264284" x="177.769948" y="168.48" style="stroke: #000000; stroke-width: 0.8"/>
      </g>
     </g>
     <g id="text_5">
      <!-- $\mathdefault{10^{-2}}$ -->
      <g transform="translate(168.369948 183.65875) scale(0.08 -0.08)">
       <defs>
        <path id="DejaVuSans-32" d="M 1228 531 
L 3431 531 
L 3431 0 
L 469 0 
L 469 531 
Q 828 903 1448 1529 
Q 2069 2156 2228 2338 
Q 2531 2678 2651 2914 
Q 2772 3150 2772 3378 
Q 2772 3750 2511 3984 
Q 2250 4219 1831 4219 
Q 1534 4219 1204 4116 
Q 875 4013 500 3803 
L 500 4441 
Q 881 4594 1212 4672 
Q 1544 4750 1819 4750 
Q 2544 4750 2975 4387 
Q 3406 4025 3406 3419 
Q 3406 3131 3298 2873 
Q 3191 2616 2906 2266 
Q 2828 2175 2409 1742 
Q 1991 1309 1228 531 
z
" transform="scale(0.015625)"/>
       </defs>
       <use xlink:href="#DejaVuSans-31" transform="translate(0 0.765625)"/>
       <use xlink:href="#DejaVuSans-30" transform="translate(63.623047 0.765625)"/>
       <use xlink:href="#DejaVuSans-2212" transform="translate(128.203125 39.046875) scale(0.7)"/>
       <use xlink:href="#DejaVuSans-32" transform="translate(186.855469 39.046875) scale(0.7)"/>
      </g>
     </g>
    </g>
    <g id="xtick_6">
     <g id="line2d_6">
      <g>
       <use xlink:href="#m9e52264284" x="208.146381" y="168.48" style="stroke: #000000; stroke-width: 0.8"/>
      </g>
     </g>
     <g id="text_6">
      <!-- $\mathdefault{10^{-1}}$ -->
      <g transform="translate(198.746381 183.65875) scale(0.08 -0.08)">
       <use xlink:href="#DejaVuSans-31" transform="translate(0 0.684375)"/>
       <use xlink:href="#DejaVuSans-30" transform="translate(63.623047 0.684375)"/>
       <use xlink:href="#DejaVuSans-2212" transform="translate(128.203125 38.965625) scale(0.7)"/>
       <use xlink:href="#DejaVuSans-31" transform="translate(186.855469 38.965625) scale(0.7)"/>
      </g>
     </g>
    </g>
    <g id="xtick_7">
     <g id="line2d_7">
      <g>
       <use xlink:href="#m9e52264284" x="238.522814" y="168.48" style="stroke: #000000; stroke-width: 0.8"/>
      </g>
     </g>
     <g id="text_7">
      <!-- $\mathdefault{10^{0}}$ -->
      <g transform="translate(231.482814 183.65875) scale(0.08 -0.08)">
       <use xlink:href="#DejaVuSans-31" transform="translate(0 0.765625)"/>
       <use xlink:href="#DejaVuSans-30" transform="translate(63.623047 0.765625)"/>
       <use xlink:href="#DejaVuSans-30" transform="translate(128.203125 39.046875) scale(0.7)"/>
      </g>
     </g>
    </g>
    <g id="xtick_8">
     <g id="line2d_8">
      <defs>
       <path id="m2b1a75db34" d="M 0 0 
L 0 2 
" style="stroke: #000000; stroke-width: 0.4"/>
      </defs>
      <g>
       <use xlink:href="#m2b1a75db34" x="47.12" y="168.48" style="stroke: #000000; stroke-width: 0.4"/>
      </g>
     </g>
    </g>
    <g id="xtick_9">
     <g id="line2d_9">
      <g>
       <use xlink:href="#m2b1a75db34" x="49.525244" y="168.48" style="stroke: #000000; stroke-width: 0.4"/>
      </g>
     </g>
    </g>
    <g id="xtick_10">
     <g id="line2d_10">
      <g>
       <use xlink:href="#m2b1a75db34" x="51.558848" y="168.48" style="stroke: #000000; stroke-width: 0.4"/>
      </g>
     </g>
    </g>
    <g id="xtick_11">
     <g id="line2d_11">
      <g>
       <use xlink:href="#m2b1a75db34" x="53.320437" y="168.48" style="stroke: #000000; stroke-width: 0.4"/>
      </g>
     </g>
    </g>
    <g id="xtick_12">
     <g id="line2d_12">
      <g>
       <use xlink:href="#m2b1a75db34" x="54.874268" y="168.48" style="stroke: #000000; stroke-width: 0.4"/>
      </g>
     </g>
    </g>
    <g id="xtick_13">
     <g id="line2d_13">
      <g>
       <use xlink:href="#m2b1a75db34" x="65.408435" y="168.48" style="stroke: #000000; stroke-width: 0.4"/>
      </g>
     </g>
    </g>
    <g id="xtick_14">
     <g id="line2d_14">
      <g>
       <use xlink:href="#m2b1a75db34" x="70.757459" y="168.48" style="stroke: #000000; stroke-width: 0.4"/>
      </g>
     </g>
    </g>
    <g id="xtick_15">
     <g id="line2d_15">
      <g>
       <use xlink:href="#m2b1a75db34" x="74.552652" y="168.48" style="stroke: #000000; stroke-width: 0.4"/>
      </g>
     </g>
    </g>
    <g id="xtick_16">
     <g id="line2d_16">
      <g>
       <use xlink:href="#m2b1a75db34" x="77.496433" y="168.48" style="stroke: #000000; stroke-width: 0.4"/>
      </g>
     </g>
    </g>
    <g id="xtick_17">
     <g id="line2d_17">
      <g>
       <use xlink:href="#m2b1a75db34" x="79.901677" y="168.48" style="stroke: #000000; stroke-width: 0.4"/>
      </g>
     </g>
    </g>
    <g id="xtick_18">
     <g id="line2d_18">
      <g>
       <use xlink:href="#m2b1a75db34" x="81.935281" y="168.48" style="stroke: #000000; stroke-width: 0.4"/>
      </g>
     </g>
    </g>
    <g id="xtick_19">
     <g id="line2d_19">
      <g>
       <use xlink:href="#m2b1a75db34" x="83.69687" y="168.48" style="stroke: #000000; stroke-width: 0.4"/>
      </g>
     </g>
    </g>
    <g id="xtick_20">
     <g id="line2d_20">
      <g>
       <use xlink:href="#m2b1a75db34" x="85.250701" y="168.48" style="stroke: #000000; stroke-width: 0.4"/>
      </g>
     </g>
    </g>
    <g id="xtick_21">
     <g id="line2d_21">
      <g>
       <use xlink:href="#m2b1a75db34" x="95.784868" y="168.48" style="stroke: #000000; stroke-width: 0.4"/>
      </g>
     </g>
    </g>
    <g id="xtick_22">
     <g id="line2d_22">
      <g>
       <use xlink:href="#m2b1a75db34" x="101.133892" y="168.48" style="stroke: #000000; stroke-width: 0.4"/>
      </g>
     </g>
    </g>
    <g id="xtick_23">
     <g id="line2d_23">
      <g>
       <use xlink:href="#m2b1a75db34" x="104.929085" y="168.48" style="stroke: #000000; stroke-width: 0.4"/>
      </g>
     </g>
    </g>
    <g id="xtick_24">
     <g id="line2d_24">
      <g>
       <use xlink:href="#m2b1a75db34" x="107.872865" y="168.48" style="stroke: #000000; stroke-width: 0.4"/>
      </g>
     </g>
    </g>
    <g id="xtick_25">
     <g id="line2d_25">
      <g>
       <use xlink:href="#m2b1a75db34" x="110.278109" y="168.48" style="stroke: #000000; stroke-width: 0.4"/>
      </g>
     </g>
    </g>
    <g id="xtick_26">
     <g id="line2d_26">
      <g>
       <use xlink:href="#m2b1a75db34" x="112.311714" y="168.48" style="stroke: #000000; stroke-width: 0.4"/>
      </g>
     </g>
    </g>
    <g id="xtick_27">
     <g id="line2d_27">
      <g>
       <use xlink:href="#m2b1a75db34" x="114.073302" y="168.48" style="stroke: #000000; stroke-width: 0.4"/>
      </g>
     </g>
    </g>
    <g id="xtick_28">
     <g id="line2d_28">
      <g>
       <use xlink:href="#m2b1a75db34" x="115.627134" y="168.48" style="stroke: #000000; stroke-width: 0.4"/>
      </g>
     </g>
    </g>
    <g id="xtick_29">
     <g id="line2d_29">
      <g>
       <use xlink:href="#m2b1a75db34" x="126.1613" y="168.48" style="stroke: #000000; stroke-width: 0.4"/>
      </g>
     </g>
    </g>
    <g id="xtick_30">
     <g id="line2d_30">
      <g>
       <use xlink:href="#m2b1a75db34" x="131.510325" y="168.48" style="stroke: #000000; stroke-width: 0.4"/>
      </g>
     </g>
    </g>
    <g id="xtick_31">
     <g id="line2d_31">
      <g>
       <use xlink:href="#m2b1a75db34" x="135.305518" y="168.48" style="stroke: #000000; stroke-width: 0.4"/>
      </g>
     </g>
    </g>
    <g id="xtick_32">
     <g id="line2d_32">
      <g>
       <use xlink:href="#m2b1a75db34" x="138.249298" y="168.48" style="stroke: #000000; stroke-width: 0.4"/>
      </g>
     </g>
    </g>
    <g id="xtick_33">
     <g id="line2d_33">
      <g>
       <use xlink:href="#m2b1a75db34" x="140.654542" y="168.48" style="stroke: #000000; stroke-width: 0.4"/>
      </g>
     </g>
    </g>
    <g id="xtick_34">
     <g id="line2d_34">
      <g>
       <use xlink:href="#m2b1a75db34" x="142.688147" y="168.48" style="stroke: #000000; stroke-width: 0.4"/>
      </g>
     </g>
    </g>
    <g id="xtick_35">
     <g id="line2d_35">
      <g>
       <use xlink:href="#m2b1a75db34" x="144.449735" y="168.48" style="stroke: #000000; stroke-width: 0.4"/>
      </g>
     </g>
    </g>
    <g id="xtick_36">
     <g id="line2d_36">
      <g>
       <use xlink:href="#m2b1a75db34" x="146.003566" y="168.48" style="stroke: #000000; stroke-width: 0.4"/>
      </g>
     </g>
    </g>
    <g id="xtick_37">
     <g id="line2d_37">
      <g>
       <use xlink:href="#m2b1a75db34" x="156.537733" y="168.48" style="stroke: #000000; stroke-width: 0.4"/>
      </g>
     </g>
    </g>
    <g id="xtick_38">
     <g id="line2d_38">
      <g>
       <use xlink:href="#m2b1a75db34" x="161.886757" y="168.48" style="stroke: #000000; stroke-width: 0.4"/>
      </g>
     </g>
    </g>
    <g id="xtick_39">
     <g id="line2d_39">
      <g>
       <use xlink:href="#m2b1a75db34" x="165.68195" y="168.48" style="stroke: #000000; stroke-width: 0.4"/>
      </g>
     </g>
    </g>
    <g id="xtick_40">
     <g id="line2d_40">
      <g>
       <use xlink:href="#m2b1a75db34" x="168.625731" y="168.48" style="stroke: #000000; stroke-width: 0.4"/>
      </g>
     </g>
    </g>
    <g id="xtick_41">
     <g id="line2d_41">
      <g>
       <use xlink:href="#m2b1a75db34" x="171.030975" y="168.48" style="stroke: #000000; stroke-width: 0.4"/>
      </g>
     </g>
    </g>
    <g id="xtick_42">
     <g id="line2d_42">
      <g>
       <use xlink:href="#m2b1a75db34" x="173.064579" y="168.48" style="stroke: #000000; stroke-width: 0.4"/>
      </g>
     </g>
    </g>
    <g id="xtick_43">
     <g id="line2d_43">
      <g>
       <use xlink:href="#m2b1a75db34" x="174.826168" y="168.48" style="stroke: #000000; stroke-width: 0.4"/>
      </g>
     </g>
    </g>
    <g id="xtick_44">
     <g id="line2d_44">
      <g>
       <use xlink:href="#m2b1a75db34" x="176.379999" y="168.48" style="stroke: #000000; stroke-width: 0.4"/>
      </g>
     </g>
    </g>
    <g id="xtick_45">
     <g id="line2d_45">
      <g>
       <use xlink:href="#m2b1a75db34" x="186.914166" y="168.48" style="stroke: #000000; stroke-width: 0.4"/>
      </g>
     </g>
    </g>
    <g id="xtick_46">
     <g id="line2d_46">
      <g>
       <use xlink:href="#m2b1a75db34" x="192.26319" y="168.48" style="stroke: #000000; stroke-width: 0.4"/>
      </g>
     </g>
    </g>
    <g id="xtick_47">
     <g id="line2d_47">
      <g>
       <use xlink:href="#m2b1a75db34" x="196.058383" y="168.48" style="stroke: #000000; stroke-width: 0.4"/>
      </g>
     </g>
    </g>
    <g id="xtick_48">
     <g id="line2d_48">
      <g>
       <use xlink:href="#m2b1a75db34" x="199.002164" y="168.48" style="stroke: #000000; stroke-width: 0.4"/>
      </g>
     </g>
    </g>
    <g id="xtick_49">
     <g id="line2d_49">
      <g>
       <use xlink:href="#m2b1a75db34" x="201.407407" y="168.48" style="stroke: #000000; stroke-width: 0.4"/>
      </g>
     </g>
    </g>
    <g id="xtick_50">
     <g id="line2d_50">
      <g>
       <use xlink:href="#m2b1a75db34" x="203.441012" y="168.48" style="stroke: #000000; stroke-width: 0.4"/>
      </g>
     </g>
    </g>
    <g id="xtick_51">
     <g id="line2d_51">
      <g>
       <use xlink:href="#m2b1a75db34" x="205.2026" y="168.48" style="stroke: #000000; stroke-width: 0.4"/>
      </g>
     </g>
    </g>
    <g id="xtick_52">
     <g id="line2d_52">
      <g>
       <use xlink:href="#m2b1a75db34" x="206.756432" y="168.48" style="stroke: #000000; stroke-width: 0.4"/>
      </g>
     </g>
    </g>
    <g id="xtick_53">
     <g id="line2d_53">
      <g>
       <use xlink:href="#m2b1a75db34" x="217.290598" y="168.48" style="stroke: #000000; stroke-width: 0.4"/>
      </g>
     </g>
    </g>
    <g id="xtick_54">
     <g id="line2d_54">
      <g>
       <use xlink:href="#m2b1a75db34" x="222.639623" y="168.48" style="stroke: #000000; stroke-width: 0.4"/>
      </g>
     </g>
    </g>
    <g id="xtick_55">
     <g id="line2d_55">
      <g>
       <use xlink:href="#m2b1a75db34" x="226.434816" y="168.48" style="stroke: #000000; stroke-width: 0.4"/>
      </g>
     </g>
    </g>
    <g id="xtick_56">
     <g id="line2d_56">
      <g>
       <use xlink:href="#m2b1a75db34" x="229.378596" y="168.48" style="stroke: #000000; stroke-width: 0.4"/>
      </g>
     </g>
    </g>
    <g id="xtick_57">
     <g id="line2d_57">
      <g>
       <use xlink:href="#m2b1a75db34" x="231.78384" y="168.48" style="stroke: #000000; stroke-width: 0.4"/>
      </g>
     </g>
    </g>
    <g id="xtick_58">
     <g id="line2d_58">
      <g>
       <use xlink:href="#m2b1a75db34" x="233.817445" y="168.48" style="stroke: #000000; stroke-width: 0.4"/>
      </g>
     </g>
    </g>
    <g id="xtick_59">
     <g id="line2d_59">
      <g>
       <use xlink:href="#m2b1a75db34" x="235.579033" y="168.48" style="stroke: #000000; stroke-width: 0.4"/>
      </g>
     </g>
    </g>
    <g id="xtick_60">
     <g id="line2d_60">
      <g>
       <use xlink:href="#m2b1a75db34" x="237.132864" y="168.48" style="stroke: #000000; stroke-width: 0.4"/>
      </g>
     </g>
    </g>
    <g id="text_8">
     <!-- (a) Parameter with $\lambda$ -->
     <g transform="translate(84.014694 198.440625) scale(0.12 -0.12)">
      <defs>
       <path id="DejaVuSans-28" d="M 1984 4856 
Q 1566 4138 1362 3434 
Q 1159 2731 1159 2009 
Q 1159 1288 1364 580 
Q 1569 -128 1984 -844 
L 1484 -844 
Q 1016 -109 783 600 
Q 550 1309 550 2009 
Q 550 2706 781 3412 
Q 1013 4119 1484 4856 
L 1984 4856 
z
" transform="scale(0.015625)"/>
       <path id="DejaVuSans-61" d="M 2194 1759 
Q 1497 1759 1228 1600 
Q 959 1441 959 1056 
Q 959 750 1161 570 
Q 1363 391 1709 391 
Q 2188 391 2477 730 
Q 2766 1069 2766 1631 
L 2766 1759 
L 2194 1759 
z
M 3341 1997 
L 3341 0 
L 2766 0 
L 2766 531 
Q 2569 213 2275 61 
Q 1981 -91 1556 -91 
Q 1019 -91 701 211 
Q 384 513 384 1019 
Q 384 1609 779 1909 
Q 1175 2209 1959 2209 
L 2766 2209 
L 2766 2266 
Q 2766 2663 2505 2880 
Q 2244 3097 1772 3097 
Q 1472 3097 1187 3025 
Q 903 2953 641 2809 
L 641 3341 
Q 956 3463 1253 3523 
Q 1550 3584 1831 3584 
Q 2591 3584 2966 3190 
Q 3341 2797 3341 1997 
z
" transform="scale(0.015625)"/>
       <path id="DejaVuSans-29" d="M 513 4856 
L 1013 4856 
Q 1481 4119 1714 3412 
Q 1947 2706 1947 2009 
Q 1947 1309 1714 600 
Q 1481 -109 1013 -844 
L 513 -844 
Q 928 -128 1133 580 
Q 1338 1288 1338 2009 
Q 1338 2731 1133 3434 
Q 928 4138 513 4856 
z
" transform="scale(0.015625)"/>
       <path id="DejaVuSans-20" transform="scale(0.015625)"/>
       <path id="DejaVuSans-50" d="M 1259 4147 
L 1259 2394 
L 2053 2394 
Q 2494 2394 2734 2622 
Q 2975 2850 2975 3272 
Q 2975 3691 2734 3919 
Q 2494 4147 2053 4147 
L 1259 4147 
z
M 628 4666 
L 2053 4666 
Q 2838 4666 3239 4311 
Q 3641 3956 3641 3272 
Q 3641 2581 3239 2228 
Q 2838 1875 2053 1875 
L 1259 1875 
L 1259 0 
L 628 0 
L 628 4666 
z
" transform="scale(0.015625)"/>
       <path id="DejaVuSans-72" d="M 2631 2963 
Q 2534 3019 2420 3045 
Q 2306 3072 2169 3072 
Q 1681 3072 1420 2755 
Q 1159 2438 1159 1844 
L 1159 0 
L 581 0 
L 581 3500 
L 1159 3500 
L 1159 2956 
Q 1341 3275 1631 3429 
Q 1922 3584 2338 3584 
Q 2397 3584 2469 3576 
Q 2541 3569 2628 3553 
L 2631 2963 
z
" transform="scale(0.015625)"/>
       <path id="DejaVuSans-6d" d="M 3328 2828 
Q 3544 3216 3844 3400 
Q 4144 3584 4550 3584 
Q 5097 3584 5394 3201 
Q 5691 2819 5691 2113 
L 5691 0 
L 5113 0 
L 5113 2094 
Q 5113 2597 4934 2840 
Q 4756 3084 4391 3084 
Q 3944 3084 3684 2787 
Q 3425 2491 3425 1978 
L 3425 0 
L 2847 0 
L 2847 2094 
Q 2847 2600 2669 2842 
Q 2491 3084 2119 3084 
Q 1678 3084 1418 2786 
Q 1159 2488 1159 1978 
L 1159 0 
L 581 0 
L 581 3500 
L 1159 3500 
L 1159 2956 
Q 1356 3278 1631 3431 
Q 1906 3584 2284 3584 
Q 2666 3584 2933 3390 
Q 3200 3197 3328 2828 
z
" transform="scale(0.015625)"/>
       <path id="DejaVuSans-65" d="M 3597 1894 
L 3597 1613 
L 953 1613 
Q 991 1019 1311 708 
Q 1631 397 2203 397 
Q 2534 397 2845 478 
Q 3156 559 3463 722 
L 3463 178 
Q 3153 47 2828 -22 
Q 2503 -91 2169 -91 
Q 1331 -91 842 396 
Q 353 884 353 1716 
Q 353 2575 817 3079 
Q 1281 3584 2069 3584 
Q 2775 3584 3186 3129 
Q 3597 2675 3597 1894 
z
M 3022 2063 
Q 3016 2534 2758 2815 
Q 2500 3097 2075 3097 
Q 1594 3097 1305 2825 
Q 1016 2553 972 2059 
L 3022 2063 
z
" transform="scale(0.015625)"/>
       <path id="DejaVuSans-74" d="M 1172 4494 
L 1172 3500 
L 2356 3500 
L 2356 3053 
L 1172 3053 
L 1172 1153 
Q 1172 725 1289 603 
Q 1406 481 1766 481 
L 2356 481 
L 2356 0 
L 1766 0 
Q 1100 0 847 248 
Q 594 497 594 1153 
L 594 3053 
L 172 3053 
L 172 3500 
L 594 3500 
L 594 4494 
L 1172 4494 
z
" transform="scale(0.015625)"/>
       <path id="DejaVuSans-77" d="M 269 3500 
L 844 3500 
L 1563 769 
L 2278 3500 
L 2956 3500 
L 3675 769 
L 4391 3500 
L 4966 3500 
L 4050 0 
L 3372 0 
L 2619 2869 
L 1863 0 
L 1184 0 
L 269 3500 
z
" transform="scale(0.015625)"/>
       <path id="DejaVuSans-69" d="M 603 3500 
L 1178 3500 
L 1178 0 
L 603 0 
L 603 3500 
z
M 603 4863 
L 1178 4863 
L 1178 4134 
L 603 4134 
L 603 4863 
z
" transform="scale(0.015625)"/>
       <path id="DejaVuSans-68" d="M 3513 2113 
L 3513 0 
L 2938 0 
L 2938 2094 
Q 2938 2591 2744 2837 
Q 2550 3084 2163 3084 
Q 1697 3084 1428 2787 
Q 1159 2491 1159 1978 
L 1159 0 
L 581 0 
L 581 4863 
L 1159 4863 
L 1159 2956 
Q 1366 3272 1645 3428 
Q 1925 3584 2291 3584 
Q 2894 3584 3203 3211 
Q 3513 2838 3513 2113 
z
" transform="scale(0.015625)"/>
       <path id="DejaVuSans-Oblique-3bb" d="M 2350 4316 
L 3125 0 
L 2516 0 
L 2038 2588 
L 328 0 
L -281 0 
L 1903 3356 
L 1794 3975 
Q 1725 4369 1391 4369 
L 1091 4369 
L 1184 4863 
L 1550 4856 
Q 2253 4847 2350 4316 
z
" transform="scale(0.015625)"/>
      </defs>
      <use xlink:href="#DejaVuSans-28" transform="translate(0 0.015625)"/>
      <use xlink:href="#DejaVuSans-61" transform="translate(39.013672 0.015625)"/>
      <use xlink:href="#DejaVuSans-29" transform="translate(100.292969 0.015625)"/>
      <use xlink:href="#DejaVuSans-20" transform="translate(139.306641 0.015625)"/>
      <use xlink:href="#DejaVuSans-50" transform="translate(171.09375 0.015625)"/>
      <use xlink:href="#DejaVuSans-61" transform="translate(231.396484 0.015625)"/>
      <use xlink:href="#DejaVuSans-72" transform="translate(292.675781 0.015625)"/>
      <use xlink:href="#DejaVuSans-61" transform="translate(333.789062 0.015625)"/>
      <use xlink:href="#DejaVuSans-6d" transform="translate(395.068359 0.015625)"/>
      <use xlink:href="#DejaVuSans-65" transform="translate(492.480469 0.015625)"/>
      <use xlink:href="#DejaVuSans-74" transform="translate(554.003906 0.015625)"/>
      <use xlink:href="#DejaVuSans-65" transform="translate(593.212891 0.015625)"/>
      <use xlink:href="#DejaVuSans-72" transform="translate(654.736328 0.015625)"/>
      <use xlink:href="#DejaVuSans-20" transform="translate(695.849609 0.015625)"/>
      <use xlink:href="#DejaVuSans-77" transform="translate(727.636719 0.015625)"/>
      <use xlink:href="#DejaVuSans-69" transform="translate(809.423828 0.015625)"/>
      <use xlink:href="#DejaVuSans-74" transform="translate(837.207031 0.015625)"/>
      <use xlink:href="#DejaVuSans-68" transform="translate(876.416016 0.015625)"/>
      <use xlink:href="#DejaVuSans-20" transform="translate(939.794922 0.015625)"/>
      <use xlink:href="#DejaVuSans-Oblique-3bb" transform="translate(971.582031 0.015625)"/>
     </g>
    </g>
   </g>
   <g id="matplotlib.axis_2">
    <g id="ytick_1">
     <g id="line2d_61">
      <defs>
       <path id="m11276d53b6" d="M 0 0 
L -3.5 0 
" style="stroke: #000000; stroke-width: 0.8"/>
      </defs>
      <g>
       <use xlink:href="#m11276d53b6" x="47.12" y="159.919179" style="stroke: #000000; stroke-width: 0.8"/>
      </g>
     </g>
     <g id="text_9">
      <!-- 15 -->
      <g transform="translate(27.84 162.958554) scale(0.08 -0.08)">
       <use xlink:href="#DejaVuSans-31"/>
       <use xlink:href="#DejaVuSans-35" x="63.623047"/>
      </g>
     </g>
    </g>
    <g id="ytick_2">
     <g id="line2d_62">
      <g>
       <use xlink:href="#m11276d53b6" x="47.12" y="140.045419" style="stroke: #000000; stroke-width: 0.8"/>
      </g>
     </g>
     <g id="text_10">
      <!-- 17 -->
      <g transform="translate(27.84 143.084794) scale(0.08 -0.08)">
       <defs>
        <path id="DejaVuSans-37" d="M 525 4666 
L 3525 4666 
L 3525 4397 
L 1831 0 
L 1172 0 
L 2766 4134 
L 525 4134 
L 525 4666 
z
" transform="scale(0.015625)"/>
       </defs>
       <use xlink:href="#DejaVuSans-31"/>
       <use xlink:href="#DejaVuSans-37" x="63.623047"/>
      </g>
     </g>
    </g>
    <g id="ytick_3">
     <g id="line2d_63">
      <g>
       <use xlink:href="#m11276d53b6" x="47.12" y="120.17166" style="stroke: #000000; stroke-width: 0.8"/>
      </g>
     </g>
     <g id="text_11">
      <!-- 20 -->
      <g transform="translate(27.84 123.211035) scale(0.08 -0.08)">
       <use xlink:href="#DejaVuSans-32"/>
       <use xlink:href="#DejaVuSans-30" x="63.623047"/>
      </g>
     </g>
    </g>
    <g id="ytick_4">
     <g id="line2d_64">
      <g>
       <use xlink:href="#m11276d53b6" x="47.12" y="100.2979" style="stroke: #000000; stroke-width: 0.8"/>
      </g>
     </g>
     <g id="text_12">
      <!-- 22 -->
      <g transform="translate(27.84 103.337275) scale(0.08 -0.08)">
       <use xlink:href="#DejaVuSans-32"/>
       <use xlink:href="#DejaVuSans-32" x="63.623047"/>
      </g>
     </g>
    </g>
    <g id="ytick_5">
     <g id="line2d_65">
      <g>
       <use xlink:href="#m11276d53b6" x="47.12" y="80.42414" style="stroke: #000000; stroke-width: 0.8"/>
      </g>
     </g>
     <g id="text_13">
      <!-- 25 -->
      <g transform="translate(27.84 83.463515) scale(0.08 -0.08)">
       <use xlink:href="#DejaVuSans-32"/>
       <use xlink:href="#DejaVuSans-35" x="63.623047"/>
      </g>
     </g>
    </g>
    <g id="ytick_6">
     <g id="line2d_66">
      <g>
       <use xlink:href="#m11276d53b6" x="47.12" y="60.55038" style="stroke: #000000; stroke-width: 0.8"/>
      </g>
     </g>
     <g id="text_14">
      <!-- 27 -->
      <g transform="translate(27.84 63.589755) scale(0.08 -0.08)">
       <use xlink:href="#DejaVuSans-32"/>
       <use xlink:href="#DejaVuSans-37" x="63.623047"/>
      </g>
     </g>
    </g>
    <g id="ytick_7">
     <g id="line2d_67">
      <g>
       <use xlink:href="#m11276d53b6" x="47.12" y="40.676621" style="stroke: #000000; stroke-width: 0.8"/>
      </g>
     </g>
     <g id="text_15">
      <!-- 30 -->
      <g transform="translate(27.84 43.715996) scale(0.08 -0.08)">
       <use xlink:href="#DejaVuSans-33"/>
       <use xlink:href="#DejaVuSans-30" x="63.623047"/>
      </g>
     </g>
    </g>
    <g id="ytick_8">
     <g id="line2d_68">
      <g>
       <use xlink:href="#m11276d53b6" x="47.12" y="20.802861" style="stroke: #000000; stroke-width: 0.8"/>
      </g>
     </g>
     <g id="text_16">
      <!-- 32 -->
      <g transform="translate(27.84 23.842236) scale(0.08 -0.08)">
       <use xlink:href="#DejaVuSans-33"/>
       <use xlink:href="#DejaVuSans-32" x="63.623047"/>
      </g>
     </g>
    </g>
    <g id="text_17">
     <!-- Hit Rate(%) -->
     <g transform="translate(21.344375 124.215937) rotate(-90) scale(0.12 -0.12)">
      <defs>
       <path id="DejaVuSans-48" d="M 628 4666 
L 1259 4666 
L 1259 2753 
L 3553 2753 
L 3553 4666 
L 4184 4666 
L 4184 0 
L 3553 0 
L 3553 2222 
L 1259 2222 
L 1259 0 
L 628 0 
L 628 4666 
z
" transform="scale(0.015625)"/>
       <path id="DejaVuSans-52" d="M 2841 2188 
Q 3044 2119 3236 1894 
Q 3428 1669 3622 1275 
L 4263 0 
L 3584 0 
L 2988 1197 
Q 2756 1666 2539 1819 
Q 2322 1972 1947 1972 
L 1259 1972 
L 1259 0 
L 628 0 
L 628 4666 
L 2053 4666 
Q 2853 4666 3247 4331 
Q 3641 3997 3641 3322 
Q 3641 2881 3436 2590 
Q 3231 2300 2841 2188 
z
M 1259 4147 
L 1259 2491 
L 2053 2491 
Q 2509 2491 2742 2702 
Q 2975 2913 2975 3322 
Q 2975 3731 2742 3939 
Q 2509 4147 2053 4147 
L 1259 4147 
z
" transform="scale(0.015625)"/>
       <path id="DejaVuSans-25" d="M 4653 2053 
Q 4381 2053 4226 1822 
Q 4072 1591 4072 1178 
Q 4072 772 4226 539 
Q 4381 306 4653 306 
Q 4919 306 5073 539 
Q 5228 772 5228 1178 
Q 5228 1588 5073 1820 
Q 4919 2053 4653 2053 
z
M 4653 2450 
Q 5147 2450 5437 2106 
Q 5728 1763 5728 1178 
Q 5728 594 5436 251 
Q 5144 -91 4653 -91 
Q 4153 -91 3862 251 
Q 3572 594 3572 1178 
Q 3572 1766 3864 2108 
Q 4156 2450 4653 2450 
z
M 1428 4353 
Q 1159 4353 1004 4120 
Q 850 3888 850 3481 
Q 850 3069 1003 2837 
Q 1156 2606 1428 2606 
Q 1700 2606 1854 2837 
Q 2009 3069 2009 3481 
Q 2009 3884 1853 4118 
Q 1697 4353 1428 4353 
z
M 4250 4750 
L 4750 4750 
L 1831 -91 
L 1331 -91 
L 4250 4750 
z
M 1428 4750 
Q 1922 4750 2215 4408 
Q 2509 4066 2509 3481 
Q 2509 2891 2217 2550 
Q 1925 2209 1428 2209 
Q 931 2209 642 2551 
Q 353 2894 353 3481 
Q 353 4063 643 4406 
Q 934 4750 1428 4750 
z
" transform="scale(0.015625)"/>
      </defs>
      <use xlink:href="#DejaVuSans-48"/>
      <use xlink:href="#DejaVuSans-69" x="75.195312"/>
      <use xlink:href="#DejaVuSans-74" x="102.978516"/>
      <use xlink:href="#DejaVuSans-20" x="142.1875"/>
      <use xlink:href="#DejaVuSans-52" x="173.974609"/>
      <use xlink:href="#DejaVuSans-61" x="241.207031"/>
      <use xlink:href="#DejaVuSans-74" x="302.486328"/>
      <use xlink:href="#DejaVuSans-65" x="341.695312"/>
      <use xlink:href="#DejaVuSans-28" x="403.21875"/>
      <use xlink:href="#DejaVuSans-25" x="442.232422"/>
      <use xlink:href="#DejaVuSans-29" x="537.251953"/>
     </g>
    </g>
   </g>
   <g id="line2d_69">
    <path d="M 56.264217 161.312727 
L 59.301861 159.253806 
L 62.339504 156.813308 
L 65.377147 154.092193 
L 68.41479 151.204138 
L 71.452434 148.278721 
L 74.490077 145.270628 
L 77.52772 142.268896 
L 80.565364 139.271138 
L 83.603007 136.162087 
L 86.64065 132.797857 
L 89.678293 129.309614 
L 92.715937 125.763341 
L 95.75358 122.221837 
L 98.791223 118.951411 
L 101.828866 115.460784 
L 104.86651 112.238055 
L 107.904153 109.072562 
L 110.941796 106.063675 
L 113.97944 103.379128 
L 117.017083 101.075361 
L 120.054726 99.198484 
L 123.092369 97.707157 
L 126.130013 96.798528 
L 129.167656 96.048095 
L 132.205299 95.757938 
L 135.242942 95.870026 
L 138.280586 96.486908 
L 141.318229 97.933717 
L 144.355872 99.828879 
L 147.393516 102.149339 
L 150.431159 105.1781 
L 153.468802 108.878594 
L 156.506445 113.292954 
L 159.544089 118.706566 
L 162.581732 124.124948 
L 165.619375 129.364466 
L 168.657018 134.065803 
L 171.694662 138.12005 
L 174.732305 141.469971 
L 177.769948 144.233218 
L 180.807592 146.381969 
L 183.845235 147.905889 
L 186.882878 148.835186 
L 189.920521 149.394036 
L 192.958165 149.692142 
L 195.995808 149.846363 
L 199.033451 149.927448 
L 202.071094 149.964015 
L 205.108738 149.983889 
L 208.146381 150.002173 
L 211.184024 150.015687 
L 214.221668 150.022842 
L 217.259311 150.026022 
L 220.296954 150.027612 
L 223.334597 150.026817 
L 226.372241 150.026817 
L 229.409884 150.028406 
L 232.447527 150.028406 
L 235.48517 150.026022 
" clip-path="url(#p018bb20e51)" style="fill: none; stroke-dasharray: 5.18,2.24; stroke-dashoffset: 0; stroke: #4c90b0; stroke-width: 1.4"/>
   </g>
   <g id="line2d_70">
    <path d="M 56.264217 95.97178 
L 59.301861 94.595721 
L 62.339504 92.962893 
L 65.377147 90.996185 
L 68.41479 88.818021 
L 71.452434 86.640652 
L 74.490077 84.213669 
L 77.52772 81.445651 
L 80.565364 78.737255 
L 83.603007 76.446208 
L 86.64065 73.77279 
L 89.678293 71.399068 
L 92.715937 69.458594 
L 95.75358 68.049147 
L 98.791223 66.818564 
L 101.828866 66.675473 
L 104.86651 67.235913 
L 107.904153 67.696984 
L 110.941796 67.377414 
L 113.97944 67.313818 
L 117.017083 67.543559 
L 120.054726 68.567455 
L 123.092369 70.196308 
L 126.130013 71.985742 
L 129.167656 73.648778 
L 132.205299 75.334868 
L 135.242942 76.857198 
L 138.280586 78.454253 
L 141.318229 80.048129 
L 144.355872 81.46473 
L 147.393516 82.882922 
L 150.431159 84.11271 
L 153.468802 85.172379 
L 156.506445 86.069878 
L 159.544089 86.786923 
L 162.581732 87.289332 
L 165.619375 87.650239 
L 168.657018 87.888724 
L 171.694662 88.081102 
L 174.732305 88.213064 
L 177.769948 88.296534 
L 180.807592 88.35377 
L 183.845235 88.391133 
L 186.882878 88.425316 
L 189.920521 88.4436 
L 192.958165 88.455524 
L 195.995808 88.457114 
L 199.033451 88.457114 
L 202.071094 88.457114 
L 205.108738 88.457114 
L 208.146381 88.457114 
L 211.184024 88.457114 
L 214.221668 88.457114 
L 217.259311 88.457114 
L 220.296954 88.457114 
L 223.334597 88.457114 
L 226.372241 88.457114 
L 229.409884 88.457114 
L 232.447527 88.457114 
L 235.48517 88.457114 
" clip-path="url(#p018bb20e51)" style="fill: none; stroke-dasharray: 1.4,2.31; stroke-dashoffset: 0; stroke: #55a868; stroke-width: 1.4"/>
   </g>
   <g id="line2d_71">
    <path d="M 56.264217 72.063647 
L 59.301861 70.541317 
L 62.339504 68.909284 
L 65.377147 66.532382 
L 68.41479 64.028288 
L 71.452434 61.811172 
L 74.490077 59.385778 
L 77.52772 56.763237 
L 80.565364 53.267045 
L 83.603007 51.244691 
L 86.64065 48.668257 
L 89.678293 45.9694 
L 92.715937 45.085415 
L 95.75358 44.885088 
L 98.791223 44.968558 
L 101.828866 46.963883 
L 104.86651 49.739055 
L 107.904153 51.719276 
L 110.941796 53.236042 
L 113.97944 55.58194 
L 117.017083 57.35786 
L 120.054726 59.627443 
L 123.092369 61.615614 
L 126.130013 64.010004 
L 129.167656 65.915501 
L 132.205299 67.311433 
L 135.242942 68.848867 
L 138.280586 70.117608 
L 141.318229 70.88553 
L 144.355872 71.333087 
L 147.393516 71.872859 
L 150.431159 72.40786 
L 153.468802 72.847468 
L 156.506445 73.121726 
L 159.544089 73.325233 
L 162.581732 73.45163 
L 165.619375 73.552589 
L 168.657018 73.613005 
L 171.694662 73.657522 
L 174.732305 73.688525 
L 177.769948 73.711579 
L 180.807592 73.735428 
L 183.845235 73.743377 
L 186.882878 73.744172 
L 189.920521 73.744967 
L 192.958165 73.744172 
L 195.995808 73.744967 
L 199.033451 73.744967 
L 202.071094 73.744967 
L 205.108738 73.744967 
L 208.146381 73.744967 
L 211.184024 73.744967 
L 214.221668 73.744967 
L 217.259311 73.744967 
L 220.296954 73.744967 
L 223.334597 73.744967 
L 226.372241 73.744967 
L 229.409884 73.744967 
L 232.447527 73.744967 
L 235.48517 73.744967 
" clip-path="url(#p018bb20e51)" style="fill: none; stroke-dasharray: 8.96,2.24,1.4,2.24; stroke-dashoffset: 0; stroke: #c44e52; stroke-width: 1.4"/>
   </g>
   <g id="line2d_72">
    <path d="M 56.264217 41.842813 
L 59.301861 40.118565 
L 62.339504 38.140729 
L 65.377147 36.1144 
L 68.41479 33.953725 
L 71.452434 31.863006 
L 74.490077 28.774623 
L 77.52772 26.268145 
L 80.565364 23.527951 
L 83.603007 21.096197 
L 86.64065 18.844103 
L 89.678293 17.967273 
L 92.715937 18.708961 
L 95.75358 19.004683 
L 98.791223 20.030169 
L 101.828866 21.046911 
L 104.86651 22.651915 
L 107.904153 26.882641 
L 110.941796 30.223023 
L 113.97944 33.785991 
L 117.017083 35.762237 
L 120.054726 38.831541 
L 123.092369 42.245058 
L 126.130013 45.703887 
L 129.167656 47.960751 
L 132.205299 50.30665 
L 135.242942 52.429962 
L 138.280586 53.568331 
L 141.318229 54.092998 
L 144.355872 54.499218 
L 147.393516 54.736113 
L 150.431159 54.886359 
L 153.468802 55.005601 
L 156.506445 55.080327 
L 159.544089 55.143128 
L 162.581732 55.182875 
L 165.619375 55.221828 
L 168.657018 55.247266 
L 171.694662 55.256011 
L 174.732305 55.26714 
L 177.769948 55.272705 
L 180.807592 55.27191 
L 183.845235 55.27191 
L 186.882878 55.27191 
L 189.920521 55.27191 
L 192.958165 55.27191 
L 195.995808 55.27191 
L 199.033451 55.27191 
L 202.071094 55.27191 
L 205.108738 55.27191 
L 208.146381 55.27191 
L 211.184024 55.27191 
L 214.221668 55.27191 
L 217.259311 55.27191 
L 220.296954 55.27191 
L 223.334597 55.27191 
L 226.372241 55.27191 
L 229.409884 55.27191 
L 232.447527 55.27191 
L 235.48517 55.27191 
" clip-path="url(#p018bb20e51)" style="fill: none; stroke-dasharray: 5.18,2.24; stroke-dashoffset: 0; stroke: #8172b2; stroke-width: 1.4"/>
   </g>
   <g id="patch_3">
    <path d="M 47.12 168.48 
L 47.12 10.8 
" style="fill: none; stroke: #000000; stroke-width: 0.8; stroke-linejoin: miter; stroke-linecap: square"/>
   </g>
   <g id="patch_4">
    <path d="M 244.629388 168.48 
L 244.629388 10.8 
" style="fill: none; stroke: #000000; stroke-width: 0.8; stroke-linejoin: miter; stroke-linecap: square"/>
   </g>
   <g id="patch_5">
    <path d="M 47.12 168.48 
L 244.629388 168.48 
" style="fill: none; stroke: #000000; stroke-width: 0.8; stroke-linejoin: miter; stroke-linecap: square"/>
   </g>
   <g id="patch_6">
    <path d="M 47.12 10.8 
L 244.629388 10.8 
" style="fill: none; stroke: #000000; stroke-width: 0.8; stroke-linejoin: miter; stroke-linecap: square"/>
   </g>
   <g id="legend_1">
    <g id="patch_7">
     <path d="M 176.881888 64.17 
L 239.029388 64.17 
Q 240.629388 64.17 240.629388 62.57 
L 240.629388 16.4 
Q 240.629388 14.8 239.029388 14.8 
L 176.881888 14.8 
Q 175.281888 14.8 175.281888 16.4 
L 175.281888 62.57 
Q 175.281888 64.17 176.881888 64.17 
z
" style="fill: #ffffff; opacity: 0.8; stroke: #cccccc; stroke-width: 0.24; stroke-linejoin: miter"/>
    </g>
    <g id="line2d_73">
     <path d="M 178.481888 21.27875 
L 186.481888 21.27875 
L 194.481888 21.27875 
" style="fill: none; stroke-dasharray: 5.18,2.24; stroke-dashoffset: 0; stroke: #4c90b0; stroke-width: 1.4"/>
    </g>
    <g id="text_18">
     <!-- c = 200 -->
     <g transform="translate(200.881888 24.07875) scale(0.08 -0.08)">
      <defs>
       <path id="DejaVuSans-63" d="M 3122 3366 
L 3122 2828 
Q 2878 2963 2633 3030 
Q 2388 3097 2138 3097 
Q 1578 3097 1268 2742 
Q 959 2388 959 1747 
Q 959 1106 1268 751 
Q 1578 397 2138 397 
Q 2388 397 2633 464 
Q 2878 531 3122 666 
L 3122 134 
Q 2881 22 2623 -34 
Q 2366 -91 2075 -91 
Q 1284 -91 818 406 
Q 353 903 353 1747 
Q 353 2603 823 3093 
Q 1294 3584 2113 3584 
Q 2378 3584 2631 3529 
Q 2884 3475 3122 3366 
z
" transform="scale(0.015625)"/>
       <path id="DejaVuSans-3d" d="M 678 2906 
L 4684 2906 
L 4684 2381 
L 678 2381 
L 678 2906 
z
M 678 1631 
L 4684 1631 
L 4684 1100 
L 678 1100 
L 678 1631 
z
" transform="scale(0.015625)"/>
      </defs>
      <use xlink:href="#DejaVuSans-63"/>
      <use xlink:href="#DejaVuSans-20" x="54.980469"/>
      <use xlink:href="#DejaVuSans-3d" x="86.767578"/>
      <use xlink:href="#DejaVuSans-20" x="170.556641"/>
      <use xlink:href="#DejaVuSans-32" x="202.34375"/>
      <use xlink:href="#DejaVuSans-30" x="265.966797"/>
      <use xlink:href="#DejaVuSans-30" x="329.589844"/>
     </g>
    </g>
    <g id="line2d_74">
     <path d="M 178.481888 33.02125 
L 186.481888 33.02125 
L 194.481888 33.02125 
" style="fill: none; stroke-dasharray: 1.4,2.31; stroke-dashoffset: 0; stroke: #55a868; stroke-width: 1.4"/>
    </g>
    <g id="text_19">
     <!-- c = 1000 -->
     <g transform="translate(200.881888 35.82125) scale(0.08 -0.08)">
      <use xlink:href="#DejaVuSans-63"/>
      <use xlink:href="#DejaVuSans-20" x="54.980469"/>
      <use xlink:href="#DejaVuSans-3d" x="86.767578"/>
      <use xlink:href="#DejaVuSans-20" x="170.556641"/>
      <use xlink:href="#DejaVuSans-31" x="202.34375"/>
      <use xlink:href="#DejaVuSans-30" x="265.966797"/>
      <use xlink:href="#DejaVuSans-30" x="329.589844"/>
      <use xlink:href="#DejaVuSans-30" x="393.212891"/>
     </g>
    </g>
    <g id="line2d_75">
     <path d="M 178.481888 44.76375 
L 186.481888 44.76375 
L 194.481888 44.76375 
" style="fill: none; stroke-dasharray: 8.96,2.24,1.4,2.24; stroke-dashoffset: 0; stroke: #c44e52; stroke-width: 1.4"/>
    </g>
    <g id="text_20">
     <!-- c = 2000 -->
     <g transform="translate(200.881888 47.56375) scale(0.08 -0.08)">
      <use xlink:href="#DejaVuSans-63"/>
      <use xlink:href="#DejaVuSans-20" x="54.980469"/>
      <use xlink:href="#DejaVuSans-3d" x="86.767578"/>
      <use xlink:href="#DejaVuSans-20" x="170.556641"/>
      <use xlink:href="#DejaVuSans-32" x="202.34375"/>
      <use xlink:href="#DejaVuSans-30" x="265.966797"/>
      <use xlink:href="#DejaVuSans-30" x="329.589844"/>
      <use xlink:href="#DejaVuSans-30" x="393.212891"/>
     </g>
    </g>
    <g id="line2d_76">
     <path d="M 178.481888 56.50625 
L 186.481888 56.50625 
L 194.481888 56.50625 
" style="fill: none; stroke-dasharray: 5.18,2.24; stroke-dashoffset: 0; stroke: #8172b2; stroke-width: 1.4"/>
    </g>
    <g id="text_21">
     <!-- c = 4000 -->
     <g transform="translate(200.881888 59.30625) scale(0.08 -0.08)">
      <use xlink:href="#DejaVuSans-63"/>
      <use xlink:href="#DejaVuSans-20" x="54.980469"/>
      <use xlink:href="#DejaVuSans-3d" x="86.767578"/>
      <use xlink:href="#DejaVuSans-20" x="170.556641"/>
      <use xlink:href="#DejaVuSans-34" x="202.34375"/>
      <use xlink:href="#DejaVuSans-30" x="265.966797"/>
      <use xlink:href="#DejaVuSans-30" x="329.589844"/>
      <use xlink:href="#DejaVuSans-30" x="393.212891"/>
     </g>
    </g>
   </g>
  </g>
  <g id="axes_2">
   <g id="patch_8">
    <path d="M 293.689063 168.48 
L 491.19845 168.48 
L 491.19845 10.8 
L 293.689063 10.8 
z
" style="fill: #ffffff"/>
   </g>
   <g id="PathCollection_5">
    <g clip-path="url(#pc2787d2718)">
     <use xlink:href="#mc5ac6cacdc" x="406.113151" y="98.309651" style="fill: #4c90b0; stroke: #4c90b0; stroke-width: 0.24"/>
    </g>
   </g>
   <g id="PathCollection_6">
    <g clip-path="url(#pc2787d2718)">
     <use xlink:href="#mc78bae72a9" x="400.037865" y="68.090543" style="fill: #55a868; stroke: #55a868; stroke-width: 0.24"/>
    </g>
   </g>
   <g id="PathCollection_7">
    <g clip-path="url(#pc2787d2718)">
     <use xlink:href="#m9ccbcddc15" x="415.226081" y="47.87187" style="fill: #c44e52; stroke: #c44e52; stroke-width: 0.24"/>
    </g>
   </g>
   <g id="PathCollection_8">
    <g clip-path="url(#pc2787d2718)">
     <use xlink:href="#mafee4fb588" x="409.150794" y="17.967273" style="fill: #8172b2; stroke: #8172b2; stroke-width: 0.24"/>
    </g>
   </g>
   <g id="matplotlib.axis_3">
    <g id="xtick_61">
     <g id="line2d_77">
      <g>
       <use xlink:href="#m9e52264284" x="302.83328" y="168.48" style="stroke: #000000; stroke-width: 0.8"/>
      </g>
     </g>
     <g id="text_22">
      <!-- $\mathdefault{10^{-2}}$ -->
      <g transform="translate(293.43328 183.65875) scale(0.08 -0.08)">
       <use xlink:href="#DejaVuSans-31" transform="translate(0 0.765625)"/>
       <use xlink:href="#DejaVuSans-30" transform="translate(63.623047 0.765625)"/>
       <use xlink:href="#DejaVuSans-2212" transform="translate(128.203125 39.046875) scale(0.7)"/>
       <use xlink:href="#DejaVuSans-32" transform="translate(186.855469 39.046875) scale(0.7)"/>
      </g>
     </g>
    </g>
    <g id="xtick_62">
     <g id="line2d_78">
      <g>
       <use xlink:href="#m9e52264284" x="333.209713" y="168.48" style="stroke: #000000; stroke-width: 0.8"/>
      </g>
     </g>
     <g id="text_23">
      <!-- $\mathdefault{10^{-1}}$ -->
      <g transform="translate(323.809713 183.65875) scale(0.08 -0.08)">
       <use xlink:href="#DejaVuSans-31" transform="translate(0 0.684375)"/>
       <use xlink:href="#DejaVuSans-30" transform="translate(63.623047 0.684375)"/>
       <use xlink:href="#DejaVuSans-2212" transform="translate(128.203125 38.965625) scale(0.7)"/>
       <use xlink:href="#DejaVuSans-31" transform="translate(186.855469 38.965625) scale(0.7)"/>
      </g>
     </g>
    </g>
    <g id="xtick_63">
     <g id="line2d_79">
      <g>
       <use xlink:href="#m9e52264284" x="363.586145" y="168.48" style="stroke: #000000; stroke-width: 0.8"/>
      </g>
     </g>
     <g id="text_24">
      <!-- $\mathdefault{10^{0}}$ -->
      <g transform="translate(356.546145 183.65875) scale(0.08 -0.08)">
       <use xlink:href="#DejaVuSans-31" transform="translate(0 0.765625)"/>
       <use xlink:href="#DejaVuSans-30" transform="translate(63.623047 0.765625)"/>
       <use xlink:href="#DejaVuSans-30" transform="translate(128.203125 39.046875) scale(0.7)"/>
      </g>
     </g>
    </g>
    <g id="xtick_64">
     <g id="line2d_80">
      <g>
       <use xlink:href="#m9e52264284" x="393.962578" y="168.48" style="stroke: #000000; stroke-width: 0.8"/>
      </g>
     </g>
     <g id="text_25">
      <!-- $\mathdefault{10^{1}}$ -->
      <g transform="translate(386.922578 183.65875) scale(0.08 -0.08)">
       <use xlink:href="#DejaVuSans-31" transform="translate(0 0.684375)"/>
       <use xlink:href="#DejaVuSans-30" transform="translate(63.623047 0.684375)"/>
       <use xlink:href="#DejaVuSans-31" transform="translate(128.203125 38.965625) scale(0.7)"/>
      </g>
     </g>
    </g>
    <g id="xtick_65">
     <g id="line2d_81">
      <g>
       <use xlink:href="#m9e52264284" x="424.339011" y="168.48" style="stroke: #000000; stroke-width: 0.8"/>
      </g>
     </g>
     <g id="text_26">
      <!-- $\mathdefault{10^{2}}$ -->
      <g transform="translate(417.299011 183.65875) scale(0.08 -0.08)">
       <use xlink:href="#DejaVuSans-31" transform="translate(0 0.765625)"/>
       <use xlink:href="#DejaVuSans-30" transform="translate(63.623047 0.765625)"/>
       <use xlink:href="#DejaVuSans-32" transform="translate(128.203125 39.046875) scale(0.7)"/>
      </g>
     </g>
    </g>
    <g id="xtick_66">
     <g id="line2d_82">
      <g>
       <use xlink:href="#m9e52264284" x="454.715443" y="168.48" style="stroke: #000000; stroke-width: 0.8"/>
      </g>
     </g>
     <g id="text_27">
      <!-- $\mathdefault{10^{3}}$ -->
      <g transform="translate(447.675443 183.65875) scale(0.08 -0.08)">
       <use xlink:href="#DejaVuSans-31" transform="translate(0 0.765625)"/>
       <use xlink:href="#DejaVuSans-30" transform="translate(63.623047 0.765625)"/>
       <use xlink:href="#DejaVuSans-33" transform="translate(128.203125 39.046875) scale(0.7)"/>
      </g>
     </g>
    </g>
    <g id="xtick_67">
     <g id="line2d_83">
      <g>
       <use xlink:href="#m9e52264284" x="485.091876" y="168.48" style="stroke: #000000; stroke-width: 0.8"/>
      </g>
     </g>
     <g id="text_28">
      <!-- $\mathdefault{10^{4}}$ -->
      <g transform="translate(478.051876 183.65875) scale(0.08 -0.08)">
       <use xlink:href="#DejaVuSans-31" transform="translate(0 0.684375)"/>
       <use xlink:href="#DejaVuSans-30" transform="translate(63.623047 0.684375)"/>
       <use xlink:href="#DejaVuSans-34" transform="translate(128.203125 38.965625) scale(0.7)"/>
      </g>
     </g>
    </g>
    <g id="xtick_68">
     <g id="line2d_84">
      <g>
       <use xlink:href="#m2b1a75db34" x="293.689063" y="168.48" style="stroke: #000000; stroke-width: 0.4"/>
      </g>
     </g>
    </g>
    <g id="xtick_69">
     <g id="line2d_85">
      <g>
       <use xlink:href="#m2b1a75db34" x="296.094306" y="168.48" style="stroke: #000000; stroke-width: 0.4"/>
      </g>
     </g>
    </g>
    <g id="xtick_70">
     <g id="line2d_86">
      <g>
       <use xlink:href="#m2b1a75db34" x="298.127911" y="168.48" style="stroke: #000000; stroke-width: 0.4"/>
      </g>
     </g>
    </g>
    <g id="xtick_71">
     <g id="line2d_87">
      <g>
       <use xlink:href="#m2b1a75db34" x="299.889499" y="168.48" style="stroke: #000000; stroke-width: 0.4"/>
      </g>
     </g>
    </g>
    <g id="xtick_72">
     <g id="line2d_88">
      <g>
       <use xlink:href="#m2b1a75db34" x="301.443331" y="168.48" style="stroke: #000000; stroke-width: 0.4"/>
      </g>
     </g>
    </g>
    <g id="xtick_73">
     <g id="line2d_89">
      <g>
       <use xlink:href="#m2b1a75db34" x="311.977497" y="168.48" style="stroke: #000000; stroke-width: 0.4"/>
      </g>
     </g>
    </g>
    <g id="xtick_74">
     <g id="line2d_90">
      <g>
       <use xlink:href="#m2b1a75db34" x="317.326522" y="168.48" style="stroke: #000000; stroke-width: 0.4"/>
      </g>
     </g>
    </g>
    <g id="xtick_75">
     <g id="line2d_91">
      <g>
       <use xlink:href="#m2b1a75db34" x="321.121715" y="168.48" style="stroke: #000000; stroke-width: 0.4"/>
      </g>
     </g>
    </g>
    <g id="xtick_76">
     <g id="line2d_92">
      <g>
       <use xlink:href="#m2b1a75db34" x="324.065495" y="168.48" style="stroke: #000000; stroke-width: 0.4"/>
      </g>
     </g>
    </g>
    <g id="xtick_77">
     <g id="line2d_93">
      <g>
       <use xlink:href="#m2b1a75db34" x="326.470739" y="168.48" style="stroke: #000000; stroke-width: 0.4"/>
      </g>
     </g>
    </g>
    <g id="xtick_78">
     <g id="line2d_94">
      <g>
       <use xlink:href="#m2b1a75db34" x="328.504344" y="168.48" style="stroke: #000000; stroke-width: 0.4"/>
      </g>
     </g>
    </g>
    <g id="xtick_79">
     <g id="line2d_95">
      <g>
       <use xlink:href="#m2b1a75db34" x="330.265932" y="168.48" style="stroke: #000000; stroke-width: 0.4"/>
      </g>
     </g>
    </g>
    <g id="xtick_80">
     <g id="line2d_96">
      <g>
       <use xlink:href="#m2b1a75db34" x="331.819763" y="168.48" style="stroke: #000000; stroke-width: 0.4"/>
      </g>
     </g>
    </g>
    <g id="xtick_81">
     <g id="line2d_97">
      <g>
       <use xlink:href="#m2b1a75db34" x="342.35393" y="168.48" style="stroke: #000000; stroke-width: 0.4"/>
      </g>
     </g>
    </g>
    <g id="xtick_82">
     <g id="line2d_98">
      <g>
       <use xlink:href="#m2b1a75db34" x="347.702954" y="168.48" style="stroke: #000000; stroke-width: 0.4"/>
      </g>
     </g>
    </g>
    <g id="xtick_83">
     <g id="line2d_99">
      <g>
       <use xlink:href="#m2b1a75db34" x="351.498147" y="168.48" style="stroke: #000000; stroke-width: 0.4"/>
      </g>
     </g>
    </g>
    <g id="xtick_84">
     <g id="line2d_100">
      <g>
       <use xlink:href="#m2b1a75db34" x="354.441928" y="168.48" style="stroke: #000000; stroke-width: 0.4"/>
      </g>
     </g>
    </g>
    <g id="xtick_85">
     <g id="line2d_101">
      <g>
       <use xlink:href="#m2b1a75db34" x="356.847172" y="168.48" style="stroke: #000000; stroke-width: 0.4"/>
      </g>
     </g>
    </g>
    <g id="xtick_86">
     <g id="line2d_102">
      <g>
       <use xlink:href="#m2b1a75db34" x="358.880776" y="168.48" style="stroke: #000000; stroke-width: 0.4"/>
      </g>
     </g>
    </g>
    <g id="xtick_87">
     <g id="line2d_103">
      <g>
       <use xlink:href="#m2b1a75db34" x="360.642365" y="168.48" style="stroke: #000000; stroke-width: 0.4"/>
      </g>
     </g>
    </g>
    <g id="xtick_88">
     <g id="line2d_104">
      <g>
       <use xlink:href="#m2b1a75db34" x="362.196196" y="168.48" style="stroke: #000000; stroke-width: 0.4"/>
      </g>
     </g>
    </g>
    <g id="xtick_89">
     <g id="line2d_105">
      <g>
       <use xlink:href="#m2b1a75db34" x="372.730363" y="168.48" style="stroke: #000000; stroke-width: 0.4"/>
      </g>
     </g>
    </g>
    <g id="xtick_90">
     <g id="line2d_106">
      <g>
       <use xlink:href="#m2b1a75db34" x="378.079387" y="168.48" style="stroke: #000000; stroke-width: 0.4"/>
      </g>
     </g>
    </g>
    <g id="xtick_91">
     <g id="line2d_107">
      <g>
       <use xlink:href="#m2b1a75db34" x="381.87458" y="168.48" style="stroke: #000000; stroke-width: 0.4"/>
      </g>
     </g>
    </g>
    <g id="xtick_92">
     <g id="line2d_108">
      <g>
       <use xlink:href="#m2b1a75db34" x="384.818361" y="168.48" style="stroke: #000000; stroke-width: 0.4"/>
      </g>
     </g>
    </g>
    <g id="xtick_93">
     <g id="line2d_109">
      <g>
       <use xlink:href="#m2b1a75db34" x="387.223604" y="168.48" style="stroke: #000000; stroke-width: 0.4"/>
      </g>
     </g>
    </g>
    <g id="xtick_94">
     <g id="line2d_110">
      <g>
       <use xlink:href="#m2b1a75db34" x="389.257209" y="168.48" style="stroke: #000000; stroke-width: 0.4"/>
      </g>
     </g>
    </g>
    <g id="xtick_95">
     <g id="line2d_111">
      <g>
       <use xlink:href="#m2b1a75db34" x="391.018798" y="168.48" style="stroke: #000000; stroke-width: 0.4"/>
      </g>
     </g>
    </g>
    <g id="xtick_96">
     <g id="line2d_112">
      <g>
       <use xlink:href="#m2b1a75db34" x="392.572629" y="168.48" style="stroke: #000000; stroke-width: 0.4"/>
      </g>
     </g>
    </g>
    <g id="xtick_97">
     <g id="line2d_113">
      <g>
       <use xlink:href="#m2b1a75db34" x="403.106795" y="168.48" style="stroke: #000000; stroke-width: 0.4"/>
      </g>
     </g>
    </g>
    <g id="xtick_98">
     <g id="line2d_114">
      <g>
       <use xlink:href="#m2b1a75db34" x="408.45582" y="168.48" style="stroke: #000000; stroke-width: 0.4"/>
      </g>
     </g>
    </g>
    <g id="xtick_99">
     <g id="line2d_115">
      <g>
       <use xlink:href="#m2b1a75db34" x="412.251013" y="168.48" style="stroke: #000000; stroke-width: 0.4"/>
      </g>
     </g>
    </g>
    <g id="xtick_100">
     <g id="line2d_116">
      <g>
       <use xlink:href="#m2b1a75db34" x="415.194793" y="168.48" style="stroke: #000000; stroke-width: 0.4"/>
      </g>
     </g>
    </g>
    <g id="xtick_101">
     <g id="line2d_117">
      <g>
       <use xlink:href="#m2b1a75db34" x="417.600037" y="168.48" style="stroke: #000000; stroke-width: 0.4"/>
      </g>
     </g>
    </g>
    <g id="xtick_102">
     <g id="line2d_118">
      <g>
       <use xlink:href="#m2b1a75db34" x="419.633642" y="168.48" style="stroke: #000000; stroke-width: 0.4"/>
      </g>
     </g>
    </g>
    <g id="xtick_103">
     <g id="line2d_119">
      <g>
       <use xlink:href="#m2b1a75db34" x="421.39523" y="168.48" style="stroke: #000000; stroke-width: 0.4"/>
      </g>
     </g>
    </g>
    <g id="xtick_104">
     <g id="line2d_120">
      <g>
       <use xlink:href="#m2b1a75db34" x="422.949061" y="168.48" style="stroke: #000000; stroke-width: 0.4"/>
      </g>
     </g>
    </g>
    <g id="xtick_105">
     <g id="line2d_121">
      <g>
       <use xlink:href="#m2b1a75db34" x="433.483228" y="168.48" style="stroke: #000000; stroke-width: 0.4"/>
      </g>
     </g>
    </g>
    <g id="xtick_106">
     <g id="line2d_122">
      <g>
       <use xlink:href="#m2b1a75db34" x="438.832252" y="168.48" style="stroke: #000000; stroke-width: 0.4"/>
      </g>
     </g>
    </g>
    <g id="xtick_107">
     <g id="line2d_123">
      <g>
       <use xlink:href="#m2b1a75db34" x="442.627446" y="168.48" style="stroke: #000000; stroke-width: 0.4"/>
      </g>
     </g>
    </g>
    <g id="xtick_108">
     <g id="line2d_124">
      <g>
       <use xlink:href="#m2b1a75db34" x="445.571226" y="168.48" style="stroke: #000000; stroke-width: 0.4"/>
      </g>
     </g>
    </g>
    <g id="xtick_109">
     <g id="line2d_125">
      <g>
       <use xlink:href="#m2b1a75db34" x="447.97647" y="168.48" style="stroke: #000000; stroke-width: 0.4"/>
      </g>
     </g>
    </g>
    <g id="xtick_110">
     <g id="line2d_126">
      <g>
       <use xlink:href="#m2b1a75db34" x="450.010075" y="168.48" style="stroke: #000000; stroke-width: 0.4"/>
      </g>
     </g>
    </g>
    <g id="xtick_111">
     <g id="line2d_127">
      <g>
       <use xlink:href="#m2b1a75db34" x="451.771663" y="168.48" style="stroke: #000000; stroke-width: 0.4"/>
      </g>
     </g>
    </g>
    <g id="xtick_112">
     <g id="line2d_128">
      <g>
       <use xlink:href="#m2b1a75db34" x="453.325494" y="168.48" style="stroke: #000000; stroke-width: 0.4"/>
      </g>
     </g>
    </g>
    <g id="xtick_113">
     <g id="line2d_129">
      <g>
       <use xlink:href="#m2b1a75db34" x="463.859661" y="168.48" style="stroke: #000000; stroke-width: 0.4"/>
      </g>
     </g>
    </g>
    <g id="xtick_114">
     <g id="line2d_130">
      <g>
       <use xlink:href="#m2b1a75db34" x="469.208685" y="168.48" style="stroke: #000000; stroke-width: 0.4"/>
      </g>
     </g>
    </g>
    <g id="xtick_115">
     <g id="line2d_131">
      <g>
       <use xlink:href="#m2b1a75db34" x="473.003878" y="168.48" style="stroke: #000000; stroke-width: 0.4"/>
      </g>
     </g>
    </g>
    <g id="xtick_116">
     <g id="line2d_132">
      <g>
       <use xlink:href="#m2b1a75db34" x="475.947659" y="168.48" style="stroke: #000000; stroke-width: 0.4"/>
      </g>
     </g>
    </g>
    <g id="xtick_117">
     <g id="line2d_133">
      <g>
       <use xlink:href="#m2b1a75db34" x="478.352903" y="168.48" style="stroke: #000000; stroke-width: 0.4"/>
      </g>
     </g>
    </g>
    <g id="xtick_118">
     <g id="line2d_134">
      <g>
       <use xlink:href="#m2b1a75db34" x="480.386507" y="168.48" style="stroke: #000000; stroke-width: 0.4"/>
      </g>
     </g>
    </g>
    <g id="xtick_119">
     <g id="line2d_135">
      <g>
       <use xlink:href="#m2b1a75db34" x="482.148096" y="168.48" style="stroke: #000000; stroke-width: 0.4"/>
      </g>
     </g>
    </g>
    <g id="xtick_120">
     <g id="line2d_136">
      <g>
       <use xlink:href="#m2b1a75db34" x="483.701927" y="168.48" style="stroke: #000000; stroke-width: 0.4"/>
      </g>
     </g>
    </g>
    <g id="text_29">
     <!-- (b) Parameter with $R=\frac{1}{\lambda \times c}$ -->
     <g transform="translate(311.743756 200.7225) scale(0.12 -0.12)">
      <defs>
       <path id="DejaVuSans-62" d="M 3116 1747 
Q 3116 2381 2855 2742 
Q 2594 3103 2138 3103 
Q 1681 3103 1420 2742 
Q 1159 2381 1159 1747 
Q 1159 1113 1420 752 
Q 1681 391 2138 391 
Q 2594 391 2855 752 
Q 3116 1113 3116 1747 
z
M 1159 2969 
Q 1341 3281 1617 3432 
Q 1894 3584 2278 3584 
Q 2916 3584 3314 3078 
Q 3713 2572 3713 1747 
Q 3713 922 3314 415 
Q 2916 -91 2278 -91 
Q 1894 -91 1617 61 
Q 1341 213 1159 525 
L 1159 0 
L 581 0 
L 581 4863 
L 1159 4863 
L 1159 2969 
z
" transform="scale(0.015625)"/>
       <path id="DejaVuSans-Oblique-52" d="M 1613 4147 
L 1294 2491 
L 2106 2491 
Q 2584 2491 2879 2755 
Q 3175 3019 3175 3444 
Q 3175 3784 2976 3965 
Q 2778 4147 2406 4147 
L 1613 4147 
z
M 2772 2241 
Q 2972 2194 3105 2009 
Q 3238 1825 3413 1275 
L 3809 0 
L 3144 0 
L 2778 1197 
Q 2638 1659 2453 1815 
Q 2269 1972 1888 1972 
L 1191 1972 
L 806 0 
L 172 0 
L 1081 4666 
L 2503 4666 
Q 3150 4666 3495 4373 
Q 3841 4081 3841 3531 
Q 3841 3044 3547 2687 
Q 3253 2331 2772 2241 
z
" transform="scale(0.015625)"/>
       <path id="DejaVuSans-d7" d="M 4488 3438 
L 3059 2003 
L 4488 575 
L 4116 197 
L 2681 1631 
L 1247 197 
L 878 575 
L 2303 2003 
L 878 3438 
L 1247 3816 
L 2681 2381 
L 4116 3816 
L 4488 3438 
z
" transform="scale(0.015625)"/>
       <path id="DejaVuSans-Oblique-63" d="M 3431 3366 
L 3316 2797 
Q 3109 2947 2876 3022 
Q 2644 3097 2394 3097 
Q 2119 3097 1870 3000 
Q 1622 2903 1453 2725 
Q 1184 2453 1037 2087 
Q 891 1722 891 1331 
Q 891 859 1127 628 
Q 1363 397 1844 397 
Q 2081 397 2348 469 
Q 2616 541 2906 684 
L 2797 116 
Q 2547 13 2283 -39 
Q 2019 -91 1741 -91 
Q 1044 -91 669 257 
Q 294 606 294 1253 
Q 294 1797 489 2255 
Q 684 2713 1069 3078 
Q 1331 3328 1684 3456 
Q 2038 3584 2456 3584 
Q 2700 3584 2940 3529 
Q 3181 3475 3431 3366 
z
" transform="scale(0.015625)"/>
      </defs>
      <use xlink:href="#DejaVuSans-28" transform="translate(0 0.16875)"/>
      <use xlink:href="#DejaVuSans-62" transform="translate(39.013672 0.16875)"/>
      <use xlink:href="#DejaVuSans-29" transform="translate(102.490234 0.16875)"/>
      <use xlink:href="#DejaVuSans-20" transform="translate(141.503906 0.16875)"/>
      <use xlink:href="#DejaVuSans-50" transform="translate(173.291016 0.16875)"/>
      <use xlink:href="#DejaVuSans-61" transform="translate(233.59375 0.16875)"/>
      <use xlink:href="#DejaVuSans-72" transform="translate(294.873047 0.16875)"/>
      <use xlink:href="#DejaVuSans-61" transform="translate(335.986328 0.16875)"/>
      <use xlink:href="#DejaVuSans-6d" transform="translate(397.265625 0.16875)"/>
      <use xlink:href="#DejaVuSans-65" transform="translate(494.677734 0.16875)"/>
      <use xlink:href="#DejaVuSans-74" transform="translate(556.201172 0.16875)"/>
      <use xlink:href="#DejaVuSans-65" transform="translate(595.410156 0.16875)"/>
      <use xlink:href="#DejaVuSans-72" transform="translate(656.933594 0.16875)"/>
      <use xlink:href="#DejaVuSans-20" transform="translate(698.046875 0.16875)"/>
      <use xlink:href="#DejaVuSans-77" transform="translate(729.833984 0.16875)"/>
      <use xlink:href="#DejaVuSans-69" transform="translate(811.621094 0.16875)"/>
      <use xlink:href="#DejaVuSans-74" transform="translate(839.404297 0.16875)"/>
      <use xlink:href="#DejaVuSans-68" transform="translate(878.613281 0.16875)"/>
      <use xlink:href="#DejaVuSans-20" transform="translate(941.992188 0.16875)"/>
      <use xlink:href="#DejaVuSans-Oblique-52" transform="translate(973.779297 0.16875)"/>
      <use xlink:href="#DejaVuSans-3d" transform="translate(1062.744141 0.16875)"/>
      <use xlink:href="#DejaVuSans-31" transform="translate(1227.015625 43.965625) scale(0.7)"/>
      <use xlink:href="#DejaVuSans-Oblique-3bb" transform="translate(1166.015625 -40.473437) scale(0.7)"/>
      <use xlink:href="#DejaVuSans-d7" transform="translate(1221.079102 -40.473437) scale(0.7)"/>
      <use xlink:href="#DejaVuSans-Oblique-63" transform="translate(1293.369141 -40.473437) scale(0.7)"/>
      <path d="M 1166.015625 18.965625 
L 1166.015625 25.215625 
L 1331.855469 25.215625 
L 1331.855469 18.965625 
L 1166.015625 18.965625 
z
"/>
     </g>
    </g>
   </g>
   <g id="matplotlib.axis_4">
    <g id="ytick_9">
     <g id="line2d_137">
      <g>
       <use xlink:href="#m11276d53b6" x="293.689063" y="165.531713" style="stroke: #000000; stroke-width: 0.8"/>
      </g>
     </g>
     <g id="text_30">
      <!-- 15 -->
      <g transform="translate(274.409063 168.571088) scale(0.08 -0.08)">
       <use xlink:href="#DejaVuSans-31"/>
       <use xlink:href="#DejaVuSans-35" x="63.623047"/>
      </g>
     </g>
    </g>
    <g id="ytick_10">
     <g id="line2d_138">
      <g>
       <use xlink:href="#m11276d53b6" x="293.689063" y="144.508263" style="stroke: #000000; stroke-width: 0.8"/>
      </g>
     </g>
     <g id="text_31">
      <!-- 17 -->
      <g transform="translate(274.409063 147.547638) scale(0.08 -0.08)">
       <use xlink:href="#DejaVuSans-31"/>
       <use xlink:href="#DejaVuSans-37" x="63.623047"/>
      </g>
     </g>
    </g>
    <g id="ytick_11">
     <g id="line2d_139">
      <g>
       <use xlink:href="#m11276d53b6" x="293.689063" y="123.484812" style="stroke: #000000; stroke-width: 0.8"/>
      </g>
     </g>
     <g id="text_32">
      <!-- 20 -->
      <g transform="translate(274.409063 126.524187) scale(0.08 -0.08)">
       <use xlink:href="#DejaVuSans-32"/>
       <use xlink:href="#DejaVuSans-30" x="63.623047"/>
      </g>
     </g>
    </g>
    <g id="ytick_12">
     <g id="line2d_140">
      <g>
       <use xlink:href="#m11276d53b6" x="293.689063" y="102.461362" style="stroke: #000000; stroke-width: 0.8"/>
      </g>
     </g>
     <g id="text_33">
      <!-- 22 -->
      <g transform="translate(274.409063 105.500737) scale(0.08 -0.08)">
       <use xlink:href="#DejaVuSans-32"/>
       <use xlink:href="#DejaVuSans-32" x="63.623047"/>
      </g>
     </g>
    </g>
    <g id="ytick_13">
     <g id="line2d_141">
      <g>
       <use xlink:href="#m11276d53b6" x="293.689063" y="81.437911" style="stroke: #000000; stroke-width: 0.8"/>
      </g>
     </g>
     <g id="text_34">
      <!-- 25 -->
      <g transform="translate(274.409063 84.477286) scale(0.08 -0.08)">
       <use xlink:href="#DejaVuSans-32"/>
       <use xlink:href="#DejaVuSans-35" x="63.623047"/>
      </g>
     </g>
    </g>
    <g id="ytick_14">
     <g id="line2d_142">
      <g>
       <use xlink:href="#m11276d53b6" x="293.689063" y="60.41446" style="stroke: #000000; stroke-width: 0.8"/>
      </g>
     </g>
     <g id="text_35">
      <!-- 27 -->
      <g transform="translate(274.409063 63.453835) scale(0.08 -0.08)">
       <use xlink:href="#DejaVuSans-32"/>
       <use xlink:href="#DejaVuSans-37" x="63.623047"/>
      </g>
     </g>
    </g>
    <g id="ytick_15">
     <g id="line2d_143">
      <g>
       <use xlink:href="#m11276d53b6" x="293.689063" y="39.39101" style="stroke: #000000; stroke-width: 0.8"/>
      </g>
     </g>
     <g id="text_36">
      <!-- 30 -->
      <g transform="translate(274.409063 42.430385) scale(0.08 -0.08)">
       <use xlink:href="#DejaVuSans-33"/>
       <use xlink:href="#DejaVuSans-30" x="63.623047"/>
      </g>
     </g>
    </g>
    <g id="ytick_16">
     <g id="line2d_144">
      <g>
       <use xlink:href="#m11276d53b6" x="293.689063" y="18.367559" style="stroke: #000000; stroke-width: 0.8"/>
      </g>
     </g>
     <g id="text_37">
      <!-- 32 -->
      <g transform="translate(274.409063 21.406934) scale(0.08 -0.08)">
       <use xlink:href="#DejaVuSans-33"/>
       <use xlink:href="#DejaVuSans-32" x="63.623047"/>
      </g>
     </g>
    </g>
    <g id="text_38">
     <!-- Hit Rate(%) -->
     <g transform="translate(267.913438 124.215937) rotate(-90) scale(0.12 -0.12)">
      <use xlink:href="#DejaVuSans-48"/>
      <use xlink:href="#DejaVuSans-69" x="75.195312"/>
      <use xlink:href="#DejaVuSans-74" x="102.978516"/>
      <use xlink:href="#DejaVuSans-20" x="142.1875"/>
      <use xlink:href="#DejaVuSans-52" x="173.974609"/>
      <use xlink:href="#DejaVuSans-61" x="241.207031"/>
      <use xlink:href="#DejaVuSans-74" x="302.486328"/>
      <use xlink:href="#DejaVuSans-65" x="341.695312"/>
      <use xlink:href="#DejaVuSans-28" x="403.21875"/>
      <use xlink:href="#DejaVuSans-25" x="442.232422"/>
      <use xlink:href="#DejaVuSans-29" x="537.251953"/>
     </g>
    </g>
   </g>
   <g id="line2d_145">
    <path d="M 302.83328 155.06624 
L 305.870923 155.067081 
L 308.908566 155.067081 
L 311.94621 155.067081 
L 314.983853 155.067081 
L 318.021496 155.125946 
L 321.05914 155.286565 
L 324.096783 155.489231 
L 327.134426 155.714603 
L 330.172069 155.963521 
L 333.209713 156.293168 
L 336.247356 156.655612 
L 339.284999 157.034876 
L 342.322642 157.340977 
L 345.360286 157.474686 
L 348.397929 157.349386 
L 351.435572 156.891916 
L 354.473216 155.952588 
L 357.510859 154.334624 
L 360.548502 151.848811 
L 363.586145 148.369009 
L 366.623789 143.943152 
L 369.661432 139.047211 
L 372.699075 133.18335 
L 375.736718 127.14962 
L 378.774362 120.973771 
L 381.812005 115.142707 
L 384.849648 110.38468 
L 387.887292 106.600459 
L 390.924935 103.769861 
L 393.962578 101.551467 
L 397.000221 99.748496 
L 400.037865 98.746097 
L 403.075508 98.340765 
L 406.113151 98.309651 
L 409.150794 98.76628 
L 412.188438 99.604695 
L 415.226081 100.900581 
L 418.263724 102.620299 
L 421.301367 104.652005 
L 424.339011 107.240412 
L 427.376654 109.978507 
L 430.414297 113.127819 
L 433.451941 116.426819 
L 436.489584 119.864574 
L 439.527227 123.325034 
L 442.56487 126.559282 
L 445.602514 130.124018 
L 448.640157 133.544113 
L 451.6778 136.761542 
L 454.715443 139.788919 
L 457.753087 142.734724 
L 460.79073 145.810035 
L 463.828373 148.859276 
L 466.866017 151.761353 
L 469.90366 154.42965 
L 472.941303 156.709433 
L 475.978946 158.544359 
L 479.01659 160.084117 
L 482.054233 161.312727 
" clip-path="url(#pc2787d2718)" style="fill: none; stroke-dasharray: 5.18,2.24; stroke-dashoffset: 0; stroke: #4c90b0; stroke-width: 1.4"/>
   </g>
   <g id="line2d_146">
    <path d="M 302.83328 89.93559 
L 305.870923 89.93559 
L 308.908566 89.937272 
L 311.94621 89.937272 
L 314.983853 89.938113 
L 318.021496 89.94484 
L 321.05914 89.984364 
L 324.096783 90.078549 
L 327.134426 90.190394 
L 330.172069 90.247578 
L 333.209713 90.314853 
L 336.247356 90.393901 
L 339.284999 90.465381 
L 342.322642 90.534338 
L 345.360286 90.516678 
L 348.397929 90.422493 
L 351.435572 90.182825 
L 354.473216 89.784221 
L 357.510859 89.190519 
L 360.548502 88.369763 
L 363.586145 87.200018 
L 366.623789 85.746036 
L 369.661432 84.283645 
L 372.699075 82.621952 
L 375.736718 80.850095 
L 378.774362 78.911733 
L 381.812005 77.209675 
L 384.849648 75.413431 
L 387.887292 73.624756 
L 390.924935 71.620801 
L 393.962578 69.799329 
L 397.000221 68.400849 
L 400.037865 68.090543 
L 403.075508 68.378143 
L 406.113151 68.619493 
L 409.150794 69.045848 
L 412.188438 69.28047 
L 415.226081 69.292243 
L 418.263724 69.915378 
L 421.301367 70.575515 
L 424.339011 71.990813 
L 427.376654 73.739123 
L 430.414297 75.486593 
L 433.451941 77.32236 
L 436.489584 79.943564 
L 439.527227 82.310805 
L 442.56487 85.142243 
L 445.602514 87.514529 
L 448.640157 89.527735 
L 451.6778 91.17345 
L 454.715443 92.550066 
L 457.753087 93.637399 
L 460.79073 94.438813 
L 463.828373 95.141837 
L 466.866017 95.6649 
L 469.90366 96.052573 
L 472.941303 96.406608 
L 475.978946 96.711027 
L 479.01659 96.909489 
L 482.054233 97.062539 
" clip-path="url(#pc2787d2718)" style="fill: none; stroke-dasharray: 1.4,2.31; stroke-dashoffset: 0; stroke: #55a868; stroke-width: 1.4"/>
   </g>
   <g id="line2d_147">
    <path d="M 302.83328 74.37235 
L 305.870923 74.37235 
L 308.908566 74.371509 
L 311.94621 74.37235 
L 314.983853 74.37235 
L 318.021496 74.371509 
L 321.05914 74.383282 
L 324.096783 74.422806 
L 327.134426 74.511104 
L 330.172069 74.56072 
L 333.209713 74.606971 
L 336.247356 74.629677 
L 339.284999 74.633881 
L 342.322642 74.610335 
L 345.360286 74.548106 
L 348.397929 74.469899 
L 351.435572 74.28321 
L 354.473216 73.972904 
L 357.510859 73.501979 
L 360.548502 72.907436 
L 363.586145 72.234685 
L 366.623789 71.614914 
L 369.661432 70.686518 
L 372.699075 68.986142 
L 375.736718 67.161306 
L 378.774362 65.199398 
L 381.812005 63.168532 
L 384.849648 60.975366 
L 387.887292 58.517304 
L 390.924935 56.393095 
L 393.962578 55.063572 
L 397.000221 53.010842 
L 400.037865 52.02274 
L 403.075508 50.887474 
L 406.113151 49.401536 
L 409.150794 48.846517 
L 412.188438 48.103128 
L 415.226081 47.87187 
L 418.263724 48.510142 
L 421.301367 50.641079 
L 424.339011 52.967113 
L 427.376654 55.580749 
L 430.414297 58.458439 
L 433.451941 60.321116 
L 436.489584 62.065222 
L 439.527227 63.925377 
L 442.56487 66.49276 
L 445.602514 67.202512 
L 448.640157 68.521103 
L 451.6778 69.838853 
L 454.715443 71.205377 
L 457.753087 71.350018 
L 460.79073 72.77709 
L 463.828373 73.263152 
L 466.866017 73.639052 
L 469.90366 73.93338 
L 472.941303 74.22014 
L 475.978946 74.765068 
L 479.01659 74.559879 
L 482.054233 75.057714 
" clip-path="url(#pc2787d2718)" style="fill: none; stroke-dasharray: 8.96,2.24,1.4,2.24; stroke-dashoffset: 0; stroke: #c44e52; stroke-width: 1.4"/>
   </g>
   <g id="line2d_148">
    <path d="M 302.83328 54.830632 
L 305.870923 54.830632 
L 308.908566 54.830632 
L 311.94621 54.830632 
L 314.983853 54.831473 
L 318.021496 54.832314 
L 321.05914 54.853337 
L 324.096783 54.867633 
L 327.134426 54.946681 
L 330.172069 55.024889 
L 333.209713 55.047594 
L 336.247356 55.048435 
L 339.284999 55.038344 
L 342.322642 54.976955 
L 345.360286 54.878565 
L 348.397929 54.347093 
L 351.435572 54.056969 
L 354.473216 54.122562 
L 357.510859 53.861871 
L 360.548502 52.92843 
L 363.586145 51.545087 
L 366.623789 50.43589 
L 369.661432 46.809765 
L 372.699075 43.189527 
L 375.736718 38.698918 
L 378.774362 35.790113 
L 381.812005 33.749998 
L 384.849648 28.717824 
L 387.887292 25.322117 
L 390.924935 20.724709 
L 393.962578 20.41272 
L 397.000221 20.666684 
L 400.037865 19.834155 
L 403.075508 18.576112 
L 406.113151 18.769528 
L 409.150794 17.967273 
L 412.188438 19.85686 
L 415.226081 21.879316 
L 418.263724 23.448507 
L 421.301367 25.412097 
L 424.339011 28.79435 
L 427.376654 30.630117 
L 430.414297 31.988232 
L 433.451941 35.23173 
L 436.489584 36.514161 
L 439.527227 38.230515 
L 442.56487 39.473422 
L 445.602514 40.862651 
L 448.640157 41.573244 
L 451.6778 42.677396 
L 454.715443 42.83381 
L 457.753087 43.179436 
L 460.79073 43.472082 
L 463.828373 43.73025 
L 466.866017 43.80173 
L 469.90366 44.096899 
L 472.941303 44.167538 
L 475.978946 44.091853 
L 479.01659 44.228085 
L 482.054233 44.344135 
" clip-path="url(#pc2787d2718)" style="fill: none; stroke-dasharray: 5.18,2.24; stroke-dashoffset: 0; stroke: #8172b2; stroke-width: 1.4"/>
   </g>
   <g id="patch_9">
    <path d="M 293.689063 168.48 
L 293.689063 10.8 
" style="fill: none; stroke: #000000; stroke-width: 0.8; stroke-linejoin: miter; stroke-linecap: square"/>
   </g>
   <g id="patch_10">
    <path d="M 491.19845 168.48 
L 491.19845 10.8 
" style="fill: none; stroke: #000000; stroke-width: 0.8; stroke-linejoin: miter; stroke-linecap: square"/>
   </g>
   <g id="patch_11">
    <path d="M 293.689063 168.48 
L 491.19845 168.48 
" style="fill: none; stroke: #000000; stroke-width: 0.8; stroke-linejoin: miter; stroke-linecap: square"/>
   </g>
   <g id="patch_12">
    <path d="M 293.689063 10.8 
L 491.19845 10.8 
" style="fill: none; stroke: #000000; stroke-width: 0.8; stroke-linejoin: miter; stroke-linecap: square"/>
   </g>
   <g id="legend_2">
    <g id="patch_13">
     <path d="M 299.289063 64.17 
L 361.436563 64.17 
Q 363.036563 64.17 363.036563 62.57 
L 363.036563 16.4 
Q 363.036563 14.8 361.436563 14.8 
L 299.289063 14.8 
Q 297.689063 14.8 297.689063 16.4 
L 297.689063 62.57 
Q 297.689063 64.17 299.289063 64.17 
z
" style="fill: #ffffff; opacity: 0.8; stroke: #cccccc; stroke-width: 0.24; stroke-linejoin: miter"/>
    </g>
    <g id="line2d_149">
     <path d="M 300.889063 21.27875 
L 308.889063 21.27875 
L 316.889063 21.27875 
" style="fill: none; stroke-dasharray: 5.18,2.24; stroke-dashoffset: 0; stroke: #4c90b0; stroke-width: 1.4"/>
    </g>
    <g id="text_39">
     <!-- c = 200 -->
     <g transform="translate(323.289063 24.07875) scale(0.08 -0.08)">
      <use xlink:href="#DejaVuSans-63"/>
      <use xlink:href="#DejaVuSans-20" x="54.980469"/>
      <use xlink:href="#DejaVuSans-3d" x="86.767578"/>
      <use xlink:href="#DejaVuSans-20" x="170.556641"/>
      <use xlink:href="#DejaVuSans-32" x="202.34375"/>
      <use xlink:href="#DejaVuSans-30" x="265.966797"/>
      <use xlink:href="#DejaVuSans-30" x="329.589844"/>
     </g>
    </g>
    <g id="line2d_150">
     <path d="M 300.889063 33.02125 
L 308.889063 33.02125 
L 316.889063 33.02125 
" style="fill: none; stroke-dasharray: 1.4,2.31; stroke-dashoffset: 0; stroke: #55a868; stroke-width: 1.4"/>
    </g>
    <g id="text_40">
     <!-- c = 1000 -->
     <g transform="translate(323.289063 35.82125) scale(0.08 -0.08)">
      <use xlink:href="#DejaVuSans-63"/>
      <use xlink:href="#DejaVuSans-20" x="54.980469"/>
      <use xlink:href="#DejaVuSans-3d" x="86.767578"/>
      <use xlink:href="#DejaVuSans-20" x="170.556641"/>
      <use xlink:href="#DejaVuSans-31" x="202.34375"/>
      <use xlink:href="#DejaVuSans-30" x="265.966797"/>
      <use xlink:href="#DejaVuSans-30" x="329.589844"/>
      <use xlink:href="#DejaVuSans-30" x="393.212891"/>
     </g>
    </g>
    <g id="line2d_151">
     <path d="M 300.889063 44.76375 
L 308.889063 44.76375 
L 316.889063 44.76375 
" style="fill: none; stroke-dasharray: 8.96,2.24,1.4,2.24; stroke-dashoffset: 0; stroke: #c44e52; stroke-width: 1.4"/>
    </g>
    <g id="text_41">
     <!-- c = 2000 -->
     <g transform="translate(323.289063 47.56375) scale(0.08 -0.08)">
      <use xlink:href="#DejaVuSans-63"/>
      <use xlink:href="#DejaVuSans-20" x="54.980469"/>
      <use xlink:href="#DejaVuSans-3d" x="86.767578"/>
      <use xlink:href="#DejaVuSans-20" x="170.556641"/>
      <use xlink:href="#DejaVuSans-32" x="202.34375"/>
      <use xlink:href="#DejaVuSans-30" x="265.966797"/>
      <use xlink:href="#DejaVuSans-30" x="329.589844"/>
      <use xlink:href="#DejaVuSans-30" x="393.212891"/>
     </g>
    </g>
    <g id="line2d_152">
     <path d="M 300.889063 56.50625 
L 308.889063 56.50625 
L 316.889063 56.50625 
" style="fill: none; stroke-dasharray: 5.18,2.24; stroke-dashoffset: 0; stroke: #8172b2; stroke-width: 1.4"/>
    </g>
    <g id="text_42">
     <!-- c = 4000 -->
     <g transform="translate(323.289063 59.30625) scale(0.08 -0.08)">
      <use xlink:href="#DejaVuSans-63"/>
      <use xlink:href="#DejaVuSans-20" x="54.980469"/>
      <use xlink:href="#DejaVuSans-3d" x="86.767578"/>
      <use xlink:href="#DejaVuSans-20" x="170.556641"/>
      <use xlink:href="#DejaVuSans-34" x="202.34375"/>
      <use xlink:href="#DejaVuSans-30" x="265.966797"/>
      <use xlink:href="#DejaVuSans-30" x="329.589844"/>
      <use xlink:href="#DejaVuSans-30" x="393.212891"/>
     </g>
    </g>
   </g>
  </g>
 </g>
 <defs>
  <clipPath id="p018bb20e51">
   <rect x="47.12" y="10.8" width="197.509388" height="157.68"/>
  </clipPath>
  <clipPath id="pc2787d2718">
   <rect x="293.689063" y="10.8" width="197.509388" height="157.68"/>
  </clipPath>
 </defs>
</svg>
