<?xml version="1.0" encoding="utf-8" standalone="no"?>
<!DOCTYPE svg PUBLIC "-//W3C//DTD SVG 1.1//EN"
  "http://www.w3.org/Graphics/SVG/1.1/DTD/svg11.dtd">
<svg xmlns:xlink="http://www.w3.org/1999/xlink" width="480pt" height="210pt" viewBox="0 0 480 210" xmlns="http://www.w3.org/2000/svg" version="1.1">
 <metadata>
  <rdf:RDF xmlns:dc="http://purl.org/dc/elements/1.1/" xmlns:cc="http://creativecommons.org/ns#" xmlns:rdf="http://www.w3.org/1999/02/22-rdf-syntax-ns#">
   <cc:Work>
    <dc:type rdf:resource="http://purl.org/dc/dcmitype/StillImage"/>
    <dc:date>2024-03-15T12:56:22.365793</dc:date>
    <dc:format>image/svg+xml</dc:format>
    <dc:creator>
     <cc:Agent>
      <dc:title>Matplotlib v3.8.0, https://matplotlib.org/</dc:title>
     </cc:Agent>
    </dc:creator>
   </cc:Work>
  </rdf:RDF>
 </metadata>
 <defs>
  <style type="text/css">*{stroke-linejoin: round; stroke-linecap: butt}</style>
 </defs>
 <g id="figure_1">
  <g id="patch_1">
   <path d="M 0 210 
L 480 210 
L 480 0 
L 0 0 
z
" style="fill: #ffffff"/>
  </g>
  <g id="axes_1">
   <g id="patch_2">
    <path d="M 52.07 161.7 
L 243.08 161.7 
L 243.08 27.3 
L 52.07 27.3 
z
" style="fill: #ffffff"/>
   </g>
   <g id="PathCollection_1">
    <defs>
     <path id="m704c9bb05d" d="M 0 -2.8 
L -2.8 2.8 
L 2.8 2.8 
z
" style="stroke: #c44e52; stroke-width: 0.24"/>
    </defs>
    <g clip-path="url(#pb5207e3d80)">
     <use xlink:href="#m704c9bb05d" x="134.35542" y="97.24496" style="fill: #c44e52; stroke: #c44e52; stroke-width: 0.24"/>
    </g>
   </g>
   <g id="PathCollection_2">
    <defs>
     <path id="mb334a0ef77" d="M 0 -2.8 
L -2.8 2.8 
L 2.8 2.8 
z
" style="stroke: #8172b2; stroke-width: 0.24"/>
    </defs>
    <g clip-path="url(#pb5207e3d80)">
     <use xlink:href="#mb334a0ef77" x="104.978577" y="73.8312" style="fill: #8172b2; stroke: #8172b2; stroke-width: 0.24"/>
    </g>
   </g>
   <g id="PathCollection_3">
    <defs>
     <path id="me2495b1c69" d="M 0 -2.8 
L -2.8 2.8 
L 2.8 2.8 
z
" style="stroke: #ccb974; stroke-width: 0.24"/>
    </defs>
    <g clip-path="url(#pb5207e3d80)">
     <use xlink:href="#me2495b1c69" x="99.103208" y="56.28816" style="fill: #ccb974; stroke: #ccb974; stroke-width: 0.24"/>
    </g>
   </g>
   <g id="PathCollection_4">
    <defs>
     <path id="mbf97f23a8b" d="M 0 -2.8 
L -2.8 2.8 
L 2.8 2.8 
z
" style="stroke: #86a38d; stroke-width: 0.24"/>
    </defs>
    <g clip-path="url(#pb5207e3d80)">
     <use xlink:href="#mbf97f23a8b" x="93.227839" y="34.61712" style="fill: #86a38d; stroke: #86a38d; stroke-width: 0.24"/>
    </g>
   </g>
   <g id="matplotlib.axis_1">
    <g id="xtick_1">
     <g id="line2d_1">
      <defs>
       <path id="md6beafa46d" d="M 0 0 
L 0 3.5 
" style="stroke: #000000; stroke-width: 0.8"/>
      </defs>
      <g>
       <use xlink:href="#md6beafa46d" x="90.290155" y="161.7" style="stroke: #000000; stroke-width: 0.8"/>
      </g>
     </g>
     <g id="text_1">
      <!-- $\mathdefault{10^{-5}}$ -->
      <g transform="translate(76.190155 179.918125) scale(0.12 -0.12)">
       <defs>
        <path id="DejaVuSans-31" d="M 794 531 
L 1825 531 
L 1825 4091 
L 703 3866 
L 703 4441 
L 1819 4666 
L 2450 4666 
L 2450 531 
L 3481 531 
L 3481 0 
L 794 0 
L 794 531 
z
" transform="scale(0.015625)"/>
        <path id="DejaVuSans-30" d="M 2034 4250 
Q 1547 4250 1301 3770 
Q 1056 3291 1056 2328 
Q 1056 1369 1301 889 
Q 1547 409 2034 409 
Q 2525 409 2770 889 
Q 3016 1369 3016 2328 
Q 3016 3291 2770 3770 
Q 2525 4250 2034 4250 
z
M 2034 4750 
Q 2819 4750 3233 4129 
Q 3647 3509 3647 2328 
Q 3647 1150 3233 529 
Q 2819 -91 2034 -91 
Q 1250 -91 836 529 
Q 422 1150 422 2328 
Q 422 3509 836 4129 
Q 1250 4750 2034 4750 
z
" transform="scale(0.015625)"/>
        <path id="DejaVuSans-2212" d="M 678 2272 
L 4684 2272 
L 4684 1741 
L 678 1741 
L 678 2272 
z
" transform="scale(0.015625)"/>
        <path id="DejaVuSans-35" d="M 691 4666 
L 3169 4666 
L 3169 4134 
L 1269 4134 
L 1269 2991 
Q 1406 3038 1543 3061 
Q 1681 3084 1819 3084 
Q 2600 3084 3056 2656 
Q 3513 2228 3513 1497 
Q 3513 744 3044 326 
Q 2575 -91 1722 -91 
Q 1428 -91 1123 -41 
Q 819 9 494 109 
L 494 744 
Q 775 591 1075 516 
Q 1375 441 1709 441 
Q 2250 441 2565 725 
Q 2881 1009 2881 1497 
Q 2881 1984 2565 2268 
Q 2250 2553 1709 2553 
Q 1456 2553 1204 2497 
Q 953 2441 691 2322 
L 691 4666 
z
" transform="scale(0.015625)"/>
       </defs>
       <use xlink:href="#DejaVuSans-31" transform="translate(0 0.684375)"/>
       <use xlink:href="#DejaVuSans-30" transform="translate(63.623047 0.684375)"/>
       <use xlink:href="#DejaVuSans-2212" transform="translate(128.203125 38.965625) scale(0.7)"/>
       <use xlink:href="#DejaVuSans-35" transform="translate(186.855469 38.965625) scale(0.7)"/>
      </g>
     </g>
    </g>
    <g id="xtick_2">
     <g id="line2d_2">
      <g>
       <use xlink:href="#md6beafa46d" x="149.043842" y="161.7" style="stroke: #000000; stroke-width: 0.8"/>
      </g>
     </g>
     <g id="text_2">
      <!-- $\mathdefault{10^{-3}}$ -->
      <g transform="translate(134.943842 179.918125) scale(0.12 -0.12)">
       <defs>
        <path id="DejaVuSans-33" d="M 2597 2516 
Q 3050 2419 3304 2112 
Q 3559 1806 3559 1356 
Q 3559 666 3084 287 
Q 2609 -91 1734 -91 
Q 1441 -91 1130 -33 
Q 819 25 488 141 
L 488 750 
Q 750 597 1062 519 
Q 1375 441 1716 441 
Q 2309 441 2620 675 
Q 2931 909 2931 1356 
Q 2931 1769 2642 2001 
Q 2353 2234 1838 2234 
L 1294 2234 
L 1294 2753 
L 1863 2753 
Q 2328 2753 2575 2939 
Q 2822 3125 2822 3475 
Q 2822 3834 2567 4026 
Q 2313 4219 1838 4219 
Q 1578 4219 1281 4162 
Q 984 4106 628 3988 
L 628 4550 
Q 988 4650 1302 4700 
Q 1616 4750 1894 4750 
Q 2613 4750 3031 4423 
Q 3450 4097 3450 3541 
Q 3450 3153 3228 2886 
Q 3006 2619 2597 2516 
z
" transform="scale(0.015625)"/>
       </defs>
       <use xlink:href="#DejaVuSans-31" transform="translate(0 0.765625)"/>
       <use xlink:href="#DejaVuSans-30" transform="translate(63.623047 0.765625)"/>
       <use xlink:href="#DejaVuSans-2212" transform="translate(128.203125 39.046875) scale(0.7)"/>
       <use xlink:href="#DejaVuSans-33" transform="translate(186.855469 39.046875) scale(0.7)"/>
      </g>
     </g>
    </g>
    <g id="xtick_3">
     <g id="line2d_3">
      <g>
       <use xlink:href="#md6beafa46d" x="207.79753" y="161.7" style="stroke: #000000; stroke-width: 0.8"/>
      </g>
     </g>
     <g id="text_3">
      <!-- $\mathdefault{10^{-1}}$ -->
      <g transform="translate(193.69753 179.918125) scale(0.12 -0.12)">
       <use xlink:href="#DejaVuSans-31" transform="translate(0 0.684375)"/>
       <use xlink:href="#DejaVuSans-30" transform="translate(63.623047 0.684375)"/>
       <use xlink:href="#DejaVuSans-2212" transform="translate(128.203125 38.965625) scale(0.7)"/>
       <use xlink:href="#DejaVuSans-31" transform="translate(186.855469 38.965625) scale(0.7)"/>
      </g>
     </g>
    </g>
    <g id="text_4">
     <!-- (a) Parameter with $\lambda$ -->
     <g transform="translate(85.715 195.531875) scale(0.12 -0.12)">
      <defs>
       <path id="DejaVuSans-28" d="M 1984 4856 
Q 1566 4138 1362 3434 
Q 1159 2731 1159 2009 
Q 1159 1288 1364 580 
Q 1569 -128 1984 -844 
L 1484 -844 
Q 1016 -109 783 600 
Q 550 1309 550 2009 
Q 550 2706 781 3412 
Q 1013 4119 1484 4856 
L 1984 4856 
z
" transform="scale(0.015625)"/>
       <path id="DejaVuSans-61" d="M 2194 1759 
Q 1497 1759 1228 1600 
Q 959 1441 959 1056 
Q 959 750 1161 570 
Q 1363 391 1709 391 
Q 2188 391 2477 730 
Q 2766 1069 2766 1631 
L 2766 1759 
L 2194 1759 
z
M 3341 1997 
L 3341 0 
L 2766 0 
L 2766 531 
Q 2569 213 2275 61 
Q 1981 -91 1556 -91 
Q 1019 -91 701 211 
Q 384 513 384 1019 
Q 384 1609 779 1909 
Q 1175 2209 1959 2209 
L 2766 2209 
L 2766 2266 
Q 2766 2663 2505 2880 
Q 2244 3097 1772 3097 
Q 1472 3097 1187 3025 
Q 903 2953 641 2809 
L 641 3341 
Q 956 3463 1253 3523 
Q 1550 3584 1831 3584 
Q 2591 3584 2966 3190 
Q 3341 2797 3341 1997 
z
" transform="scale(0.015625)"/>
       <path id="DejaVuSans-29" d="M 513 4856 
L 1013 4856 
Q 1481 4119 1714 3412 
Q 1947 2706 1947 2009 
Q 1947 1309 1714 600 
Q 1481 -109 1013 -844 
L 513 -844 
Q 928 -128 1133 580 
Q 1338 1288 1338 2009 
Q 1338 2731 1133 3434 
Q 928 4138 513 4856 
z
" transform="scale(0.015625)"/>
       <path id="DejaVuSans-20" transform="scale(0.015625)"/>
       <path id="DejaVuSans-50" d="M 1259 4147 
L 1259 2394 
L 2053 2394 
Q 2494 2394 2734 2622 
Q 2975 2850 2975 3272 
Q 2975 3691 2734 3919 
Q 2494 4147 2053 4147 
L 1259 4147 
z
M 628 4666 
L 2053 4666 
Q 2838 4666 3239 4311 
Q 3641 3956 3641 3272 
Q 3641 2581 3239 2228 
Q 2838 1875 2053 1875 
L 1259 1875 
L 1259 0 
L 628 0 
L 628 4666 
z
" transform="scale(0.015625)"/>
       <path id="DejaVuSans-72" d="M 2631 2963 
Q 2534 3019 2420 3045 
Q 2306 3072 2169 3072 
Q 1681 3072 1420 2755 
Q 1159 2438 1159 1844 
L 1159 0 
L 581 0 
L 581 3500 
L 1159 3500 
L 1159 2956 
Q 1341 3275 1631 3429 
Q 1922 3584 2338 3584 
Q 2397 3584 2469 3576 
Q 2541 3569 2628 3553 
L 2631 2963 
z
" transform="scale(0.015625)"/>
       <path id="DejaVuSans-6d" d="M 3328 2828 
Q 3544 3216 3844 3400 
Q 4144 3584 4550 3584 
Q 5097 3584 5394 3201 
Q 5691 2819 5691 2113 
L 5691 0 
L 5113 0 
L 5113 2094 
Q 5113 2597 4934 2840 
Q 4756 3084 4391 3084 
Q 3944 3084 3684 2787 
Q 3425 2491 3425 1978 
L 3425 0 
L 2847 0 
L 2847 2094 
Q 2847 2600 2669 2842 
Q 2491 3084 2119 3084 
Q 1678 3084 1418 2786 
Q 1159 2488 1159 1978 
L 1159 0 
L 581 0 
L 581 3500 
L 1159 3500 
L 1159 2956 
Q 1356 3278 1631 3431 
Q 1906 3584 2284 3584 
Q 2666 3584 2933 3390 
Q 3200 3197 3328 2828 
z
" transform="scale(0.015625)"/>
       <path id="DejaVuSans-65" d="M 3597 1894 
L 3597 1613 
L 953 1613 
Q 991 1019 1311 708 
Q 1631 397 2203 397 
Q 2534 397 2845 478 
Q 3156 559 3463 722 
L 3463 178 
Q 3153 47 2828 -22 
Q 2503 -91 2169 -91 
Q 1331 -91 842 396 
Q 353 884 353 1716 
Q 353 2575 817 3079 
Q 1281 3584 2069 3584 
Q 2775 3584 3186 3129 
Q 3597 2675 3597 1894 
z
M 3022 2063 
Q 3016 2534 2758 2815 
Q 2500 3097 2075 3097 
Q 1594 3097 1305 2825 
Q 1016 2553 972 2059 
L 3022 2063 
z
" transform="scale(0.015625)"/>
       <path id="DejaVuSans-74" d="M 1172 4494 
L 1172 3500 
L 2356 3500 
L 2356 3053 
L 1172 3053 
L 1172 1153 
Q 1172 725 1289 603 
Q 1406 481 1766 481 
L 2356 481 
L 2356 0 
L 1766 0 
Q 1100 0 847 248 
Q 594 497 594 1153 
L 594 3053 
L 172 3053 
L 172 3500 
L 594 3500 
L 594 4494 
L 1172 4494 
z
" transform="scale(0.015625)"/>
       <path id="DejaVuSans-77" d="M 269 3500 
L 844 3500 
L 1563 769 
L 2278 3500 
L 2956 3500 
L 3675 769 
L 4391 3500 
L 4966 3500 
L 4050 0 
L 3372 0 
L 2619 2869 
L 1863 0 
L 1184 0 
L 269 3500 
z
" transform="scale(0.015625)"/>
       <path id="DejaVuSans-69" d="M 603 3500 
L 1178 3500 
L 1178 0 
L 603 0 
L 603 3500 
z
M 603 4863 
L 1178 4863 
L 1178 4134 
L 603 4134 
L 603 4863 
z
" transform="scale(0.015625)"/>
       <path id="DejaVuSans-68" d="M 3513 2113 
L 3513 0 
L 2938 0 
L 2938 2094 
Q 2938 2591 2744 2837 
Q 2550 3084 2163 3084 
Q 1697 3084 1428 2787 
Q 1159 2491 1159 1978 
L 1159 0 
L 581 0 
L 581 4863 
L 1159 4863 
L 1159 2956 
Q 1366 3272 1645 3428 
Q 1925 3584 2291 3584 
Q 2894 3584 3203 3211 
Q 3513 2838 3513 2113 
z
" transform="scale(0.015625)"/>
       <path id="DejaVuSans-Oblique-3bb" d="M 2350 4316 
L 3125 0 
L 2516 0 
L 2038 2588 
L 328 0 
L -281 0 
L 1903 3356 
L 1794 3975 
Q 1725 4369 1391 4369 
L 1091 4369 
L 1184 4863 
L 1550 4856 
Q 2253 4847 2350 4316 
z
" transform="scale(0.015625)"/>
      </defs>
      <use xlink:href="#DejaVuSans-28" transform="translate(0 0.015625)"/>
      <use xlink:href="#DejaVuSans-61" transform="translate(39.013672 0.015625)"/>
      <use xlink:href="#DejaVuSans-29" transform="translate(100.292969 0.015625)"/>
      <use xlink:href="#DejaVuSans-20" transform="translate(139.306641 0.015625)"/>
      <use xlink:href="#DejaVuSans-50" transform="translate(171.09375 0.015625)"/>
      <use xlink:href="#DejaVuSans-61" transform="translate(231.396484 0.015625)"/>
      <use xlink:href="#DejaVuSans-72" transform="translate(292.675781 0.015625)"/>
      <use xlink:href="#DejaVuSans-61" transform="translate(333.789062 0.015625)"/>
      <use xlink:href="#DejaVuSans-6d" transform="translate(395.068359 0.015625)"/>
      <use xlink:href="#DejaVuSans-65" transform="translate(492.480469 0.015625)"/>
      <use xlink:href="#DejaVuSans-74" transform="translate(554.003906 0.015625)"/>
      <use xlink:href="#DejaVuSans-65" transform="translate(593.212891 0.015625)"/>
      <use xlink:href="#DejaVuSans-72" transform="translate(654.736328 0.015625)"/>
      <use xlink:href="#DejaVuSans-20" transform="translate(695.849609 0.015625)"/>
      <use xlink:href="#DejaVuSans-77" transform="translate(727.636719 0.015625)"/>
      <use xlink:href="#DejaVuSans-69" transform="translate(809.423828 0.015625)"/>
      <use xlink:href="#DejaVuSans-74" transform="translate(837.207031 0.015625)"/>
      <use xlink:href="#DejaVuSans-68" transform="translate(876.416016 0.015625)"/>
      <use xlink:href="#DejaVuSans-20" transform="translate(939.794922 0.015625)"/>
      <use xlink:href="#DejaVuSans-Oblique-3bb" transform="translate(971.582031 0.015625)"/>
     </g>
    </g>
   </g>
   <g id="matplotlib.axis_2">
    <g id="ytick_1">
     <g id="line2d_4">
      <defs>
       <path id="m1d1d496c1e" d="M 0 0 
L -3.5 0 
" style="stroke: #000000; stroke-width: 0.8"/>
      </defs>
      <g>
       <use xlink:href="#m1d1d496c1e" x="52.07" y="148.9" style="stroke: #000000; stroke-width: 0.8"/>
      </g>
     </g>
     <g id="text_5">
      <!-- 15 -->
      <g transform="translate(27.7 153.459063) scale(0.12 -0.12)">
       <use xlink:href="#DejaVuSans-31"/>
       <use xlink:href="#DejaVuSans-35" x="63.623047"/>
      </g>
     </g>
    </g>
    <g id="ytick_2">
     <g id="line2d_5">
      <g>
       <use xlink:href="#m1d1d496c1e" x="52.07" y="116.9" style="stroke: #000000; stroke-width: 0.8"/>
      </g>
     </g>
     <g id="text_6">
      <!-- 20 -->
      <g transform="translate(27.7 121.459063) scale(0.12 -0.12)">
       <defs>
        <path id="DejaVuSans-32" d="M 1228 531 
L 3431 531 
L 3431 0 
L 469 0 
L 469 531 
Q 828 903 1448 1529 
Q 2069 2156 2228 2338 
Q 2531 2678 2651 2914 
Q 2772 3150 2772 3378 
Q 2772 3750 2511 3984 
Q 2250 4219 1831 4219 
Q 1534 4219 1204 4116 
Q 875 4013 500 3803 
L 500 4441 
Q 881 4594 1212 4672 
Q 1544 4750 1819 4750 
Q 2544 4750 2975 4387 
Q 3406 4025 3406 3419 
Q 3406 3131 3298 2873 
Q 3191 2616 2906 2266 
Q 2828 2175 2409 1742 
Q 1991 1309 1228 531 
z
" transform="scale(0.015625)"/>
       </defs>
       <use xlink:href="#DejaVuSans-32"/>
       <use xlink:href="#DejaVuSans-30" x="63.623047"/>
      </g>
     </g>
    </g>
    <g id="ytick_3">
     <g id="line2d_6">
      <g>
       <use xlink:href="#m1d1d496c1e" x="52.07" y="84.9" style="stroke: #000000; stroke-width: 0.8"/>
      </g>
     </g>
     <g id="text_7">
      <!-- 25 -->
      <g transform="translate(27.7 89.459063) scale(0.12 -0.12)">
       <use xlink:href="#DejaVuSans-32"/>
       <use xlink:href="#DejaVuSans-35" x="63.623047"/>
      </g>
     </g>
    </g>
    <g id="ytick_4">
     <g id="line2d_7">
      <g>
       <use xlink:href="#m1d1d496c1e" x="52.07" y="52.9" style="stroke: #000000; stroke-width: 0.8"/>
      </g>
     </g>
     <g id="text_8">
      <!-- 30 -->
      <g transform="translate(27.7 57.459063) scale(0.12 -0.12)">
       <use xlink:href="#DejaVuSans-33"/>
       <use xlink:href="#DejaVuSans-30" x="63.623047"/>
      </g>
     </g>
    </g>
    <g id="text_9">
     <!-- Hit Rate(%) -->
     <g transform="translate(21.204375 129.075938) rotate(-90) scale(0.12 -0.12)">
      <defs>
       <path id="DejaVuSans-48" d="M 628 4666 
L 1259 4666 
L 1259 2753 
L 3553 2753 
L 3553 4666 
L 4184 4666 
L 4184 0 
L 3553 0 
L 3553 2222 
L 1259 2222 
L 1259 0 
L 628 0 
L 628 4666 
z
" transform="scale(0.015625)"/>
       <path id="DejaVuSans-52" d="M 2841 2188 
Q 3044 2119 3236 1894 
Q 3428 1669 3622 1275 
L 4263 0 
L 3584 0 
L 2988 1197 
Q 2756 1666 2539 1819 
Q 2322 1972 1947 1972 
L 1259 1972 
L 1259 0 
L 628 0 
L 628 4666 
L 2053 4666 
Q 2853 4666 3247 4331 
Q 3641 3997 3641 3322 
Q 3641 2881 3436 2590 
Q 3231 2300 2841 2188 
z
M 1259 4147 
L 1259 2491 
L 2053 2491 
Q 2509 2491 2742 2702 
Q 2975 2913 2975 3322 
Q 2975 3731 2742 3939 
Q 2509 4147 2053 4147 
L 1259 4147 
z
" transform="scale(0.015625)"/>
       <path id="DejaVuSans-25" d="M 4653 2053 
Q 4381 2053 4226 1822 
Q 4072 1591 4072 1178 
Q 4072 772 4226 539 
Q 4381 306 4653 306 
Q 4919 306 5073 539 
Q 5228 772 5228 1178 
Q 5228 1588 5073 1820 
Q 4919 2053 4653 2053 
z
M 4653 2450 
Q 5147 2450 5437 2106 
Q 5728 1763 5728 1178 
Q 5728 594 5436 251 
Q 5144 -91 4653 -91 
Q 4153 -91 3862 251 
Q 3572 594 3572 1178 
Q 3572 1766 3864 2108 
Q 4156 2450 4653 2450 
z
M 1428 4353 
Q 1159 4353 1004 4120 
Q 850 3888 850 3481 
Q 850 3069 1003 2837 
Q 1156 2606 1428 2606 
Q 1700 2606 1854 2837 
Q 2009 3069 2009 3481 
Q 2009 3884 1853 4118 
Q 1697 4353 1428 4353 
z
M 4250 4750 
L 4750 4750 
L 1831 -91 
L 1331 -91 
L 4250 4750 
z
M 1428 4750 
Q 1922 4750 2215 4408 
Q 2509 4066 2509 3481 
Q 2509 2891 2217 2550 
Q 1925 2209 1428 2209 
Q 931 2209 642 2551 
Q 353 2894 353 3481 
Q 353 4063 643 4406 
Q 934 4750 1428 4750 
z
" transform="scale(0.015625)"/>
      </defs>
      <use xlink:href="#DejaVuSans-48"/>
      <use xlink:href="#DejaVuSans-69" x="75.195312"/>
      <use xlink:href="#DejaVuSans-74" x="102.978516"/>
      <use xlink:href="#DejaVuSans-20" x="142.1875"/>
      <use xlink:href="#DejaVuSans-52" x="173.974609"/>
      <use xlink:href="#DejaVuSans-61" x="241.207031"/>
      <use xlink:href="#DejaVuSans-74" x="302.486328"/>
      <use xlink:href="#DejaVuSans-65" x="341.695312"/>
      <use xlink:href="#DejaVuSans-28" x="403.21875"/>
      <use xlink:href="#DejaVuSans-25" x="442.232422"/>
      <use xlink:href="#DejaVuSans-29" x="537.251953"/>
     </g>
    </g>
   </g>
   <g id="line2d_8">
    <path d="M 60.913311 150.02192 
L 63.850995 148.36432 
L 66.78868 146.39952 
L 69.726364 144.2088 
L 72.664049 141.88368 
L 75.601733 139.52848 
L 78.539417 137.10672 
L 81.477102 134.69008 
L 84.414786 132.27664 
L 87.35247 129.7736 
L 90.290155 127.06512 
L 93.227839 124.2568 
L 96.165524 121.40176 
L 99.103208 118.55056 
L 102.040892 115.9176 
L 104.978577 113.10736 
L 107.916261 110.5128 
L 110.853945 107.96432 
L 113.79163 105.54192 
L 116.729314 103.38064 
L 119.666998 101.52592 
L 122.604683 100.01488 
L 125.542367 98.81424 
L 128.480052 98.08272 
L 131.417736 97.47856 
L 134.35542 97.24496 
L 137.293105 97.3352 
L 140.230789 97.83184 
L 143.168473 98.99664 
L 146.106158 100.5224 
L 149.043842 102.39056 
L 151.981527 104.82896 
L 154.919211 107.80816 
L 157.856895 111.36208 
L 160.79458 115.72048 
L 163.732264 120.08272 
L 166.669948 124.30096 
L 169.607633 128.08592 
L 172.545317 131.34992 
L 175.483002 134.04688 
L 178.420686 136.27152 
L 181.35837 138.00144 
L 184.296055 139.22832 
L 187.233739 139.97648 
L 190.171423 140.4264 
L 193.109108 140.6664 
L 196.046792 140.79056 
L 198.984476 140.85584 
L 201.922161 140.88528 
L 204.859845 140.90128 
L 207.79753 140.916 
L 210.735214 140.92688 
L 213.672898 140.93264 
L 216.610583 140.9352 
L 219.548267 140.93648 
L 222.485951 140.93584 
L 225.423636 140.93584 
L 228.36132 140.93712 
L 231.299005 140.93712 
L 234.236689 140.9352 
" clip-path="url(#pb5207e3d80)" style="fill: none; stroke-dasharray: 5.18,2.24; stroke-dashoffset: 0; stroke: #c44e52; stroke-width: 1.4"/>
   </g>
   <g id="line2d_9">
    <path d="M 60.913311 97.41712 
L 63.850995 96.30928 
L 66.78868 94.99472 
L 69.726364 93.41136 
L 72.664049 91.65776 
L 75.601733 89.9048 
L 78.539417 87.95088 
L 81.477102 85.7224 
L 84.414786 83.54192 
L 87.35247 81.69744 
L 90.290155 79.54512 
L 93.227839 77.63408 
L 96.165524 76.07184 
L 99.103208 74.93712 
L 102.040892 73.9464 
L 104.978577 73.8312 
L 107.916261 74.2824 
L 110.853945 74.6536 
L 113.79163 74.39632 
L 116.729314 74.34512 
L 119.666998 74.53008 
L 122.604683 75.3544 
L 125.542367 76.66576 
L 128.480052 78.1064 
L 131.417736 79.44528 
L 134.35542 80.80272 
L 137.293105 82.02832 
L 140.230789 83.31408 
L 143.168473 84.59728 
L 146.106158 85.73776 
L 149.043842 86.87952 
L 151.981527 87.8696 
L 154.919211 88.72272 
L 157.856895 89.44528 
L 160.79458 90.02256 
L 163.732264 90.42704 
L 166.669948 90.7176 
L 169.607633 90.9096 
L 172.545317 91.06448 
L 175.483002 91.17072 
L 178.420686 91.23792 
L 181.35837 91.284 
L 184.296055 91.31408 
L 187.233739 91.3416 
L 190.171423 91.35632 
L 193.109108 91.36592 
L 196.046792 91.3672 
L 198.984476 91.3672 
L 201.922161 91.3672 
L 204.859845 91.3672 
L 207.79753 91.3672 
L 210.735214 91.3672 
L 213.672898 91.3672 
L 216.610583 91.3672 
L 219.548267 91.3672 
L 222.485951 91.3672 
L 225.423636 91.3672 
L 228.36132 91.3672 
L 231.299005 91.3672 
L 234.236689 91.3672 
" clip-path="url(#pb5207e3d80)" style="fill: none; stroke-dasharray: 1.4,2.31; stroke-dashoffset: 0; stroke: #8172b2; stroke-width: 1.4"/>
   </g>
   <g id="line2d_10">
    <path d="M 60.913311 78.16912 
L 63.850995 76.94352 
L 66.78868 75.6296 
L 69.726364 73.716 
L 72.664049 71.7 
L 75.601733 69.91504 
L 78.539417 67.9624 
L 81.477102 65.85104 
L 84.414786 63.03632 
L 87.35247 61.40816 
L 90.290155 59.33392 
L 93.227839 57.16112 
L 96.165524 56.44944 
L 99.103208 56.28816 
L 102.040892 56.35536 
L 104.978577 57.96176 
L 107.916261 60.196 
L 110.853945 61.79024 
L 113.79163 63.01136 
L 116.729314 64.9 
L 119.666998 66.32976 
L 122.604683 68.15696 
L 125.542367 69.7576 
L 128.480052 71.68528 
L 131.417736 73.21936 
L 134.35542 74.3432 
L 137.293105 75.58096 
L 140.230789 76.6024 
L 143.168473 77.22064 
L 146.106158 77.58096 
L 149.043842 78.01552 
L 151.981527 78.44624 
L 154.919211 78.80016 
L 157.856895 79.02096 
L 160.79458 79.1848 
L 163.732264 79.28656 
L 166.669948 79.36784 
L 169.607633 79.41648 
L 172.545317 79.45232 
L 175.483002 79.47728 
L 178.420686 79.49584 
L 181.35837 79.51504 
L 184.296055 79.52144 
L 187.233739 79.52208 
L 190.171423 79.52272 
L 193.109108 79.52208 
L 196.046792 79.52272 
L 198.984476 79.52272 
L 201.922161 79.52272 
L 204.859845 79.52272 
L 207.79753 79.52272 
L 210.735214 79.52272 
L 213.672898 79.52272 
L 216.610583 79.52272 
L 219.548267 79.52272 
L 222.485951 79.52272 
L 225.423636 79.52272 
L 228.36132 79.52272 
L 231.299005 79.52272 
L 234.236689 79.52272 
" clip-path="url(#pb5207e3d80)" style="fill: none; stroke-dasharray: 8.96,2.24,1.4,2.24; stroke-dashoffset: 0; stroke: #ccb974; stroke-width: 1.4"/>
   </g>
   <g id="line2d_11">
    <path d="M 60.913311 53.83888 
L 63.850995 52.45072 
L 66.78868 50.8584 
L 69.726364 49.22704 
L 72.664049 47.48752 
L 75.601733 45.80432 
L 78.539417 43.31792 
L 81.477102 41.3 
L 84.414786 39.09392 
L 87.35247 37.13616 
L 90.290155 35.32304 
L 93.227839 34.61712 
L 96.165524 35.21424 
L 99.103208 35.45232 
L 102.040892 36.27792 
L 104.978577 37.09648 
L 107.916261 38.38864 
L 110.853945 41.79472 
L 113.79163 44.484 
L 116.729314 47.35248 
L 119.666998 48.94352 
L 122.604683 51.41456 
L 125.542367 54.16272 
L 128.480052 56.94736 
L 131.417736 58.76432 
L 134.35542 60.65296 
L 137.293105 62.3624 
L 140.230789 63.27888 
L 143.168473 63.70128 
L 146.106158 64.02832 
L 149.043842 64.21904 
L 151.981527 64.34 
L 154.919211 64.436 
L 157.856895 64.49616 
L 160.79458 64.54672 
L 163.732264 64.57872 
L 166.669948 64.61008 
L 169.607633 64.63056 
L 172.545317 64.6376 
L 175.483002 64.64656 
L 178.420686 64.65104 
L 181.35837 64.6504 
L 184.296055 64.6504 
L 187.233739 64.6504 
L 190.171423 64.6504 
L 193.109108 64.6504 
L 196.046792 64.6504 
L 198.984476 64.6504 
L 201.922161 64.6504 
L 204.859845 64.6504 
L 207.79753 64.6504 
L 210.735214 64.6504 
L 213.672898 64.6504 
L 216.610583 64.6504 
L 219.548267 64.6504 
L 222.485951 64.6504 
L 225.423636 64.6504 
L 228.36132 64.6504 
L 231.299005 64.6504 
L 234.236689 64.6504 
" clip-path="url(#pb5207e3d80)" style="fill: none; stroke-dasharray: 5.18,2.24; stroke-dashoffset: 0; stroke: #86a38d; stroke-width: 1.4"/>
   </g>
   <g id="patch_3">
    <path d="M 52.07 161.7 
L 52.07 27.3 
" style="fill: none; stroke: #000000; stroke-width: 0.8; stroke-linejoin: miter; stroke-linecap: square"/>
   </g>
   <g id="patch_4">
    <path d="M 243.08 161.7 
L 243.08 27.3 
" style="fill: none; stroke: #000000; stroke-width: 0.8; stroke-linejoin: miter; stroke-linecap: square"/>
   </g>
   <g id="patch_5">
    <path d="M 52.07 161.7 
L 243.08 161.7 
" style="fill: none; stroke: #000000; stroke-width: 0.8; stroke-linejoin: miter; stroke-linecap: square"/>
   </g>
   <g id="patch_6">
    <path d="M 52.07 27.3 
L 243.08 27.3 
" style="fill: none; stroke: #000000; stroke-width: 0.8; stroke-linejoin: miter; stroke-linecap: square"/>
   </g>
  </g>
  <g id="axes_2">
   <g id="patch_7">
    <path d="M 278.19 161.7 
L 469.2 161.7 
L 469.2 27.3 
L 278.19 27.3 
z
" style="fill: #ffffff"/>
   </g>
   <g id="PathCollection_5">
    <g clip-path="url(#pf9a2a4c073)">
     <use xlink:href="#m704c9bb05d" x="386.91458" y="97.74032" style="fill: #c44e52; stroke: #c44e52; stroke-width: 0.24"/>
    </g>
   </g>
   <g id="PathCollection_6">
    <g clip-path="url(#pf9a2a4c073)">
     <use xlink:href="#mb334a0ef77" x="381.039211" y="74.74192" style="fill: #8172b2; stroke: #8172b2; stroke-width: 0.24"/>
    </g>
   </g>
   <g id="PathCollection_7">
    <g clip-path="url(#pf9a2a4c073)">
     <use xlink:href="#me2495b1c69" x="395.727633" y="59.3544" style="fill: #ccb974; stroke: #ccb974; stroke-width: 0.24"/>
    </g>
   </g>
   <g id="PathCollection_8">
    <g clip-path="url(#pf9a2a4c073)">
     <use xlink:href="#mbf97f23a8b" x="389.852264" y="36.59536" style="fill: #86a38d; stroke: #86a38d; stroke-width: 0.24"/>
    </g>
   </g>
   <g id="matplotlib.axis_3">
    <g id="xtick_4">
     <g id="line2d_12">
      <g>
       <use xlink:href="#md6beafa46d" x="316.410155" y="161.7" style="stroke: #000000; stroke-width: 0.8"/>
      </g>
     </g>
     <g id="text_10">
      <!-- $\mathdefault{10^{-1}}$ -->
      <g transform="translate(302.310155 179.918125) scale(0.12 -0.12)">
       <use xlink:href="#DejaVuSans-31" transform="translate(0 0.684375)"/>
       <use xlink:href="#DejaVuSans-30" transform="translate(63.623047 0.684375)"/>
       <use xlink:href="#DejaVuSans-2212" transform="translate(128.203125 38.965625) scale(0.7)"/>
       <use xlink:href="#DejaVuSans-31" transform="translate(186.855469 38.965625) scale(0.7)"/>
      </g>
     </g>
    </g>
    <g id="xtick_5">
     <g id="line2d_13">
      <g>
       <use xlink:href="#md6beafa46d" x="375.163842" y="161.7" style="stroke: #000000; stroke-width: 0.8"/>
      </g>
     </g>
     <g id="text_11">
      <!-- $\mathdefault{10^{1}}$ -->
      <g transform="translate(364.603842 179.918125) scale(0.12 -0.12)">
       <use xlink:href="#DejaVuSans-31" transform="translate(0 0.684375)"/>
       <use xlink:href="#DejaVuSans-30" transform="translate(63.623047 0.684375)"/>
       <use xlink:href="#DejaVuSans-31" transform="translate(128.203125 38.965625) scale(0.7)"/>
      </g>
     </g>
    </g>
    <g id="xtick_6">
     <g id="line2d_14">
      <g>
       <use xlink:href="#md6beafa46d" x="433.91753" y="161.7" style="stroke: #000000; stroke-width: 0.8"/>
      </g>
     </g>
     <g id="text_12">
      <!-- $\mathdefault{10^{3}}$ -->
      <g transform="translate(423.35753 179.918125) scale(0.12 -0.12)">
       <use xlink:href="#DejaVuSans-31" transform="translate(0 0.765625)"/>
       <use xlink:href="#DejaVuSans-30" transform="translate(63.623047 0.765625)"/>
       <use xlink:href="#DejaVuSans-33" transform="translate(128.203125 39.046875) scale(0.7)"/>
      </g>
     </g>
    </g>
    <g id="text_13">
     <!-- (b) Parameter with $R=\frac{1}{\lambda \times c}$ -->
     <g transform="translate(292.995 197.81375) scale(0.12 -0.12)">
      <defs>
       <path id="DejaVuSans-62" d="M 3116 1747 
Q 3116 2381 2855 2742 
Q 2594 3103 2138 3103 
Q 1681 3103 1420 2742 
Q 1159 2381 1159 1747 
Q 1159 1113 1420 752 
Q 1681 391 2138 391 
Q 2594 391 2855 752 
Q 3116 1113 3116 1747 
z
M 1159 2969 
Q 1341 3281 1617 3432 
Q 1894 3584 2278 3584 
Q 2916 3584 3314 3078 
Q 3713 2572 3713 1747 
Q 3713 922 3314 415 
Q 2916 -91 2278 -91 
Q 1894 -91 1617 61 
Q 1341 213 1159 525 
L 1159 0 
L 581 0 
L 581 4863 
L 1159 4863 
L 1159 2969 
z
" transform="scale(0.015625)"/>
       <path id="DejaVuSans-Oblique-52" d="M 1613 4147 
L 1294 2491 
L 2106 2491 
Q 2584 2491 2879 2755 
Q 3175 3019 3175 3444 
Q 3175 3784 2976 3965 
Q 2778 4147 2406 4147 
L 1613 4147 
z
M 2772 2241 
Q 2972 2194 3105 2009 
Q 3238 1825 3413 1275 
L 3809 0 
L 3144 0 
L 2778 1197 
Q 2638 1659 2453 1815 
Q 2269 1972 1888 1972 
L 1191 1972 
L 806 0 
L 172 0 
L 1081 4666 
L 2503 4666 
Q 3150 4666 3495 4373 
Q 3841 4081 3841 3531 
Q 3841 3044 3547 2687 
Q 3253 2331 2772 2241 
z
" transform="scale(0.015625)"/>
       <path id="DejaVuSans-3d" d="M 678 2906 
L 4684 2906 
L 4684 2381 
L 678 2381 
L 678 2906 
z
M 678 1631 
L 4684 1631 
L 4684 1100 
L 678 1100 
L 678 1631 
z
" transform="scale(0.015625)"/>
       <path id="DejaVuSans-d7" d="M 4488 3438 
L 3059 2003 
L 4488 575 
L 4116 197 
L 2681 1631 
L 1247 197 
L 878 575 
L 2303 2003 
L 878 3438 
L 1247 3816 
L 2681 2381 
L 4116 3816 
L 4488 3438 
z
" transform="scale(0.015625)"/>
       <path id="DejaVuSans-Oblique-63" d="M 3431 3366 
L 3316 2797 
Q 3109 2947 2876 3022 
Q 2644 3097 2394 3097 
Q 2119 3097 1870 3000 
Q 1622 2903 1453 2725 
Q 1184 2453 1037 2087 
Q 891 1722 891 1331 
Q 891 859 1127 628 
Q 1363 397 1844 397 
Q 2081 397 2348 469 
Q 2616 541 2906 684 
L 2797 116 
Q 2547 13 2283 -39 
Q 2019 -91 1741 -91 
Q 1044 -91 669 257 
Q 294 606 294 1253 
Q 294 1797 489 2255 
Q 684 2713 1069 3078 
Q 1331 3328 1684 3456 
Q 2038 3584 2456 3584 
Q 2700 3584 2940 3529 
Q 3181 3475 3431 3366 
z
" transform="scale(0.015625)"/>
      </defs>
      <use xlink:href="#DejaVuSans-28" transform="translate(0 0.16875)"/>
      <use xlink:href="#DejaVuSans-62" transform="translate(39.013672 0.16875)"/>
      <use xlink:href="#DejaVuSans-29" transform="translate(102.490234 0.16875)"/>
      <use xlink:href="#DejaVuSans-20" transform="translate(141.503906 0.16875)"/>
      <use xlink:href="#DejaVuSans-50" transform="translate(173.291016 0.16875)"/>
      <use xlink:href="#DejaVuSans-61" transform="translate(233.59375 0.16875)"/>
      <use xlink:href="#DejaVuSans-72" transform="translate(294.873047 0.16875)"/>
      <use xlink:href="#DejaVuSans-61" transform="translate(335.986328 0.16875)"/>
      <use xlink:href="#DejaVuSans-6d" transform="translate(397.265625 0.16875)"/>
      <use xlink:href="#DejaVuSans-65" transform="translate(494.677734 0.16875)"/>
      <use xlink:href="#DejaVuSans-74" transform="translate(556.201172 0.16875)"/>
      <use xlink:href="#DejaVuSans-65" transform="translate(595.410156 0.16875)"/>
      <use xlink:href="#DejaVuSans-72" transform="translate(656.933594 0.16875)"/>
      <use xlink:href="#DejaVuSans-20" transform="translate(698.046875 0.16875)"/>
      <use xlink:href="#DejaVuSans-77" transform="translate(729.833984 0.16875)"/>
      <use xlink:href="#DejaVuSans-69" transform="translate(811.621094 0.16875)"/>
      <use xlink:href="#DejaVuSans-74" transform="translate(839.404297 0.16875)"/>
      <use xlink:href="#DejaVuSans-68" transform="translate(878.613281 0.16875)"/>
      <use xlink:href="#DejaVuSans-20" transform="translate(941.992188 0.16875)"/>
      <use xlink:href="#DejaVuSans-Oblique-52" transform="translate(973.779297 0.16875)"/>
      <use xlink:href="#DejaVuSans-3d" transform="translate(1062.744141 0.16875)"/>
      <use xlink:href="#DejaVuSans-31" transform="translate(1227.015625 43.965625) scale(0.7)"/>
      <use xlink:href="#DejaVuSans-Oblique-3bb" transform="translate(1166.015625 -40.473437) scale(0.7)"/>
      <use xlink:href="#DejaVuSans-d7" transform="translate(1221.079102 -40.473437) scale(0.7)"/>
      <use xlink:href="#DejaVuSans-Oblique-63" transform="translate(1293.369141 -40.473437) scale(0.7)"/>
      <path d="M 1166.015625 18.965625 
L 1166.015625 25.215625 
L 1331.855469 25.215625 
L 1331.855469 18.965625 
L 1166.015625 18.965625 
z
"/>
     </g>
    </g>
   </g>
   <g id="matplotlib.axis_4">
    <g id="ytick_5">
     <g id="line2d_15">
      <g>
       <use xlink:href="#m1d1d496c1e" x="278.19" y="148.9" style="stroke: #000000; stroke-width: 0.8"/>
      </g>
     </g>
     <g id="text_14">
      <!-- 15 -->
      <g transform="translate(253.82 153.459063) scale(0.12 -0.12)">
       <use xlink:href="#DejaVuSans-31"/>
       <use xlink:href="#DejaVuSans-35" x="63.623047"/>
      </g>
     </g>
    </g>
    <g id="ytick_6">
     <g id="line2d_16">
      <g>
       <use xlink:href="#m1d1d496c1e" x="278.19" y="116.9" style="stroke: #000000; stroke-width: 0.8"/>
      </g>
     </g>
     <g id="text_15">
      <!-- 20 -->
      <g transform="translate(253.82 121.459063) scale(0.12 -0.12)">
       <use xlink:href="#DejaVuSans-32"/>
       <use xlink:href="#DejaVuSans-30" x="63.623047"/>
      </g>
     </g>
    </g>
    <g id="ytick_7">
     <g id="line2d_17">
      <g>
       <use xlink:href="#m1d1d496c1e" x="278.19" y="84.9" style="stroke: #000000; stroke-width: 0.8"/>
      </g>
     </g>
     <g id="text_16">
      <!-- 25 -->
      <g transform="translate(253.82 89.459063) scale(0.12 -0.12)">
       <use xlink:href="#DejaVuSans-32"/>
       <use xlink:href="#DejaVuSans-35" x="63.623047"/>
      </g>
     </g>
    </g>
    <g id="ytick_8">
     <g id="line2d_18">
      <g>
       <use xlink:href="#m1d1d496c1e" x="278.19" y="52.9" style="stroke: #000000; stroke-width: 0.8"/>
      </g>
     </g>
     <g id="text_17">
      <!-- 30 -->
      <g transform="translate(253.82 57.459063) scale(0.12 -0.12)">
       <use xlink:href="#DejaVuSans-33"/>
       <use xlink:href="#DejaVuSans-30" x="63.623047"/>
      </g>
     </g>
    </g>
   </g>
   <g id="line2d_19">
    <path d="M 287.033311 140.9352 
L 289.970995 140.93584 
L 292.90868 140.93584 
L 295.846364 140.93584 
L 298.784049 140.93584 
L 301.721733 140.98064 
L 304.659417 141.10288 
L 307.597102 141.25712 
L 310.534786 141.42864 
L 313.47247 141.61808 
L 316.410155 141.86896 
L 319.347839 142.1448 
L 322.285524 142.43344 
L 325.223208 142.6664 
L 328.160892 142.76816 
L 331.098577 142.6728 
L 334.036261 142.32464 
L 336.973945 141.60976 
L 339.91163 140.3784 
L 342.849314 138.48656 
L 345.786998 135.83824 
L 348.724683 132.46992 
L 351.662367 128.74384 
L 354.600052 124.28112 
L 357.537736 119.68912 
L 360.47542 114.98896 
L 363.413105 110.5512 
L 366.350789 106.93008 
L 369.288473 104.05008 
L 372.226158 101.89584 
L 375.163842 100.20752 
L 378.101527 98.83536 
L 381.039211 98.07248 
L 383.976895 97.764 
L 386.91458 97.74032 
L 389.852264 98.08784 
L 392.789948 98.72592 
L 395.727633 99.71216 
L 398.665317 101.02096 
L 401.603002 102.5672 
L 404.540686 104.53712 
L 407.47837 106.62096 
L 410.416055 109.01776 
L 413.353739 111.52848 
L 416.291423 114.1448 
L 419.229108 116.7784 
L 422.166792 119.23984 
L 425.104476 121.9528 
L 428.042161 124.55568 
L 430.979845 127.00432 
L 433.91753 129.30832 
L 436.855214 131.55024 
L 439.792898 133.89072 
L 442.730583 136.21136 
L 445.668267 138.42 
L 448.605951 140.45072 
L 451.543636 142.18576 
L 454.48132 143.58224 
L 457.419005 144.75408 
L 460.356689 145.68912 
" clip-path="url(#pf9a2a4c073)" style="fill: none; stroke-dasharray: 5.18,2.24; stroke-dashoffset: 0; stroke: #c44e52; stroke-width: 1.4"/>
   </g>
   <g id="line2d_20">
    <path d="M 287.033311 91.3672 
L 289.970995 91.3672 
L 292.90868 91.36848 
L 295.846364 91.36848 
L 298.784049 91.36912 
L 301.721733 91.37424 
L 304.659417 91.40432 
L 307.597102 91.476 
L 310.534786 91.56112 
L 313.47247 91.60464 
L 316.410155 91.65584 
L 319.347839 91.716 
L 322.285524 91.7704 
L 325.223208 91.82288 
L 328.160892 91.80944 
L 331.098577 91.73776 
L 334.036261 91.55536 
L 336.973945 91.252 
L 339.91163 90.80016 
L 342.849314 90.17552 
L 345.786998 89.28528 
L 348.724683 88.17872 
L 351.662367 87.06576 
L 354.600052 85.80112 
L 357.537736 84.45264 
L 360.47542 82.97744 
L 363.413105 81.68208 
L 366.350789 80.31504 
L 369.288473 78.95376 
L 372.226158 77.42864 
L 375.163842 76.0424 
L 378.101527 74.97808 
L 381.039211 74.74192 
L 383.976895 74.9608 
L 386.91458 75.14448 
L 389.852264 75.46896 
L 392.789948 75.64752 
L 395.727633 75.65648 
L 398.665317 76.13072 
L 401.603002 76.63312 
L 404.540686 77.71024 
L 407.47837 79.0408 
L 410.416055 80.37072 
L 413.353739 81.76784 
L 416.291423 83.76272 
L 419.229108 85.56432 
L 422.166792 87.7192 
L 425.104476 89.52464 
L 428.042161 91.0568 
L 430.979845 92.30928 
L 433.91753 93.35696 
L 436.855214 94.18448 
L 439.792898 94.7944 
L 442.730583 95.32944 
L 445.668267 95.72752 
L 448.605951 96.02256 
L 451.543636 96.292 
L 454.48132 96.52368 
L 457.419005 96.67472 
L 460.356689 96.7912 
" clip-path="url(#pf9a2a4c073)" style="fill: none; stroke-dasharray: 1.4,2.31; stroke-dashoffset: 0; stroke: #8172b2; stroke-width: 1.4"/>
   </g>
   <g id="line2d_21">
    <path d="M 287.033311 79.52272 
L 289.970995 79.52272 
L 292.90868 79.52208 
L 295.846364 79.52272 
L 298.784049 79.52272 
L 301.721733 79.52208 
L 304.659417 79.53104 
L 307.597102 79.56112 
L 310.534786 79.62832 
L 313.47247 79.66608 
L 316.410155 79.70128 
L 319.347839 79.71856 
L 322.285524 79.72176 
L 325.223208 79.70384 
L 328.160892 79.65648 
L 331.098577 79.59696 
L 334.036261 79.45488 
L 336.973945 79.21872 
L 339.91163 78.86032 
L 342.849314 78.40784 
L 345.786998 77.89584 
L 348.724683 77.42416 
L 351.662367 76.7176 
L 354.600052 75.42352 
L 357.537736 74.03472 
L 360.47542 72.5416 
L 363.413105 70.996 
L 366.350789 69.32688 
L 369.288473 67.45616 
L 372.226158 65.83952 
L 375.163842 64.82768 
L 378.101527 63.26544 
L 381.039211 62.51344 
L 383.976895 61.64944 
L 386.91458 60.51856 
L 389.852264 60.09616 
L 392.789948 59.5304 
L 395.727633 59.3544 
L 398.665317 59.84016 
L 401.603002 61.46192 
L 404.540686 63.23216 
L 407.47837 65.22128 
L 410.416055 67.41136 
L 413.353739 68.82896 
L 416.291423 70.15632 
L 419.229108 71.572 
L 422.166792 73.52592 
L 425.104476 74.06608 
L 428.042161 75.0696 
L 430.979845 76.07248 
L 433.91753 77.11248 
L 436.855214 77.22256 
L 439.792898 78.30864 
L 442.730583 78.67856 
L 445.668267 78.96464 
L 448.605951 79.18864 
L 451.543636 79.40688 
L 454.48132 79.8216 
L 457.419005 79.66544 
L 460.356689 80.04432 
" clip-path="url(#pf9a2a4c073)" style="fill: none; stroke-dasharray: 8.96,2.24,1.4,2.24; stroke-dashoffset: 0; stroke: #ccb974; stroke-width: 1.4"/>
   </g>
   <g id="line2d_22">
    <path d="M 287.033311 64.6504 
L 289.970995 64.6504 
L 292.90868 64.6504 
L 295.846364 64.6504 
L 298.784049 64.65104 
L 301.721733 64.65168 
L 304.659417 64.66768 
L 307.597102 64.67856 
L 310.534786 64.73872 
L 313.47247 64.79824 
L 316.410155 64.81552 
L 319.347839 64.81616 
L 322.285524 64.80848 
L 325.223208 64.76176 
L 328.160892 64.68688 
L 331.098577 64.2824 
L 334.036261 64.0616 
L 336.973945 64.11152 
L 339.91163 63.91312 
L 342.849314 63.20272 
L 345.786998 62.14992 
L 348.724683 61.30576 
L 351.662367 58.54608 
L 354.600052 55.79088 
L 357.537736 52.37328 
L 360.47542 50.15952 
L 363.413105 48.60688 
L 366.350789 44.77712 
L 369.288473 42.1928 
L 372.226158 38.69392 
L 375.163842 38.45648 
L 378.101527 38.64976 
L 381.039211 38.01616 
L 383.976895 37.05872 
L 386.91458 37.20592 
L 389.852264 36.59536 
L 392.789948 38.03344 
L 395.727633 39.57264 
L 398.665317 40.76688 
L 401.603002 42.26128 
L 404.540686 44.83536 
L 407.47837 46.23248 
L 410.416055 47.26608 
L 413.353739 49.73456 
L 416.291423 50.71056 
L 419.229108 52.0168 
L 422.166792 52.96272 
L 425.104476 54.02 
L 428.042161 54.5608 
L 430.979845 55.40112 
L 433.91753 55.52016 
L 436.855214 55.7832 
L 439.792898 56.00592 
L 442.730583 56.2024 
L 445.668267 56.2568 
L 448.605951 56.48144 
L 451.543636 56.5352 
L 454.48132 56.4776 
L 457.419005 56.58128 
L 460.356689 56.6696 
" clip-path="url(#pf9a2a4c073)" style="fill: none; stroke-dasharray: 5.18,2.24; stroke-dashoffset: 0; stroke: #86a38d; stroke-width: 1.4"/>
   </g>
   <g id="patch_8">
    <path d="M 278.19 161.7 
L 278.19 27.3 
" style="fill: none; stroke: #000000; stroke-width: 0.8; stroke-linejoin: miter; stroke-linecap: square"/>
   </g>
   <g id="patch_9">
    <path d="M 469.2 161.7 
L 469.2 27.3 
" style="fill: none; stroke: #000000; stroke-width: 0.8; stroke-linejoin: miter; stroke-linecap: square"/>
   </g>
   <g id="patch_10">
    <path d="M 278.19 161.7 
L 469.2 161.7 
" style="fill: none; stroke: #000000; stroke-width: 0.8; stroke-linejoin: miter; stroke-linecap: square"/>
   </g>
   <g id="patch_11">
    <path d="M 278.19 27.3 
L 469.2 27.3 
" style="fill: none; stroke: #000000; stroke-width: 0.8; stroke-linejoin: miter; stroke-linecap: square"/>
   </g>
   <g id="legend_1">
    <g id="patch_12">
     <path d="M 47.8275 20.91375 
L 470.6775 20.91375 
Q 473.0775 20.91375 473.0775 18.51375 
L 473.0775 2.1 
Q 473.0775 -0.3 470.6775 -0.3 
L 47.8275 -0.3 
Q 45.4275 -0.3 45.4275 2.1 
L 45.4275 18.51375 
Q 45.4275 20.91375 47.8275 20.91375 
z
" style="fill: #ffffff; opacity: 0.8; stroke: #cccccc; stroke-width: 0.24; stroke-linejoin: miter"/>
    </g>
    <g id="line2d_23">
     <path d="M 50.2275 9.418125 
L 62.2275 9.418125 
L 74.2275 9.418125 
" style="fill: none; stroke-dasharray: 5.18,2.24; stroke-dashoffset: 0; stroke: #c44e52; stroke-width: 1.4"/>
    </g>
    <g id="text_18">
     <!-- c = 200 -->
     <g transform="translate(83.8275 13.618125) scale(0.12 -0.12)">
      <defs>
       <path id="DejaVuSans-63" d="M 3122 3366 
L 3122 2828 
Q 2878 2963 2633 3030 
Q 2388 3097 2138 3097 
Q 1578 3097 1268 2742 
Q 959 2388 959 1747 
Q 959 1106 1268 751 
Q 1578 397 2138 397 
Q 2388 397 2633 464 
Q 2878 531 3122 666 
L 3122 134 
Q 2881 22 2623 -34 
Q 2366 -91 2075 -91 
Q 1284 -91 818 406 
Q 353 903 353 1747 
Q 353 2603 823 3093 
Q 1294 3584 2113 3584 
Q 2378 3584 2631 3529 
Q 2884 3475 3122 3366 
z
" transform="scale(0.015625)"/>
      </defs>
      <use xlink:href="#DejaVuSans-63"/>
      <use xlink:href="#DejaVuSans-20" x="54.980469"/>
      <use xlink:href="#DejaVuSans-3d" x="86.767578"/>
      <use xlink:href="#DejaVuSans-20" x="170.556641"/>
      <use xlink:href="#DejaVuSans-32" x="202.34375"/>
      <use xlink:href="#DejaVuSans-30" x="265.966797"/>
      <use xlink:href="#DejaVuSans-30" x="329.589844"/>
     </g>
    </g>
    <g id="line2d_24">
     <path d="M 155.01375 9.418125 
L 167.01375 9.418125 
L 179.01375 9.418125 
" style="fill: none; stroke-dasharray: 1.4,2.31; stroke-dashoffset: 0; stroke: #8172b2; stroke-width: 1.4"/>
    </g>
    <g id="text_19">
     <!-- c = 1000 -->
     <g transform="translate(188.61375 13.618125) scale(0.12 -0.12)">
      <use xlink:href="#DejaVuSans-63"/>
      <use xlink:href="#DejaVuSans-20" x="54.980469"/>
      <use xlink:href="#DejaVuSans-3d" x="86.767578"/>
      <use xlink:href="#DejaVuSans-20" x="170.556641"/>
      <use xlink:href="#DejaVuSans-31" x="202.34375"/>
      <use xlink:href="#DejaVuSans-30" x="265.966797"/>
      <use xlink:href="#DejaVuSans-30" x="329.589844"/>
      <use xlink:href="#DejaVuSans-30" x="393.212891"/>
     </g>
    </g>
    <g id="line2d_25">
     <path d="M 267.435 9.418125 
L 279.435 9.418125 
L 291.435 9.418125 
" style="fill: none; stroke-dasharray: 8.96,2.24,1.4,2.24; stroke-dashoffset: 0; stroke: #ccb974; stroke-width: 1.4"/>
    </g>
    <g id="text_20">
     <!-- c = 2000 -->
     <g transform="translate(301.035 13.618125) scale(0.12 -0.12)">
      <use xlink:href="#DejaVuSans-63"/>
      <use xlink:href="#DejaVuSans-20" x="54.980469"/>
      <use xlink:href="#DejaVuSans-3d" x="86.767578"/>
      <use xlink:href="#DejaVuSans-20" x="170.556641"/>
      <use xlink:href="#DejaVuSans-32" x="202.34375"/>
      <use xlink:href="#DejaVuSans-30" x="265.966797"/>
      <use xlink:href="#DejaVuSans-30" x="329.589844"/>
      <use xlink:href="#DejaVuSans-30" x="393.212891"/>
     </g>
    </g>
    <g id="line2d_26">
     <path d="M 379.85625 9.418125 
L 391.85625 9.418125 
L 403.85625 9.418125 
" style="fill: none; stroke-dasharray: 5.18,2.24; stroke-dashoffset: 0; stroke: #86a38d; stroke-width: 1.4"/>
    </g>
    <g id="text_21">
     <!-- c = 4000 -->
     <g transform="translate(413.45625 13.618125) scale(0.12 -0.12)">
      <defs>
       <path id="DejaVuSans-34" d="M 2419 4116 
L 825 1625 
L 2419 1625 
L 2419 4116 
z
M 2253 4666 
L 3047 4666 
L 3047 1625 
L 3713 1625 
L 3713 1100 
L 3047 1100 
L 3047 0 
L 2419 0 
L 2419 1100 
L 313 1100 
L 313 1709 
L 2253 4666 
z
" transform="scale(0.015625)"/>
      </defs>
      <use xlink:href="#DejaVuSans-63"/>
      <use xlink:href="#DejaVuSans-20" x="54.980469"/>
      <use xlink:href="#DejaVuSans-3d" x="86.767578"/>
      <use xlink:href="#DejaVuSans-20" x="170.556641"/>
      <use xlink:href="#DejaVuSans-34" x="202.34375"/>
      <use xlink:href="#DejaVuSans-30" x="265.966797"/>
      <use xlink:href="#DejaVuSans-30" x="329.589844"/>
      <use xlink:href="#DejaVuSans-30" x="393.212891"/>
     </g>
    </g>
   </g>
  </g>
 </g>
 <defs>
  <clipPath id="pb5207e3d80">
   <rect x="52.07" y="27.3" width="191.01" height="134.4"/>
  </clipPath>
  <clipPath id="pf9a2a4c073">
   <rect x="278.19" y="27.3" width="191.01" height="134.4"/>
  </clipPath>
 </defs>
</svg>
