<?xml version="1.0" encoding="utf-8" standalone="no"?>
<!DOCTYPE svg PUBLIC "-//W3C//DTD SVG 1.1//EN"
  "http://www.w3.org/Graphics/SVG/1.1/DTD/svg11.dtd">
<svg xmlns:xlink="http://www.w3.org/1999/xlink" width="480pt" height="210pt" viewBox="0 0 480 210" xmlns="http://www.w3.org/2000/svg" version="1.1">
 <metadata>
  <rdf:RDF xmlns:dc="http://purl.org/dc/elements/1.1/" xmlns:cc="http://creativecommons.org/ns#" xmlns:rdf="http://www.w3.org/1999/02/22-rdf-syntax-ns#">
   <cc:Work>
    <dc:type rdf:resource="http://purl.org/dc/dcmitype/StillImage"/>
    <dc:date>2024-03-11T14:03:33.645813</dc:date>
    <dc:format>image/svg+xml</dc:format>
    <dc:creator>
     <cc:Agent>
      <dc:title>Matplotlib v3.8.0, https://matplotlib.org/</dc:title>
     </cc:Agent>
    </dc:creator>
   </cc:Work>
  </rdf:RDF>
 </metadata>
 <defs>
  <style type="text/css">*{stroke-linejoin: round; stroke-linecap: butt}</style>
 </defs>
 <g id="figure_1">
  <g id="patch_1">
   <path d="M 0 210 
L 480 210 
L 480 0 
L 0 0 
z
" style="fill: #ffffff"/>
  </g>
  <g id="axes_1">
   <g id="patch_2">
    <path d="M 48.57 161.7 
L 243.08 161.7 
L 243.08 21 
L 48.57 21 
z
" style="fill: #ffffff"/>
   </g>
   <g id="matplotlib.axis_1">
    <g id="xtick_1">
     <g id="line2d_1">
      <path d="M 87.490487 161.7 
L 87.490487 21 
" clip-path="url(#p607c42caae)" style="fill: none; stroke: #cccccc; stroke-width: 0.8; stroke-linecap: round"/>
     </g>
     <g id="line2d_2"/>
     <g id="text_1">
      <!-- $\mathdefault{10^{-5}}$ -->
      <g style="fill: #262626" transform="translate(73.390487 176.418125) scale(0.12 -0.12)">
       <defs>
        <path id="DejaVuSans-31" d="M 794 531 
L 1825 531 
L 1825 4091 
L 703 3866 
L 703 4441 
L 1819 4666 
L 2450 4666 
L 2450 531 
L 3481 531 
L 3481 0 
L 794 0 
L 794 531 
z
" transform="scale(0.015625)"/>
        <path id="DejaVuSans-30" d="M 2034 4250 
Q 1547 4250 1301 3770 
Q 1056 3291 1056 2328 
Q 1056 1369 1301 889 
Q 1547 409 2034 409 
Q 2525 409 2770 889 
Q 3016 1369 3016 2328 
Q 3016 3291 2770 3770 
Q 2525 4250 2034 4250 
z
M 2034 4750 
Q 2819 4750 3233 4129 
Q 3647 3509 3647 2328 
Q 3647 1150 3233 529 
Q 2819 -91 2034 -91 
Q 1250 -91 836 529 
Q 422 1150 422 2328 
Q 422 3509 836 4129 
Q 1250 4750 2034 4750 
z
" transform="scale(0.015625)"/>
        <path id="DejaVuSans-2212" d="M 678 2272 
L 4684 2272 
L 4684 1741 
L 678 1741 
L 678 2272 
z
" transform="scale(0.015625)"/>
        <path id="DejaVuSans-35" d="M 691 4666 
L 3169 4666 
L 3169 4134 
L 1269 4134 
L 1269 2991 
Q 1406 3038 1543 3061 
Q 1681 3084 1819 3084 
Q 2600 3084 3056 2656 
Q 3513 2228 3513 1497 
Q 3513 744 3044 326 
Q 2575 -91 1722 -91 
Q 1428 -91 1123 -41 
Q 819 9 494 109 
L 494 744 
Q 775 591 1075 516 
Q 1375 441 1709 441 
Q 2250 441 2565 725 
Q 2881 1009 2881 1497 
Q 2881 1984 2565 2268 
Q 2250 2553 1709 2553 
Q 1456 2553 1204 2497 
Q 953 2441 691 2322 
L 691 4666 
z
" transform="scale(0.015625)"/>
       </defs>
       <use xlink:href="#DejaVuSans-31" transform="translate(0 0.684375)"/>
       <use xlink:href="#DejaVuSans-30" transform="translate(63.623047 0.684375)"/>
       <use xlink:href="#DejaVuSans-2212" transform="translate(128.203125 38.965625) scale(0.7)"/>
       <use xlink:href="#DejaVuSans-35" transform="translate(186.855469 38.965625) scale(0.7)"/>
      </g>
     </g>
    </g>
    <g id="xtick_2">
     <g id="line2d_3">
      <path d="M 147.320757 161.7 
L 147.320757 21 
" clip-path="url(#p607c42caae)" style="fill: none; stroke: #cccccc; stroke-width: 0.8; stroke-linecap: round"/>
     </g>
     <g id="line2d_4"/>
     <g id="text_2">
      <!-- $\mathdefault{10^{-3}}$ -->
      <g style="fill: #262626" transform="translate(133.220757 176.418125) scale(0.12 -0.12)">
       <defs>
        <path id="DejaVuSans-33" d="M 2597 2516 
Q 3050 2419 3304 2112 
Q 3559 1806 3559 1356 
Q 3559 666 3084 287 
Q 2609 -91 1734 -91 
Q 1441 -91 1130 -33 
Q 819 25 488 141 
L 488 750 
Q 750 597 1062 519 
Q 1375 441 1716 441 
Q 2309 441 2620 675 
Q 2931 909 2931 1356 
Q 2931 1769 2642 2001 
Q 2353 2234 1838 2234 
L 1294 2234 
L 1294 2753 
L 1863 2753 
Q 2328 2753 2575 2939 
Q 2822 3125 2822 3475 
Q 2822 3834 2567 4026 
Q 2313 4219 1838 4219 
Q 1578 4219 1281 4162 
Q 984 4106 628 3988 
L 628 4550 
Q 988 4650 1302 4700 
Q 1616 4750 1894 4750 
Q 2613 4750 3031 4423 
Q 3450 4097 3450 3541 
Q 3450 3153 3228 2886 
Q 3006 2619 2597 2516 
z
" transform="scale(0.015625)"/>
       </defs>
       <use xlink:href="#DejaVuSans-31" transform="translate(0 0.765625)"/>
       <use xlink:href="#DejaVuSans-30" transform="translate(63.623047 0.765625)"/>
       <use xlink:href="#DejaVuSans-2212" transform="translate(128.203125 39.046875) scale(0.7)"/>
       <use xlink:href="#DejaVuSans-33" transform="translate(186.855469 39.046875) scale(0.7)"/>
      </g>
     </g>
    </g>
    <g id="xtick_3">
     <g id="line2d_5">
      <path d="M 207.151026 161.7 
L 207.151026 21 
" clip-path="url(#p607c42caae)" style="fill: none; stroke: #cccccc; stroke-width: 0.8; stroke-linecap: round"/>
     </g>
     <g id="line2d_6"/>
     <g id="text_3">
      <!-- $\mathdefault{10^{-1}}$ -->
      <g style="fill: #262626" transform="translate(193.051026 176.418125) scale(0.12 -0.12)">
       <use xlink:href="#DejaVuSans-31" transform="translate(0 0.684375)"/>
       <use xlink:href="#DejaVuSans-30" transform="translate(63.623047 0.684375)"/>
       <use xlink:href="#DejaVuSans-2212" transform="translate(128.203125 38.965625) scale(0.7)"/>
       <use xlink:href="#DejaVuSans-31" transform="translate(186.855469 38.965625) scale(0.7)"/>
      </g>
     </g>
    </g>
    <g id="text_4">
     <!-- (a) Parameter with $\lambda$ -->
     <g style="fill: #262626" transform="translate(83.965 192.031875) scale(0.12 -0.12)">
      <defs>
       <path id="DejaVuSans-28" d="M 1984 4856 
Q 1566 4138 1362 3434 
Q 1159 2731 1159 2009 
Q 1159 1288 1364 580 
Q 1569 -128 1984 -844 
L 1484 -844 
Q 1016 -109 783 600 
Q 550 1309 550 2009 
Q 550 2706 781 3412 
Q 1013 4119 1484 4856 
L 1984 4856 
z
" transform="scale(0.015625)"/>
       <path id="DejaVuSans-61" d="M 2194 1759 
Q 1497 1759 1228 1600 
Q 959 1441 959 1056 
Q 959 750 1161 570 
Q 1363 391 1709 391 
Q 2188 391 2477 730 
Q 2766 1069 2766 1631 
L 2766 1759 
L 2194 1759 
z
M 3341 1997 
L 3341 0 
L 2766 0 
L 2766 531 
Q 2569 213 2275 61 
Q 1981 -91 1556 -91 
Q 1019 -91 701 211 
Q 384 513 384 1019 
Q 384 1609 779 1909 
Q 1175 2209 1959 2209 
L 2766 2209 
L 2766 2266 
Q 2766 2663 2505 2880 
Q 2244 3097 1772 3097 
Q 1472 3097 1187 3025 
Q 903 2953 641 2809 
L 641 3341 
Q 956 3463 1253 3523 
Q 1550 3584 1831 3584 
Q 2591 3584 2966 3190 
Q 3341 2797 3341 1997 
z
" transform="scale(0.015625)"/>
       <path id="DejaVuSans-29" d="M 513 4856 
L 1013 4856 
Q 1481 4119 1714 3412 
Q 1947 2706 1947 2009 
Q 1947 1309 1714 600 
Q 1481 -109 1013 -844 
L 513 -844 
Q 928 -128 1133 580 
Q 1338 1288 1338 2009 
Q 1338 2731 1133 3434 
Q 928 4138 513 4856 
z
" transform="scale(0.015625)"/>
       <path id="DejaVuSans-20" transform="scale(0.015625)"/>
       <path id="DejaVuSans-50" d="M 1259 4147 
L 1259 2394 
L 2053 2394 
Q 2494 2394 2734 2622 
Q 2975 2850 2975 3272 
Q 2975 3691 2734 3919 
Q 2494 4147 2053 4147 
L 1259 4147 
z
M 628 4666 
L 2053 4666 
Q 2838 4666 3239 4311 
Q 3641 3956 3641 3272 
Q 3641 2581 3239 2228 
Q 2838 1875 2053 1875 
L 1259 1875 
L 1259 0 
L 628 0 
L 628 4666 
z
" transform="scale(0.015625)"/>
       <path id="DejaVuSans-72" d="M 2631 2963 
Q 2534 3019 2420 3045 
Q 2306 3072 2169 3072 
Q 1681 3072 1420 2755 
Q 1159 2438 1159 1844 
L 1159 0 
L 581 0 
L 581 3500 
L 1159 3500 
L 1159 2956 
Q 1341 3275 1631 3429 
Q 1922 3584 2338 3584 
Q 2397 3584 2469 3576 
Q 2541 3569 2628 3553 
L 2631 2963 
z
" transform="scale(0.015625)"/>
       <path id="DejaVuSans-6d" d="M 3328 2828 
Q 3544 3216 3844 3400 
Q 4144 3584 4550 3584 
Q 5097 3584 5394 3201 
Q 5691 2819 5691 2113 
L 5691 0 
L 5113 0 
L 5113 2094 
Q 5113 2597 4934 2840 
Q 4756 3084 4391 3084 
Q 3944 3084 3684 2787 
Q 3425 2491 3425 1978 
L 3425 0 
L 2847 0 
L 2847 2094 
Q 2847 2600 2669 2842 
Q 2491 3084 2119 3084 
Q 1678 3084 1418 2786 
Q 1159 2488 1159 1978 
L 1159 0 
L 581 0 
L 581 3500 
L 1159 3500 
L 1159 2956 
Q 1356 3278 1631 3431 
Q 1906 3584 2284 3584 
Q 2666 3584 2933 3390 
Q 3200 3197 3328 2828 
z
" transform="scale(0.015625)"/>
       <path id="DejaVuSans-65" d="M 3597 1894 
L 3597 1613 
L 953 1613 
Q 991 1019 1311 708 
Q 1631 397 2203 397 
Q 2534 397 2845 478 
Q 3156 559 3463 722 
L 3463 178 
Q 3153 47 2828 -22 
Q 2503 -91 2169 -91 
Q 1331 -91 842 396 
Q 353 884 353 1716 
Q 353 2575 817 3079 
Q 1281 3584 2069 3584 
Q 2775 3584 3186 3129 
Q 3597 2675 3597 1894 
z
M 3022 2063 
Q 3016 2534 2758 2815 
Q 2500 3097 2075 3097 
Q 1594 3097 1305 2825 
Q 1016 2553 972 2059 
L 3022 2063 
z
" transform="scale(0.015625)"/>
       <path id="DejaVuSans-74" d="M 1172 4494 
L 1172 3500 
L 2356 3500 
L 2356 3053 
L 1172 3053 
L 1172 1153 
Q 1172 725 1289 603 
Q 1406 481 1766 481 
L 2356 481 
L 2356 0 
L 1766 0 
Q 1100 0 847 248 
Q 594 497 594 1153 
L 594 3053 
L 172 3053 
L 172 3500 
L 594 3500 
L 594 4494 
L 1172 4494 
z
" transform="scale(0.015625)"/>
       <path id="DejaVuSans-77" d="M 269 3500 
L 844 3500 
L 1563 769 
L 2278 3500 
L 2956 3500 
L 3675 769 
L 4391 3500 
L 4966 3500 
L 4050 0 
L 3372 0 
L 2619 2869 
L 1863 0 
L 1184 0 
L 269 3500 
z
" transform="scale(0.015625)"/>
       <path id="DejaVuSans-69" d="M 603 3500 
L 1178 3500 
L 1178 0 
L 603 0 
L 603 3500 
z
M 603 4863 
L 1178 4863 
L 1178 4134 
L 603 4134 
L 603 4863 
z
" transform="scale(0.015625)"/>
       <path id="DejaVuSans-68" d="M 3513 2113 
L 3513 0 
L 2938 0 
L 2938 2094 
Q 2938 2591 2744 2837 
Q 2550 3084 2163 3084 
Q 1697 3084 1428 2787 
Q 1159 2491 1159 1978 
L 1159 0 
L 581 0 
L 581 4863 
L 1159 4863 
L 1159 2956 
Q 1366 3272 1645 3428 
Q 1925 3584 2291 3584 
Q 2894 3584 3203 3211 
Q 3513 2838 3513 2113 
z
" transform="scale(0.015625)"/>
       <path id="DejaVuSans-Oblique-3bb" d="M 2350 4316 
L 3125 0 
L 2516 0 
L 2038 2588 
L 328 0 
L -281 0 
L 1903 3356 
L 1794 3975 
Q 1725 4369 1391 4369 
L 1091 4369 
L 1184 4863 
L 1550 4856 
Q 2253 4847 2350 4316 
z
" transform="scale(0.015625)"/>
      </defs>
      <use xlink:href="#DejaVuSans-28" transform="translate(0 0.015625)"/>
      <use xlink:href="#DejaVuSans-61" transform="translate(39.013672 0.015625)"/>
      <use xlink:href="#DejaVuSans-29" transform="translate(100.292969 0.015625)"/>
      <use xlink:href="#DejaVuSans-20" transform="translate(139.306641 0.015625)"/>
      <use xlink:href="#DejaVuSans-50" transform="translate(171.09375 0.015625)"/>
      <use xlink:href="#DejaVuSans-61" transform="translate(231.396484 0.015625)"/>
      <use xlink:href="#DejaVuSans-72" transform="translate(292.675781 0.015625)"/>
      <use xlink:href="#DejaVuSans-61" transform="translate(333.789062 0.015625)"/>
      <use xlink:href="#DejaVuSans-6d" transform="translate(395.068359 0.015625)"/>
      <use xlink:href="#DejaVuSans-65" transform="translate(492.480469 0.015625)"/>
      <use xlink:href="#DejaVuSans-74" transform="translate(554.003906 0.015625)"/>
      <use xlink:href="#DejaVuSans-65" transform="translate(593.212891 0.015625)"/>
      <use xlink:href="#DejaVuSans-72" transform="translate(654.736328 0.015625)"/>
      <use xlink:href="#DejaVuSans-20" transform="translate(695.849609 0.015625)"/>
      <use xlink:href="#DejaVuSans-77" transform="translate(727.636719 0.015625)"/>
      <use xlink:href="#DejaVuSans-69" transform="translate(809.423828 0.015625)"/>
      <use xlink:href="#DejaVuSans-74" transform="translate(837.207031 0.015625)"/>
      <use xlink:href="#DejaVuSans-68" transform="translate(876.416016 0.015625)"/>
      <use xlink:href="#DejaVuSans-20" transform="translate(939.794922 0.015625)"/>
      <use xlink:href="#DejaVuSans-Oblique-3bb" transform="translate(971.582031 0.015625)"/>
     </g>
    </g>
   </g>
   <g id="matplotlib.axis_2">
    <g id="ytick_1">
     <g id="line2d_7">
      <path d="M 48.57 148.909091 
L 243.08 148.909091 
" clip-path="url(#p607c42caae)" style="fill: none; stroke: #cccccc; stroke-width: 0.8; stroke-linecap: round"/>
     </g>
     <g id="line2d_8"/>
     <g id="text_5">
      <!-- 15 -->
      <g style="fill: #262626" transform="translate(27.7 153.468153) scale(0.12 -0.12)">
       <use xlink:href="#DejaVuSans-31"/>
       <use xlink:href="#DejaVuSans-35" x="63.623047"/>
      </g>
     </g>
    </g>
    <g id="ytick_2">
     <g id="line2d_9">
      <path d="M 48.57 116.931818 
L 243.08 116.931818 
" clip-path="url(#p607c42caae)" style="fill: none; stroke: #cccccc; stroke-width: 0.8; stroke-linecap: round"/>
     </g>
     <g id="line2d_10"/>
     <g id="text_6">
      <!-- 20 -->
      <g style="fill: #262626" transform="translate(27.7 121.490881) scale(0.12 -0.12)">
       <defs>
        <path id="DejaVuSans-32" d="M 1228 531 
L 3431 531 
L 3431 0 
L 469 0 
L 469 531 
Q 828 903 1448 1529 
Q 2069 2156 2228 2338 
Q 2531 2678 2651 2914 
Q 2772 3150 2772 3378 
Q 2772 3750 2511 3984 
Q 2250 4219 1831 4219 
Q 1534 4219 1204 4116 
Q 875 4013 500 3803 
L 500 4441 
Q 881 4594 1212 4672 
Q 1544 4750 1819 4750 
Q 2544 4750 2975 4387 
Q 3406 4025 3406 3419 
Q 3406 3131 3298 2873 
Q 3191 2616 2906 2266 
Q 2828 2175 2409 1742 
Q 1991 1309 1228 531 
z
" transform="scale(0.015625)"/>
       </defs>
       <use xlink:href="#DejaVuSans-32"/>
       <use xlink:href="#DejaVuSans-30" x="63.623047"/>
      </g>
     </g>
    </g>
    <g id="ytick_3">
     <g id="line2d_11">
      <path d="M 48.57 84.954545 
L 243.08 84.954545 
" clip-path="url(#p607c42caae)" style="fill: none; stroke: #cccccc; stroke-width: 0.8; stroke-linecap: round"/>
     </g>
     <g id="line2d_12"/>
     <g id="text_7">
      <!-- 25 -->
      <g style="fill: #262626" transform="translate(27.7 89.513608) scale(0.12 -0.12)">
       <use xlink:href="#DejaVuSans-32"/>
       <use xlink:href="#DejaVuSans-35" x="63.623047"/>
      </g>
     </g>
    </g>
    <g id="ytick_4">
     <g id="line2d_13">
      <path d="M 48.57 52.977273 
L 243.08 52.977273 
" clip-path="url(#p607c42caae)" style="fill: none; stroke: #cccccc; stroke-width: 0.8; stroke-linecap: round"/>
     </g>
     <g id="line2d_14"/>
     <g id="text_8">
      <!-- 30 -->
      <g style="fill: #262626" transform="translate(27.7 57.536335) scale(0.12 -0.12)">
       <use xlink:href="#DejaVuSans-33"/>
       <use xlink:href="#DejaVuSans-30" x="63.623047"/>
      </g>
     </g>
    </g>
    <g id="ytick_5">
     <g id="line2d_15">
      <path d="M 48.57 21 
L 243.08 21 
" clip-path="url(#p607c42caae)" style="fill: none; stroke: #cccccc; stroke-width: 0.8; stroke-linecap: round"/>
     </g>
     <g id="line2d_16"/>
     <g id="text_9">
      <!-- 35 -->
      <g style="fill: #262626" transform="translate(27.7 25.559063) scale(0.12 -0.12)">
       <use xlink:href="#DejaVuSans-33"/>
       <use xlink:href="#DejaVuSans-35" x="63.623047"/>
      </g>
     </g>
    </g>
    <g id="text_10">
     <!-- Hit Rate(%) -->
     <g style="fill: #262626" transform="translate(21.204375 125.925938) rotate(-90) scale(0.12 -0.12)">
      <defs>
       <path id="DejaVuSans-48" d="M 628 4666 
L 1259 4666 
L 1259 2753 
L 3553 2753 
L 3553 4666 
L 4184 4666 
L 4184 0 
L 3553 0 
L 3553 2222 
L 1259 2222 
L 1259 0 
L 628 0 
L 628 4666 
z
" transform="scale(0.015625)"/>
       <path id="DejaVuSans-52" d="M 2841 2188 
Q 3044 2119 3236 1894 
Q 3428 1669 3622 1275 
L 4263 0 
L 3584 0 
L 2988 1197 
Q 2756 1666 2539 1819 
Q 2322 1972 1947 1972 
L 1259 1972 
L 1259 0 
L 628 0 
L 628 4666 
L 2053 4666 
Q 2853 4666 3247 4331 
Q 3641 3997 3641 3322 
Q 3641 2881 3436 2590 
Q 3231 2300 2841 2188 
z
M 1259 4147 
L 1259 2491 
L 2053 2491 
Q 2509 2491 2742 2702 
Q 2975 2913 2975 3322 
Q 2975 3731 2742 3939 
Q 2509 4147 2053 4147 
L 1259 4147 
z
" transform="scale(0.015625)"/>
       <path id="DejaVuSans-25" d="M 4653 2053 
Q 4381 2053 4226 1822 
Q 4072 1591 4072 1178 
Q 4072 772 4226 539 
Q 4381 306 4653 306 
Q 4919 306 5073 539 
Q 5228 772 5228 1178 
Q 5228 1588 5073 1820 
Q 4919 2053 4653 2053 
z
M 4653 2450 
Q 5147 2450 5437 2106 
Q 5728 1763 5728 1178 
Q 5728 594 5436 251 
Q 5144 -91 4653 -91 
Q 4153 -91 3862 251 
Q 3572 594 3572 1178 
Q 3572 1766 3864 2108 
Q 4156 2450 4653 2450 
z
M 1428 4353 
Q 1159 4353 1004 4120 
Q 850 3888 850 3481 
Q 850 3069 1003 2837 
Q 1156 2606 1428 2606 
Q 1700 2606 1854 2837 
Q 2009 3069 2009 3481 
Q 2009 3884 1853 4118 
Q 1697 4353 1428 4353 
z
M 4250 4750 
L 4750 4750 
L 1831 -91 
L 1331 -91 
L 4250 4750 
z
M 1428 4750 
Q 1922 4750 2215 4408 
Q 2509 4066 2509 3481 
Q 2509 2891 2217 2550 
Q 1925 2209 1428 2209 
Q 931 2209 642 2551 
Q 353 2894 353 3481 
Q 353 4063 643 4406 
Q 934 4750 1428 4750 
z
" transform="scale(0.015625)"/>
      </defs>
      <use xlink:href="#DejaVuSans-48"/>
      <use xlink:href="#DejaVuSans-69" x="75.195312"/>
      <use xlink:href="#DejaVuSans-74" x="102.978516"/>
      <use xlink:href="#DejaVuSans-20" x="142.1875"/>
      <use xlink:href="#DejaVuSans-52" x="173.974609"/>
      <use xlink:href="#DejaVuSans-61" x="241.207031"/>
      <use xlink:href="#DejaVuSans-74" x="302.486328"/>
      <use xlink:href="#DejaVuSans-65" x="341.695312"/>
      <use xlink:href="#DejaVuSans-28" x="403.21875"/>
      <use xlink:href="#DejaVuSans-25" x="442.232422"/>
      <use xlink:href="#DejaVuSans-29" x="537.251953"/>
     </g>
    </g>
   </g>
   <g id="PathCollection_1">
    <defs>
     <path id="m4aaad2c3c3" d="M 0 -2.8 
L -2.8 2.8 
L 2.8 2.8 
z
" style="stroke: #c44e52; stroke-width: 0.24"/>
    </defs>
    <g clip-path="url(#p607c42caae)">
     <use xlink:href="#m4aaad2c3c3" x="132.363189" y="97.290738" style="fill: #c44e52; stroke: #c44e52; stroke-width: 0.24"/>
    </g>
   </g>
   <g id="PathCollection_2">
    <defs>
     <path id="m9b8c932ec2" d="M 0 -2.8 
L -2.8 2.8 
L 2.8 2.8 
z
" style="stroke: #8172b2; stroke-width: 0.24"/>
    </defs>
    <g clip-path="url(#p607c42caae)">
     <use xlink:href="#m9b8c932ec2" x="102.448055" y="73.893607" style="fill: #8172b2; stroke: #8172b2; stroke-width: 0.24"/>
    </g>
   </g>
   <g id="PathCollection_3">
    <defs>
     <path id="md08390df74" d="M 0 -2.8 
L -2.8 2.8 
L 2.8 2.8 
z
" style="stroke: #ccb974; stroke-width: 0.24"/>
    </defs>
    <g clip-path="url(#p607c42caae)">
     <use xlink:href="#md08390df74" x="96.465028" y="56.363026" style="fill: #ccb974; stroke: #ccb974; stroke-width: 0.24"/>
    </g>
   </g>
   <g id="PathCollection_4">
    <defs>
     <path id="m021df45cd9" d="M 0 -2.8 
L -2.8 2.8 
L 2.8 2.8 
z
" style="stroke: #86a38d; stroke-width: 0.24"/>
    </defs>
    <g clip-path="url(#p607c42caae)">
     <use xlink:href="#m021df45cd9" x="90.482001" y="34.707378" style="fill: #86a38d; stroke: #86a38d; stroke-width: 0.24"/>
    </g>
   </g>
   <g id="line2d_17">
    <path d="M 57.575353 150.030214 
L 60.566866 148.373791 
L 63.55838 146.410387 
L 66.549893 144.221223 
L 69.541407 141.897754 
L 72.53292 139.544227 
L 75.524434 137.124187 
L 78.515947 134.709263 
L 81.507461 132.297537 
L 84.498974 129.796275 
L 87.490487 127.089719 
L 90.482001 124.283393 
L 93.473514 121.430381 
L 96.465028 118.581206 
L 99.456541 115.950116 
L 102.448055 113.141872 
L 105.439568 110.549155 
L 108.431082 108.002485 
L 111.422595 105.581805 
L 114.414109 103.42206 
L 117.405622 101.568657 
L 120.397136 100.05869 
L 123.388649 98.858903 
L 126.380162 98.127903 
L 129.371676 97.524172 
L 132.363189 97.290738 
L 135.354703 97.380914 
L 138.346216 97.877201 
L 141.33773 99.041174 
L 144.329243 100.56585 
L 147.320757 102.432683 
L 150.31227 104.869351 
L 153.303784 107.846435 
L 156.295297 111.397831 
L 159.286811 115.753136 
L 162.278324 120.112278 
L 165.269838 124.327522 
L 168.261351 128.109794 
L 171.252864 131.371475 
L 174.244378 134.06652 
L 177.235891 136.28958 
L 180.227405 138.018271 
L 183.218918 139.24428 
L 186.210432 139.991909 
L 189.201945 140.441509 
L 192.193459 140.681339 
L 195.184972 140.80541 
L 198.176486 140.870644 
L 201.167999 140.900063 
L 204.159513 140.916052 
L 207.151026 140.930761 
L 210.142539 140.941634 
L 213.134053 140.94739 
L 216.125566 140.949948 
L 219.11708 140.951227 
L 222.108593 140.950587 
L 225.100107 140.950587 
L 228.09162 140.951866 
L 231.083134 140.951866 
L 234.074647 140.949948 
" clip-path="url(#p607c42caae)" style="fill: none; stroke-dasharray: 5.18,2.24; stroke-dashoffset: 0; stroke: #c44e52; stroke-width: 1.4"/>
   </g>
   <g id="line2d_18">
    <path d="M 57.575353 97.462775 
L 60.566866 96.355722 
L 63.55838 95.042096 
L 66.549893 93.45986 
L 69.541407 91.707506 
L 72.53292 89.955791 
L 75.524434 88.003259 
L 78.515947 85.776361 
L 81.507461 83.59743 
L 84.498974 81.75426 
L 87.490487 79.603469 
L 90.482001 77.693786 
L 93.473514 76.132655 
L 96.465028 74.998741 
L 99.456541 74.008725 
L 102.448055 73.893607 
L 105.439568 74.344486 
L 108.431082 74.715423 
L 111.422595 74.458325 
L 114.414109 74.407162 
L 117.405622 74.59199 
L 120.397136 75.415725 
L 123.388649 76.726154 
L 126.380162 78.16577 
L 129.371676 79.5037 
L 132.363189 80.860175 
L 135.354703 82.084905 
L 138.346216 83.369752 
L 141.33773 84.65204 
L 144.329243 85.79171 
L 147.320757 86.93266 
L 150.31227 87.922036 
L 153.303784 88.77455 
L 156.295297 89.496597 
L 159.286811 90.073467 
L 162.278324 90.47766 
L 165.269838 90.768014 
L 168.261351 90.959877 
L 171.252864 91.114647 
L 174.244378 91.220812 
L 177.235891 91.287964 
L 180.227405 91.334011 
L 183.218918 91.36407 
L 186.210432 91.39157 
L 189.201945 91.40628 
L 192.193459 91.415873 
L 195.184972 91.417152 
L 198.176486 91.417152 
L 201.167999 91.417152 
L 204.159513 91.417152 
L 207.151026 91.417152 
L 210.142539 91.417152 
L 213.134053 91.417152 
L 216.125566 91.417152 
L 219.11708 91.417152 
L 222.108593 91.417152 
L 225.100107 91.417152 
L 228.09162 91.417152 
L 231.083134 91.417152 
L 234.074647 91.417152 
" clip-path="url(#p607c42caae)" style="fill: none; stroke-dasharray: 1.4,2.31; stroke-dashoffset: 0; stroke: #8172b2; stroke-width: 1.4"/>
   </g>
   <g id="line2d_19">
    <path d="M 57.575353 78.228446 
L 60.566866 77.003716 
L 63.55838 75.69073 
L 66.549893 73.778489 
L 69.541407 71.76392 
L 72.53292 69.980228 
L 75.524434 68.028975 
L 78.515947 65.919115 
L 81.507461 63.106394 
L 84.498974 61.47939 
L 87.490487 59.406623 
L 90.482001 57.235366 
L 93.473514 56.524192 
L 96.465028 56.363026 
L 99.456541 56.430179 
L 102.448055 58.035438 
L 105.439568 60.268091 
L 108.431082 61.861199 
L 111.422595 63.081451 
L 114.414109 64.96875 
L 117.405622 66.397495 
L 120.397136 68.223397 
L 123.388649 69.8229 
L 126.380162 71.749211 
L 129.371676 73.282201 
L 132.363189 74.405243 
L 135.354703 75.642124 
L 138.346216 76.662839 
L 141.33773 77.28064 
L 144.329243 77.640704 
L 147.320757 78.074955 
L 150.31227 78.505369 
L 153.303784 78.859038 
L 156.295297 79.079681 
L 159.286811 79.243405 
L 162.278324 79.345092 
L 165.269838 79.426315 
L 168.261351 79.47492 
L 171.252864 79.510735 
L 174.244378 79.535677 
L 177.235891 79.554224 
L 180.227405 79.57341 
L 183.218918 79.579805 
L 186.210432 79.580445 
L 189.201945 79.581085 
L 192.193459 79.580445 
L 195.184972 79.581085 
L 198.176486 79.581085 
L 201.167999 79.581085 
L 204.159513 79.581085 
L 207.151026 79.581085 
L 210.142539 79.581085 
L 213.134053 79.581085 
L 216.125566 79.581085 
L 219.11708 79.581085 
L 222.108593 79.581085 
L 225.100107 79.581085 
L 228.09162 79.581085 
L 231.083134 79.581085 
L 234.074647 79.581085 
" clip-path="url(#p607c42caae)" style="fill: none; stroke-dasharray: 8.96,2.24,1.4,2.24; stroke-dashoffset: 0; stroke: #ccb974; stroke-width: 1.4"/>
   </g>
   <g id="line2d_20">
    <path d="M 57.575353 53.915486 
L 60.566866 52.528312 
L 63.55838 50.937123 
L 66.549893 49.306921 
L 69.541407 47.568637 
L 72.53292 45.886632 
L 75.524434 43.401998 
L 78.515947 41.385511 
L 81.507461 39.180998 
L 84.498974 37.224629 
L 87.490487 35.412796 
L 90.482001 34.707378 
L 93.473514 35.304074 
L 96.465028 35.541985 
L 99.456541 36.366998 
L 102.448055 37.184977 
L 105.439568 38.476219 
L 108.431082 41.87988 
L 111.422595 44.56725 
L 114.414109 47.433693 
L 117.405622 49.023603 
L 120.397136 51.492888 
L 123.388649 54.239096 
L 126.380162 57.021758 
L 129.371676 58.837428 
L 132.363189 60.724726 
L 135.354703 62.432952 
L 138.346216 63.348781 
L 141.33773 63.770881 
L 144.329243 64.097689 
L 147.320757 64.288274 
L 150.31227 64.409148 
L 153.303784 64.50508 
L 156.295297 64.565197 
L 159.286811 64.615721 
L 162.278324 64.647698 
L 165.269838 64.679036 
L 168.261351 64.699501 
L 171.252864 64.706536 
L 174.244378 64.71549 
L 177.235891 64.719967 
L 180.227405 64.719327 
L 183.218918 64.719327 
L 186.210432 64.719327 
L 189.201945 64.719327 
L 192.193459 64.719327 
L 195.184972 64.719327 
L 198.176486 64.719327 
L 201.167999 64.719327 
L 204.159513 64.719327 
L 207.151026 64.719327 
L 210.142539 64.719327 
L 213.134053 64.719327 
L 216.125566 64.719327 
L 219.11708 64.719327 
L 222.108593 64.719327 
L 225.100107 64.719327 
L 228.09162 64.719327 
L 231.083134 64.719327 
L 234.074647 64.719327 
" clip-path="url(#p607c42caae)" style="fill: none; stroke-dasharray: 5.18,2.24; stroke-dashoffset: 0; stroke: #86a38d; stroke-width: 1.4"/>
   </g>
   <g id="patch_3">
    <path d="M 48.57 161.7 
L 48.57 21 
" style="fill: none; stroke: #cccccc; stroke-linejoin: miter; stroke-linecap: square"/>
   </g>
   <g id="patch_4">
    <path d="M 243.08 161.7 
L 243.08 21 
" style="fill: none; stroke: #cccccc; stroke-linejoin: miter; stroke-linecap: square"/>
   </g>
   <g id="patch_5">
    <path d="M 48.57 161.7 
L 243.08 161.7 
" style="fill: none; stroke: #cccccc; stroke-linejoin: miter; stroke-linecap: square"/>
   </g>
   <g id="patch_6">
    <path d="M 48.57 21 
L 243.08 21 
" style="fill: none; stroke: #cccccc; stroke-linejoin: miter; stroke-linecap: square"/>
   </g>
  </g>
  <g id="axes_2">
   <g id="patch_7">
    <path d="M 274.69 161.7 
L 469.2 161.7 
L 469.2 21 
L 274.69 21 
z
" style="fill: #ffffff"/>
   </g>
   <g id="matplotlib.axis_3">
    <g id="xtick_4">
     <g id="line2d_21">
      <path d="M 313.610487 161.7 
L 313.610487 21 
" clip-path="url(#pe28780d0a8)" style="fill: none; stroke: #cccccc; stroke-width: 0.8; stroke-linecap: round"/>
     </g>
     <g id="line2d_22"/>
     <g id="text_11">
      <!-- $\mathdefault{10^{-1}}$ -->
      <g style="fill: #262626" transform="translate(299.510487 176.418125) scale(0.12 -0.12)">
       <use xlink:href="#DejaVuSans-31" transform="translate(0 0.684375)"/>
       <use xlink:href="#DejaVuSans-30" transform="translate(63.623047 0.684375)"/>
       <use xlink:href="#DejaVuSans-2212" transform="translate(128.203125 38.965625) scale(0.7)"/>
       <use xlink:href="#DejaVuSans-31" transform="translate(186.855469 38.965625) scale(0.7)"/>
      </g>
     </g>
    </g>
    <g id="xtick_5">
     <g id="line2d_23">
      <path d="M 373.440757 161.7 
L 373.440757 21 
" clip-path="url(#pe28780d0a8)" style="fill: none; stroke: #cccccc; stroke-width: 0.8; stroke-linecap: round"/>
     </g>
     <g id="line2d_24"/>
     <g id="text_12">
      <!-- $\mathdefault{10^{1}}$ -->
      <g style="fill: #262626" transform="translate(362.880757 176.418125) scale(0.12 -0.12)">
       <use xlink:href="#DejaVuSans-31" transform="translate(0 0.684375)"/>
       <use xlink:href="#DejaVuSans-30" transform="translate(63.623047 0.684375)"/>
       <use xlink:href="#DejaVuSans-31" transform="translate(128.203125 38.965625) scale(0.7)"/>
      </g>
     </g>
    </g>
    <g id="xtick_6">
     <g id="line2d_25">
      <path d="M 433.271026 161.7 
L 433.271026 21 
" clip-path="url(#pe28780d0a8)" style="fill: none; stroke: #cccccc; stroke-width: 0.8; stroke-linecap: round"/>
     </g>
     <g id="line2d_26"/>
     <g id="text_13">
      <!-- $\mathdefault{10^{3}}$ -->
      <g style="fill: #262626" transform="translate(422.711026 176.418125) scale(0.12 -0.12)">
       <use xlink:href="#DejaVuSans-31" transform="translate(0 0.765625)"/>
       <use xlink:href="#DejaVuSans-30" transform="translate(63.623047 0.765625)"/>
       <use xlink:href="#DejaVuSans-33" transform="translate(128.203125 39.046875) scale(0.7)"/>
      </g>
     </g>
    </g>
    <g id="text_14">
     <!-- (b) Parameter with $R=\frac{1}{\lambda \times c}$ -->
     <g style="fill: #262626" transform="translate(291.245 194.31375) scale(0.12 -0.12)">
      <defs>
       <path id="DejaVuSans-62" d="M 3116 1747 
Q 3116 2381 2855 2742 
Q 2594 3103 2138 3103 
Q 1681 3103 1420 2742 
Q 1159 2381 1159 1747 
Q 1159 1113 1420 752 
Q 1681 391 2138 391 
Q 2594 391 2855 752 
Q 3116 1113 3116 1747 
z
M 1159 2969 
Q 1341 3281 1617 3432 
Q 1894 3584 2278 3584 
Q 2916 3584 3314 3078 
Q 3713 2572 3713 1747 
Q 3713 922 3314 415 
Q 2916 -91 2278 -91 
Q 1894 -91 1617 61 
Q 1341 213 1159 525 
L 1159 0 
L 581 0 
L 581 4863 
L 1159 4863 
L 1159 2969 
z
" transform="scale(0.015625)"/>
       <path id="DejaVuSans-Oblique-52" d="M 1613 4147 
L 1294 2491 
L 2106 2491 
Q 2584 2491 2879 2755 
Q 3175 3019 3175 3444 
Q 3175 3784 2976 3965 
Q 2778 4147 2406 4147 
L 1613 4147 
z
M 2772 2241 
Q 2972 2194 3105 2009 
Q 3238 1825 3413 1275 
L 3809 0 
L 3144 0 
L 2778 1197 
Q 2638 1659 2453 1815 
Q 2269 1972 1888 1972 
L 1191 1972 
L 806 0 
L 172 0 
L 1081 4666 
L 2503 4666 
Q 3150 4666 3495 4373 
Q 3841 4081 3841 3531 
Q 3841 3044 3547 2687 
Q 3253 2331 2772 2241 
z
" transform="scale(0.015625)"/>
       <path id="DejaVuSans-3d" d="M 678 2906 
L 4684 2906 
L 4684 2381 
L 678 2381 
L 678 2906 
z
M 678 1631 
L 4684 1631 
L 4684 1100 
L 678 1100 
L 678 1631 
z
" transform="scale(0.015625)"/>
       <path id="DejaVuSans-d7" d="M 4488 3438 
L 3059 2003 
L 4488 575 
L 4116 197 
L 2681 1631 
L 1247 197 
L 878 575 
L 2303 2003 
L 878 3438 
L 1247 3816 
L 2681 2381 
L 4116 3816 
L 4488 3438 
z
" transform="scale(0.015625)"/>
       <path id="DejaVuSans-Oblique-63" d="M 3431 3366 
L 3316 2797 
Q 3109 2947 2876 3022 
Q 2644 3097 2394 3097 
Q 2119 3097 1870 3000 
Q 1622 2903 1453 2725 
Q 1184 2453 1037 2087 
Q 891 1722 891 1331 
Q 891 859 1127 628 
Q 1363 397 1844 397 
Q 2081 397 2348 469 
Q 2616 541 2906 684 
L 2797 116 
Q 2547 13 2283 -39 
Q 2019 -91 1741 -91 
Q 1044 -91 669 257 
Q 294 606 294 1253 
Q 294 1797 489 2255 
Q 684 2713 1069 3078 
Q 1331 3328 1684 3456 
Q 2038 3584 2456 3584 
Q 2700 3584 2940 3529 
Q 3181 3475 3431 3366 
z
" transform="scale(0.015625)"/>
      </defs>
      <use xlink:href="#DejaVuSans-28" transform="translate(0 0.16875)"/>
      <use xlink:href="#DejaVuSans-62" transform="translate(39.013672 0.16875)"/>
      <use xlink:href="#DejaVuSans-29" transform="translate(102.490234 0.16875)"/>
      <use xlink:href="#DejaVuSans-20" transform="translate(141.503906 0.16875)"/>
      <use xlink:href="#DejaVuSans-50" transform="translate(173.291016 0.16875)"/>
      <use xlink:href="#DejaVuSans-61" transform="translate(233.59375 0.16875)"/>
      <use xlink:href="#DejaVuSans-72" transform="translate(294.873047 0.16875)"/>
      <use xlink:href="#DejaVuSans-61" transform="translate(335.986328 0.16875)"/>
      <use xlink:href="#DejaVuSans-6d" transform="translate(397.265625 0.16875)"/>
      <use xlink:href="#DejaVuSans-65" transform="translate(494.677734 0.16875)"/>
      <use xlink:href="#DejaVuSans-74" transform="translate(556.201172 0.16875)"/>
      <use xlink:href="#DejaVuSans-65" transform="translate(595.410156 0.16875)"/>
      <use xlink:href="#DejaVuSans-72" transform="translate(656.933594 0.16875)"/>
      <use xlink:href="#DejaVuSans-20" transform="translate(698.046875 0.16875)"/>
      <use xlink:href="#DejaVuSans-77" transform="translate(729.833984 0.16875)"/>
      <use xlink:href="#DejaVuSans-69" transform="translate(811.621094 0.16875)"/>
      <use xlink:href="#DejaVuSans-74" transform="translate(839.404297 0.16875)"/>
      <use xlink:href="#DejaVuSans-68" transform="translate(878.613281 0.16875)"/>
      <use xlink:href="#DejaVuSans-20" transform="translate(941.992188 0.16875)"/>
      <use xlink:href="#DejaVuSans-Oblique-52" transform="translate(973.779297 0.16875)"/>
      <use xlink:href="#DejaVuSans-3d" transform="translate(1062.744141 0.16875)"/>
      <use xlink:href="#DejaVuSans-31" transform="translate(1227.015625 43.965625) scale(0.7)"/>
      <use xlink:href="#DejaVuSans-Oblique-3bb" transform="translate(1166.015625 -40.473437) scale(0.7)"/>
      <use xlink:href="#DejaVuSans-d7" transform="translate(1221.079102 -40.473437) scale(0.7)"/>
      <use xlink:href="#DejaVuSans-Oblique-63" transform="translate(1293.369141 -40.473437) scale(0.7)"/>
      <path d="M 1166.015625 18.965625 
L 1166.015625 25.215625 
L 1331.855469 25.215625 
L 1331.855469 18.965625 
L 1166.015625 18.965625 
z
"/>
     </g>
    </g>
   </g>
   <g id="matplotlib.axis_4">
    <g id="ytick_6">
     <g id="line2d_27">
      <path d="M 274.69 148.909091 
L 469.2 148.909091 
" clip-path="url(#pe28780d0a8)" style="fill: none; stroke: #cccccc; stroke-width: 0.8; stroke-linecap: round"/>
     </g>
     <g id="line2d_28"/>
     <g id="text_15">
      <!-- 15 -->
      <g style="fill: #262626" transform="translate(253.82 153.468153) scale(0.12 -0.12)">
       <use xlink:href="#DejaVuSans-31"/>
       <use xlink:href="#DejaVuSans-35" x="63.623047"/>
      </g>
     </g>
    </g>
    <g id="ytick_7">
     <g id="line2d_29">
      <path d="M 274.69 116.931818 
L 469.2 116.931818 
" clip-path="url(#pe28780d0a8)" style="fill: none; stroke: #cccccc; stroke-width: 0.8; stroke-linecap: round"/>
     </g>
     <g id="line2d_30"/>
     <g id="text_16">
      <!-- 20 -->
      <g style="fill: #262626" transform="translate(253.82 121.490881) scale(0.12 -0.12)">
       <use xlink:href="#DejaVuSans-32"/>
       <use xlink:href="#DejaVuSans-30" x="63.623047"/>
      </g>
     </g>
    </g>
    <g id="ytick_8">
     <g id="line2d_31">
      <path d="M 274.69 84.954545 
L 469.2 84.954545 
" clip-path="url(#pe28780d0a8)" style="fill: none; stroke: #cccccc; stroke-width: 0.8; stroke-linecap: round"/>
     </g>
     <g id="line2d_32"/>
     <g id="text_17">
      <!-- 25 -->
      <g style="fill: #262626" transform="translate(253.82 89.513608) scale(0.12 -0.12)">
       <use xlink:href="#DejaVuSans-32"/>
       <use xlink:href="#DejaVuSans-35" x="63.623047"/>
      </g>
     </g>
    </g>
    <g id="ytick_9">
     <g id="line2d_33">
      <path d="M 274.69 52.977273 
L 469.2 52.977273 
" clip-path="url(#pe28780d0a8)" style="fill: none; stroke: #cccccc; stroke-width: 0.8; stroke-linecap: round"/>
     </g>
     <g id="line2d_34"/>
     <g id="text_18">
      <!-- 30 -->
      <g style="fill: #262626" transform="translate(253.82 57.536335) scale(0.12 -0.12)">
       <use xlink:href="#DejaVuSans-33"/>
       <use xlink:href="#DejaVuSans-30" x="63.623047"/>
      </g>
     </g>
    </g>
    <g id="ytick_10">
     <g id="line2d_35">
      <path d="M 274.69 21 
L 469.2 21 
" clip-path="url(#pe28780d0a8)" style="fill: none; stroke: #cccccc; stroke-width: 0.8; stroke-linecap: round"/>
     </g>
     <g id="line2d_36"/>
     <g id="text_19">
      <!-- 35 -->
      <g style="fill: #262626" transform="translate(253.82 25.559063) scale(0.12 -0.12)">
       <use xlink:href="#DejaVuSans-33"/>
       <use xlink:href="#DejaVuSans-35" x="63.623047"/>
      </g>
     </g>
    </g>
   </g>
   <g id="PathCollection_5">
    <g clip-path="url(#pe28780d0a8)">
     <use xlink:href="#m4aaad2c3c3" x="385.406811" y="97.785746" style="fill: #c44e52; stroke: #c44e52; stroke-width: 0.24"/>
    </g>
   </g>
   <g id="PathCollection_6">
    <g clip-path="url(#pe28780d0a8)">
     <use xlink:href="#m9b8c932ec2" x="379.423784" y="74.80368" style="fill: #8172b2; stroke: #8172b2; stroke-width: 0.24"/>
    </g>
   </g>
   <g id="PathCollection_7">
    <g clip-path="url(#pe28780d0a8)">
     <use xlink:href="#md08390df74" x="394.381351" y="59.427089" style="fill: #ccb974; stroke: #ccb974; stroke-width: 0.24"/>
    </g>
   </g>
   <g id="PathCollection_8">
    <g clip-path="url(#pe28780d0a8)">
     <use xlink:href="#m021df45cd9" x="388.398324" y="36.684213" style="fill: #86a38d; stroke: #86a38d; stroke-width: 0.24"/>
    </g>
   </g>
   <g id="line2d_37">
    <path d="M 283.695353 140.949948 
L 286.686866 140.949948 
L 289.67838 140.949948 
L 292.669893 140.949948 
L 295.661407 140.949948 
L 298.65292 140.949948 
L 301.644434 140.949948 
L 304.635947 140.949948 
L 307.627461 140.949948 
L 310.618974 140.949948 
L 313.610487 140.949948 
L 316.602001 140.949948 
L 319.593514 140.949948 
L 322.585028 140.949948 
L 325.576541 140.949948 
L 328.568055 140.949948 
L 331.559568 140.310402 
L 334.551082 139.670857 
L 337.542595 139.031311 
L 340.534109 138.391766 
L 343.525622 135.856608 
L 346.517136 132.49068 
L 349.508649 128.767246 
L 352.500162 124.307696 
L 355.491676 119.718957 
L 358.483189 115.022135 
L 361.474703 110.587527 
L 364.466216 106.968979 
L 367.45773 104.091025 
L 370.449243 101.938315 
L 373.440757 100.251194 
L 376.43227 98.880008 
L 379.423784 98.11767 
L 382.415297 97.809409 
L 385.406811 97.785746 
L 388.398324 98.133019 
L 391.389838 98.770646 
L 394.381351 99.756185 
L 397.372864 101.064056 
L 400.364378 102.609198 
L 403.355891 104.577719 
L 406.347405 106.660079 
L 409.338918 109.055176 
L 412.330432 111.564113 
L 415.321945 114.178575 
L 418.313459 116.810305 
L 421.304972 119.269996 
L 424.296486 121.98103 
L 427.287999 124.582061 
L 430.279513 127.028962 
L 433.271026 129.331325 
L 436.262539 131.571653 
L 439.254053 133.910471 
L 442.245566 136.229463 
L 445.23708 138.436534 
L 448.228593 140.465812 
L 451.220107 142.19962 
L 454.21162 143.595108 
L 457.203134 144.766115 
L 460.194647 145.700491 
" clip-path="url(#pe28780d0a8)" style="fill: none; stroke-dasharray: 5.18,2.24; stroke-dashoffset: 0; stroke: #c44e52; stroke-width: 1.4"/>
   </g>
   <g id="line2d_38">
    <path d="M 283.695353 91.417152 
L 286.686866 91.417152 
L 289.67838 91.417152 
L 292.669893 91.417152 
L 295.661407 91.417152 
L 298.65292 91.417152 
L 301.644434 91.417152 
L 304.635947 91.417152 
L 307.627461 91.417152 
L 310.618974 91.417152 
L 313.610487 91.417152 
L 316.602001 91.417152 
L 319.593514 91.417152 
L 322.585028 91.417152 
L 325.576541 91.417152 
L 328.568055 91.417152 
L 331.559568 90.777607 
L 334.551082 90.138061 
L 337.542595 89.498516 
L 340.534109 88.85897 
L 343.525622 89.336711 
L 346.517136 88.230937 
L 349.508649 87.118767 
L 352.500162 85.855025 
L 355.491676 84.507503 
L 358.483189 83.033351 
L 361.474703 81.738911 
L 364.466216 80.372842 
L 367.45773 79.012529 
L 370.449243 77.488492 
L 373.440757 76.103236 
L 376.43227 75.039672 
L 379.423784 74.80368 
L 382.415297 75.022405 
L 385.406811 75.205954 
L 388.398324 75.530204 
L 391.389838 75.708637 
L 394.381351 75.71759 
L 397.372864 76.191494 
L 400.364378 76.693537 
L 403.355891 77.769892 
L 406.347405 79.099507 
L 409.338918 80.428482 
L 412.330432 81.82461 
L 415.321945 83.818073 
L 418.313459 85.618394 
L 421.304972 87.771743 
L 424.296486 89.575901 
L 427.287999 91.106973 
L 430.279513 92.358563 
L 433.271026 93.405499 
L 436.262539 94.232431 
L 439.254053 94.841918 
L 442.245566 95.376578 
L 445.23708 95.774375 
L 448.228593 96.069206 
L 451.220107 96.338455 
L 454.21162 96.56997 
L 457.203134 96.720903 
L 460.194647 96.8373 
" clip-path="url(#pe28780d0a8)" style="fill: none; stroke-dasharray: 1.4,2.31; stroke-dashoffset: 0; stroke: #8172b2; stroke-width: 1.4"/>
   </g>
   <g id="line2d_39">
    <path d="M 283.695353 79.581085 
L 286.686866 79.581085 
L 289.67838 79.581085 
L 292.669893 79.581085 
L 295.661407 79.581085 
L 298.65292 79.581085 
L 301.644434 79.581085 
L 304.635947 79.581085 
L 307.627461 79.581085 
L 310.618974 79.581085 
L 313.610487 79.581085 
L 316.602001 79.581085 
L 319.593514 79.581085 
L 322.585028 79.581085 
L 325.576541 79.581085 
L 328.568055 79.581085 
L 331.559568 78.941539 
L 334.551082 78.301994 
L 337.542595 77.662448 
L 340.534109 77.022903 
L 343.525622 77.95536 
L 346.517136 77.484015 
L 349.508649 76.777957 
L 352.500162 75.484796 
L 355.491676 74.096982 
L 358.483189 72.604923 
L 361.474703 71.06042 
L 364.466216 69.392486 
L 367.45773 67.523095 
L 370.449243 65.907603 
L 373.440757 64.896481 
L 376.43227 63.335351 
L 379.423784 62.583885 
L 382.415297 61.720499 
L 385.406811 60.590422 
L 388.398324 60.168322 
L 391.389838 59.602964 
L 394.381351 59.427089 
L 397.372864 59.912504 
L 400.364378 61.533112 
L 403.355891 63.302095 
L 406.347405 65.289802 
L 409.338918 67.478326 
L 412.330432 68.89492 
L 415.321945 70.221337 
L 418.313459 71.636011 
L 421.304972 73.588544 
L 424.296486 74.12832 
L 427.287999 75.131127 
L 430.279513 76.133295 
L 433.271026 77.172556 
L 436.262539 77.282558 
L 439.254053 78.367867 
L 442.245566 78.737524 
L 445.23708 79.023401 
L 448.228593 79.247242 
L 451.220107 79.465327 
L 454.21162 79.879752 
L 457.203134 79.723703 
L 460.194647 80.102314 
" clip-path="url(#pe28780d0a8)" style="fill: none; stroke-dasharray: 8.96,2.24,1.4,2.24; stroke-dashoffset: 0; stroke: #ccb974; stroke-width: 1.4"/>
   </g>
   <g id="line2d_40">
    <path d="M 283.695353 64.719327 
L 286.686866 64.719327 
L 289.67838 64.719327 
L 292.669893 64.719327 
L 295.661407 64.719327 
L 298.65292 64.719327 
L 301.644434 64.719327 
L 304.635947 64.719327 
L 307.627461 64.719327 
L 310.618974 64.719327 
L 313.610487 64.719327 
L 316.602001 64.719327 
L 319.593514 64.719327 
L 322.585028 64.719327 
L 325.576541 64.719327 
L 328.568055 64.719327 
L 331.559568 64.079782 
L 334.551082 63.440236 
L 337.542595 62.800691 
L 340.534109 62.161145 
L 343.525622 62.220623 
L 346.517136 61.377063 
L 349.508649 58.619343 
L 352.500162 55.8661 
L 355.491676 52.450927 
L 358.483189 50.238739 
L 361.474703 48.687202 
L 364.466216 44.860162 
L 367.45773 42.277677 
L 370.449243 38.781282 
L 373.440757 38.544011 
L 376.43227 38.737154 
L 379.423784 38.104004 
L 382.415297 37.147244 
L 385.406811 37.294339 
L 388.398324 36.684213 
L 391.389838 38.121271 
L 394.381351 39.659378 
L 397.372864 40.85277 
L 400.364378 42.346109 
L 403.355891 44.91836 
L 406.347405 46.314488 
L 409.338918 47.347354 
L 412.330432 49.814081 
L 415.321945 50.789388 
L 418.313459 52.0947 
L 421.304972 53.039948 
L 424.296486 54.096477 
L 427.287999 54.636893 
L 430.279513 55.476616 
L 433.271026 55.595572 
L 436.262539 55.858425 
L 439.254053 56.080987 
L 442.245566 56.277327 
L 445.23708 56.331689 
L 448.228593 56.556169 
L 451.220107 56.609891 
L 454.21162 56.552332 
L 457.203134 56.655938 
L 460.194647 56.744195 
" clip-path="url(#pe28780d0a8)" style="fill: none; stroke-dasharray: 5.18,2.24; stroke-dashoffset: 0; stroke: #86a38d; stroke-width: 1.4"/>
   </g>
   <g id="patch_8">
    <path d="M 274.69 161.7 
L 274.69 21 
" style="fill: none; stroke: #cccccc; stroke-linejoin: miter; stroke-linecap: square"/>
   </g>
   <g id="patch_9">
    <path d="M 469.2 161.7 
L 469.2 21 
" style="fill: none; stroke: #cccccc; stroke-linejoin: miter; stroke-linecap: square"/>
   </g>
   <g id="patch_10">
    <path d="M 274.69 161.7 
L 469.2 161.7 
" style="fill: none; stroke: #cccccc; stroke-linejoin: miter; stroke-linecap: square"/>
   </g>
   <g id="patch_11">
    <path d="M 274.69 21 
L 469.2 21 
" style="fill: none; stroke: #cccccc; stroke-linejoin: miter; stroke-linecap: square"/>
   </g>
   <g id="legend_1">
    <g id="line2d_41">
     <path d="M 42.3525 8.578125 
L 54.3525 8.578125 
L 66.3525 8.578125 
" style="fill: none; stroke-dasharray: 5.18,2.24; stroke-dashoffset: 0; stroke: #c44e52; stroke-width: 1.4"/>
    </g>
    <g id="text_20">
     <!-- c = 200 -->
     <g style="fill: #262626" transform="translate(75.9525 12.778125) scale(0.12 -0.12)">
      <defs>
       <path id="DejaVuSans-63" d="M 3122 3366 
L 3122 2828 
Q 2878 2963 2633 3030 
Q 2388 3097 2138 3097 
Q 1578 3097 1268 2742 
Q 959 2388 959 1747 
Q 959 1106 1268 751 
Q 1578 397 2138 397 
Q 2388 397 2633 464 
Q 2878 531 3122 666 
L 3122 134 
Q 2881 22 2623 -34 
Q 2366 -91 2075 -91 
Q 1284 -91 818 406 
Q 353 903 353 1747 
Q 353 2603 823 3093 
Q 1294 3584 2113 3584 
Q 2378 3584 2631 3529 
Q 2884 3475 3122 3366 
z
" transform="scale(0.015625)"/>
      </defs>
      <use xlink:href="#DejaVuSans-63"/>
      <use xlink:href="#DejaVuSans-20" x="54.980469"/>
      <use xlink:href="#DejaVuSans-3d" x="86.767578"/>
      <use xlink:href="#DejaVuSans-20" x="170.556641"/>
      <use xlink:href="#DejaVuSans-32" x="202.34375"/>
      <use xlink:href="#DejaVuSans-30" x="265.966797"/>
      <use xlink:href="#DejaVuSans-30" x="329.589844"/>
     </g>
    </g>
    <g id="line2d_42">
     <path d="M 147.13875 8.578125 
L 159.13875 8.578125 
L 171.13875 8.578125 
" style="fill: none; stroke-dasharray: 1.4,2.31; stroke-dashoffset: 0; stroke: #8172b2; stroke-width: 1.4"/>
    </g>
    <g id="text_21">
     <!-- c = 1000 -->
     <g style="fill: #262626" transform="translate(180.73875 12.778125) scale(0.12 -0.12)">
      <use xlink:href="#DejaVuSans-63"/>
      <use xlink:href="#DejaVuSans-20" x="54.980469"/>
      <use xlink:href="#DejaVuSans-3d" x="86.767578"/>
      <use xlink:href="#DejaVuSans-20" x="170.556641"/>
      <use xlink:href="#DejaVuSans-31" x="202.34375"/>
      <use xlink:href="#DejaVuSans-30" x="265.966797"/>
      <use xlink:href="#DejaVuSans-30" x="329.589844"/>
      <use xlink:href="#DejaVuSans-30" x="393.212891"/>
     </g>
    </g>
    <g id="line2d_43">
     <path d="M 259.56 8.578125 
L 271.56 8.578125 
L 283.56 8.578125 
" style="fill: none; stroke-dasharray: 8.96,2.24,1.4,2.24; stroke-dashoffset: 0; stroke: #ccb974; stroke-width: 1.4"/>
    </g>
    <g id="text_22">
     <!-- c = 2000 -->
     <g style="fill: #262626" transform="translate(293.16 12.778125) scale(0.12 -0.12)">
      <use xlink:href="#DejaVuSans-63"/>
      <use xlink:href="#DejaVuSans-20" x="54.980469"/>
      <use xlink:href="#DejaVuSans-3d" x="86.767578"/>
      <use xlink:href="#DejaVuSans-20" x="170.556641"/>
      <use xlink:href="#DejaVuSans-32" x="202.34375"/>
      <use xlink:href="#DejaVuSans-30" x="265.966797"/>
      <use xlink:href="#DejaVuSans-30" x="329.589844"/>
      <use xlink:href="#DejaVuSans-30" x="393.212891"/>
     </g>
    </g>
    <g id="line2d_44">
     <path d="M 371.98125 8.578125 
L 383.98125 8.578125 
L 395.98125 8.578125 
" style="fill: none; stroke-dasharray: 5.18,2.24; stroke-dashoffset: 0; stroke: #86a38d; stroke-width: 1.4"/>
    </g>
    <g id="text_23">
     <!-- c = 4000 -->
     <g style="fill: #262626" transform="translate(405.58125 12.778125) scale(0.12 -0.12)">
      <defs>
       <path id="DejaVuSans-34" d="M 2419 4116 
L 825 1625 
L 2419 1625 
L 2419 4116 
z
M 2253 4666 
L 3047 4666 
L 3047 1625 
L 3713 1625 
L 3713 1100 
L 3047 1100 
L 3047 0 
L 2419 0 
L 2419 1100 
L 313 1100 
L 313 1709 
L 2253 4666 
z
" transform="scale(0.015625)"/>
      </defs>
      <use xlink:href="#DejaVuSans-63"/>
      <use xlink:href="#DejaVuSans-20" x="54.980469"/>
      <use xlink:href="#DejaVuSans-3d" x="86.767578"/>
      <use xlink:href="#DejaVuSans-20" x="170.556641"/>
      <use xlink:href="#DejaVuSans-34" x="202.34375"/>
      <use xlink:href="#DejaVuSans-30" x="265.966797"/>
      <use xlink:href="#DejaVuSans-30" x="329.589844"/>
      <use xlink:href="#DejaVuSans-30" x="393.212891"/>
     </g>
    </g>
   </g>
  </g>
 </g>
 <defs>
  <clipPath id="p607c42caae">
   <rect x="48.57" y="21" width="194.51" height="140.7"/>
  </clipPath>
  <clipPath id="pe28780d0a8">
   <rect x="274.69" y="21" width="194.51" height="140.7"/>
  </clipPath>
 </defs>
</svg>
